<?xml version="1.0" encoding="UTF-8"?>
<svg width="150px" height="45px" viewBox="0 0 150 45" version="1.1" xmlns="http://www.w3.org/2000/svg" xmlns:xlink="http://www.w3.org/1999/xlink">
    <!-- Generator: Sketch 61.2 (89653) - https://sketch.com -->
    <title>bbc</title>
    <desc>Created with Sketch.</desc>
    <g id="Page-1" stroke="none" stroke-width="1" fill="none" fill-rule="evenodd">
        <g id="bbc" fill="#000000" fill-rule="nonzero">
            <path d="M149.953276,44.5822044 L149.953276,0.0224084205 L103.488078,0.0224084205 L103.488078,44.5822044 L149.953276,44.5822044 Z M139.364595,12.8193677 C135.785356,10.7625276 132.204516,9.69604751 128.852836,9.69604751 C125.273597,9.69604751 122.301715,10.8386475 120.017317,13.1238474 C117.655997,15.3329274 116.438078,18.0748468 116.438078,21.5026467 C116.438078,24.7774055 117.655997,27.5954448 119.941998,29.8822473 C122.378637,32.0136048 125.273597,33.0808862 128.777517,33.0808862 C132.509796,33.0808862 136.165956,31.9382862 139.745996,29.652285 L139.745996,34.4518459 C136.393515,36.279525 132.661235,37.1937653 128.548356,37.1937653 C125.044436,37.1937653 122.149476,36.508686 119.711235,35.1377263 C117.378114,33.7167252 115.419383,31.7574443 113.999036,29.4239253 C112.628076,26.8358482 111.866076,24.2453674 111.866076,21.5026467 C111.866076,16.9322469 113.465395,13.1999673 116.740955,10.152767 C119.941197,7.10556667 123.902637,5.50624723 128.548356,5.50624723 C131.899235,5.50624723 135.479274,6.34436754 139.363794,8.09592681 L139.363794,12.8193677 L139.364595,12.8193677 L139.364595,12.8193677 Z M98.30952,0.0224084205 L51.8443224,0.0224084205 L51.8443224,44.5822044 L98.30952,44.5822044 L98.30952,0.0224084205 Z M66.0883613,6.64884719 L74.162681,6.64884719 C76.7523605,6.64884719 78.7338821,6.95332685 80.1793592,7.63920733 C81.62724,8.40120772 82.6929188,9.31464668 83.3796006,10.4580479 C84.1399984,11.6767678 84.5222005,13.0477275 84.5222005,14.6470469 C84.5222005,17.693446 82.9981997,19.8264061 79.7987596,21.1220471 C82.0839595,21.5026467 83.9116387,22.4168869 85.2072797,23.9400865 C86.5013183,25.3110462 87.1118801,27.0634067 87.1871988,29.0433257 C87.1118801,30.5673265 86.7304793,32.0136048 85.9692801,33.233126 C85.1303586,34.4518459 83.9877586,35.4430073 82.3884392,36.2803263 C80.7891197,37.0423267 78.8845194,37.4229263 76.5231995,37.4229263 L66.0883613,37.4229263 L66.0883613,6.64884719 Z" id="Shape"></path>
            <path d="M73.4006806,19.8272073 C75.7611991,19.8272073 77.4374398,19.3704879 78.4277999,18.5323676 C79.41816,17.5420074 79.9501982,16.3994075 79.9501982,14.9523278 C79.9501982,12.0581686 78.0472003,10.5341678 74.3141195,10.5341678 L70.5065213,10.5341678 L70.5065213,19.8272073 L73.4006806,19.8272073 L73.4006806,19.8272073 Z M74.6194004,23.7878466 L70.5065213,23.7878466 L70.5065213,33.4606845 L74.9246813,33.4606845 C76.9807203,33.4606845 78.6569609,33.3092459 79.7226397,33.003965 C80.7129998,32.4703243 81.3988803,31.861365 81.8555998,31.1762858 C82.3123193,30.4142854 82.6176002,29.5769664 82.6176002,28.6627261 C82.540679,27.7484859 82.3123193,26.9095643 81.7786786,26.1491665 C81.3219591,25.3102449 80.56076,24.7012856 79.4934787,24.3198848 C78.5047211,23.9400865 76.8284804,23.7117267 74.6194004,23.7878466 L74.6194004,23.7878466 Z M46.5119221,0.0224084205 L0.0467244861,0.0224084205 L0.0467244861,44.5822044 L46.5119221,44.5822044 L46.5119221,0.0224084205 Z M14.2154448,37.422125 L14.2154448,6.64884719 L22.2897644,6.64884719 C24.879444,6.64884719 26.7840444,6.95332685 28.231124,7.63920733 C29.6782036,8.32428655 30.8208036,9.31464668 31.506684,10.5333666 C32.2678832,11.6759665 32.649284,13.0469262 32.7254039,14.6462457 C32.649284,17.6926447 31.1260845,19.8256048 27.9266443,21.1965645 C30.2879642,21.5779654 32.0395234,22.4914043 33.3351645,23.9384839 C34.6300043,25.3094436 35.3158848,27.0618042 35.3158848,29.0417232 C35.3158848,30.6410426 34.9352852,32.0889235 34.0971649,33.2315235 C33.2590446,34.525562 32.1164446,35.5167234 30.5932451,36.2787238 C28.9939256,37.0407242 27.0132054,37.4213237 24.6518855,37.4213237 L14.2154448,37.4213237 L14.2154448,37.422125 L14.2154448,37.422125 Z" id="Shape"></path>
            <path d="M22.4420043,10.5341678 L18.6336048,10.5341678 L18.6336048,19.8272073 L21.6038839,19.8272073 C23.8890839,19.8272073 25.5645232,19.3704879 26.5556846,18.5323676 C27.5452435,17.6181273 28.0788842,16.3994075 28.0788842,15.0284478 C28.0780829,12.0573674 26.1742838,10.5341678 22.4420043,10.5341678 L22.4420043,10.5341678 Z M22.7464839,23.7878466 L18.6336048,23.7878466 L18.6336048,33.4606845 L22.9748436,33.4606845 C25.2600436,33.4606845 26.9354829,33.3092459 27.9258431,33.003965 C28.7639634,32.6233654 29.4490426,32.0897248 29.981882,31.3277244 C30.4394027,30.4904053 30.6677625,29.6514837 30.7438824,28.6627261 C30.6677625,27.5954448 30.3624816,26.7581258 29.9057621,26.1491665 C29.3831526,25.3058011 28.5705045,24.682353 27.6205621,24.3960047 C26.5548834,23.9400865 24.879444,23.7878466 22.7464839,23.7878466 L22.7464839,23.7878466 Z" id="Shape"></path>
        </g>
    </g>
</svg>