<svg width="299" height="88" viewBox="0 0 299 88" fill="none" xmlns="http://www.w3.org/2000/svg">
<path d="M0.76 25.88H9.8V20.12C9.8 13.9867 11.4 9.21333 14.6 5.8C17.8533 2.33333 22.4667 0.599997 28.44 0.599997C31.7467 0.599997 34.44 1.10666 36.52 2.12C38.6 3.13333 39.64 4.44 39.64 6.04C39.64 7.10666 39.2933 8.01333 38.6 8.76C37.96 9.45333 37.1333 9.8 36.12 9.8C35.48 9.8 34.7867 9.61333 34.04 9.24C33.3467 8.81333 32.4133 8.12 31.24 7.16C29.9067 6.04 28.8667 5.32 28.12 5C27.3733 4.62666 26.4933 4.43999 25.48 4.43999C22.28 4.43999 19.9867 6.06666 18.6 9.32C18.12 10.3867 17.7733 11.6933 17.56 13.24C17.4 14.7867 17.32 16.92 17.32 19.64V25.88H30.2V29.64H17.32V54.12C17.32 56.0933 17.4267 57.72 17.64 59C17.9067 60.28 18.3333 61.32 18.92 62.12C19.56 62.8667 20.4133 63.4 21.48 63.72C22.5467 63.9867 23.9333 64.1467 25.64 64.2V67H2.92V64.2C4.41333 64.1467 5.61333 64.0133 6.52 63.8C7.42667 63.5333 8.12 63.08 8.6 62.44C9.08 61.7467 9.4 60.8133 9.56 59.64C9.72 58.4133 9.8 56.7867 9.8 54.76V29.64H0.76V25.88ZM48.5288 54.28C48.5288 56.4667 48.5821 58.2 48.6887 59.48C48.7954 60.76 49.0621 61.7467 49.4888 62.44C49.9688 63.08 50.6354 63.5067 51.4887 63.72C52.3421 63.9333 53.5421 64.0933 55.0888 64.2V67H33.8087V64.2C35.3554 64.1467 36.5821 64.0133 37.4887 63.8C38.3954 63.5333 39.0887 63.08 39.5687 62.44C40.0487 61.8 40.3421 60.8933 40.4487 59.72C40.6087 58.4933 40.6887 56.8667 40.6887 54.84V45.48C40.6887 41.8533 40.6354 39.0267 40.5287 37C40.4754 34.9733 40.2087 33.48 39.7287 32.52C39.3021 31.56 38.6087 31 37.6487 30.84C36.6887 30.6267 35.3554 30.52 33.6487 30.52V27.72L47.6488 24.68L48.7687 34.6H49.0888C49.7821 33 50.6354 31.5333 51.6487 30.2C52.7154 28.8667 53.8621 27.7467 55.0888 26.84C56.3154 25.88 57.5954 25.1333 58.9288 24.6C60.2621 24.0667 61.6221 23.8 63.0088 23.8C64.7154 23.8 66.0488 24.2267 67.0087 25.08C68.0221 25.88 68.5288 26.9733 68.5288 28.36C68.5288 29.64 68.1288 30.6533 67.3288 31.4C66.5288 32.0933 65.3821 32.44 63.8888 32.44C63.0354 32.44 62.3154 32.3333 61.7288 32.12C61.1421 31.9067 60.6088 31.6933 60.1288 31.48C59.7021 31.2133 59.2754 30.9733 58.8488 30.76C58.4754 30.5467 58.0488 30.44 57.5687 30.44C56.1288 30.44 54.6888 31.3733 53.2488 33.24C51.8088 35.0533 50.6887 37.3733 49.8887 40.2C49.4621 41.7467 49.1154 43.5067 48.8488 45.48C48.6354 47.4 48.5288 49.4267 48.5288 51.56V54.28ZM95.6137 43.32C92.5738 44.4933 89.9871 45.64 87.8537 46.76C85.7737 47.88 84.0937 49 82.8137 50.12C81.5337 51.24 80.6004 52.36 80.0137 53.48C79.4804 54.6 79.2137 55.7467 79.2137 56.92C79.2137 58.68 79.8004 60.12 80.9737 61.24C82.1471 62.36 83.6937 62.92 85.6137 62.92C87.0004 62.92 88.2804 62.5733 89.4537 61.88C90.6804 61.1867 91.7471 60.2533 92.6537 59.08C93.5604 57.8533 94.2804 56.44 94.8137 54.84C95.3471 53.1867 95.6137 51.4533 95.6137 49.64V43.32ZM95.6137 39.88V36.6C95.6137 30.0933 92.8404 26.84 87.2937 26.84C86.3871 26.84 85.6137 26.92 84.9737 27.08C84.3337 27.24 83.8004 27.5067 83.3737 27.88C82.9471 28.2533 82.5471 28.7867 82.1737 29.48C81.8537 30.1733 81.5337 31.0267 81.2137 32.04C80.6271 33.5867 80.0404 34.6267 79.4537 35.16C78.9204 35.64 78.1204 35.88 77.0537 35.88C74.3871 35.88 73.0537 34.5467 73.0537 31.88C73.0537 29.32 74.4137 27.3467 77.1337 25.96C79.8537 24.52 83.7204 23.8 88.7337 23.8C94.0671 23.8 97.8537 24.76 100.094 26.68C102.334 28.5467 103.454 31.7467 103.454 36.28V54.2C103.454 60.28 104.654 63.32 107.054 63.32C107.8 63.32 108.52 63.24 109.214 63.08C109.907 62.8667 110.494 62.36 110.974 61.56L112.094 63.48C111.454 64.7067 110.28 65.7467 108.574 66.6C106.867 67.4 105.08 67.8 103.214 67.8C100.867 67.8 99.1071 67.0533 97.9338 65.56C96.8138 64.0667 96.2538 61.96 96.2538 59.24H95.8538C94.4671 61.8533 92.5471 63.9333 90.0937 65.48C87.6404 66.9733 84.9204 67.72 81.9337 67.72C78.5737 67.72 75.9337 66.8667 74.0137 65.16C72.0937 63.4533 71.1337 61.16 71.1337 58.28C71.1337 57 71.3471 55.7733 71.7737 54.6C72.2537 53.4267 73.0004 52.3067 74.0137 51.24C75.0271 50.1733 76.3604 49.1333 78.0137 48.12C79.6671 47.0533 81.6937 45.9867 84.0937 44.92L95.6137 39.88ZM128.071 54.44C128.071 56.6267 128.124 58.36 128.231 59.64C128.337 60.8667 128.604 61.8267 129.031 62.52C129.511 63.16 130.177 63.5867 131.031 63.8C131.937 64.0133 133.164 64.1733 134.711 64.28V67H113.751V64.28C115.244 64.1733 116.417 64.0133 117.271 63.8C118.177 63.5867 118.871 63.16 119.351 62.52C119.831 61.88 120.124 60.9733 120.231 59.8C120.391 58.6267 120.471 57.0267 120.471 55V44.36C120.471 38.0133 120.311 34.1467 119.991 32.76C119.831 32.0667 119.617 31.5067 119.351 31.08C119.137 30.6 118.791 30.2533 118.311 30.04C117.831 29.7733 117.217 29.6133 116.471 29.56C115.724 29.4533 114.764 29.4 113.591 29.4V26.84L126.391 23.8L127.351 31.72H127.671C129.697 29.2133 132.071 27.2667 134.791 25.88C137.511 24.4933 140.471 23.8 143.671 23.8C146.124 23.8 148.364 24.2 150.391 25C152.417 25.8 153.964 26.8933 155.031 28.28C155.937 29.5067 156.577 31.1067 156.951 33.08C157.324 35 157.511 37.6667 157.511 41.08V54.44C157.511 56.6267 157.564 58.36 157.671 59.64C157.831 60.8667 158.124 61.8267 158.551 62.52C158.977 63.16 159.617 63.5867 160.471 63.8C161.377 64.0133 162.551 64.1733 163.991 64.28V67H143.271V64.28C144.764 64.2267 145.937 64.0933 146.791 63.88C147.697 63.6133 148.364 63.16 148.791 62.52C149.271 61.88 149.564 60.9733 149.671 59.8C149.831 58.5733 149.911 56.9733 149.911 55V44.44C149.911 41.4 149.751 38.84 149.431 36.76C149.111 34.68 148.577 33 147.831 31.72C147.137 30.44 146.204 29.5333 145.031 29C143.857 28.4133 142.444 28.12 140.791 28.12C138.391 28.12 136.177 28.76 134.151 30.04C132.177 31.2667 130.631 32.9733 129.511 35.16C129.244 35.6933 129.004 36.2 128.791 36.68C128.631 37.16 128.497 37.72 128.391 38.36C128.284 39 128.204 39.7467 128.151 40.6C128.097 41.4 128.071 42.44 128.071 43.72V54.44ZM192.587 64.2C194.347 64.2 195.547 64.12 196.187 63.96C196.88 63.8 197.227 63.5867 197.227 63.32C197.174 62.8933 196.747 62.12 195.947 61C195.147 59.88 194.107 58.5467 192.827 57L184.347 46.76L181.387 49.56V54.28C181.387 56.36 181.467 58.04 181.627 59.32C181.84 60.5467 182.187 61.5333 182.667 62.28C183.2 62.9733 183.947 63.4533 184.907 63.72C185.92 63.9867 187.227 64.1467 188.827 64.2V67H166.107V64.2C167.707 64.1467 168.987 63.9867 169.947 63.72C170.96 63.4533 171.734 62.9733 172.267 62.28C172.854 61.5867 173.254 60.6533 173.467 59.48C173.68 58.3067 173.787 56.76 173.787 54.84V21.32C173.787 17.2667 173.734 14.2 173.627 12.12C173.574 10.04 173.307 8.62666 172.827 7.88C172.347 7.13333 171.547 6.70666 170.427 6.6C169.307 6.44 167.814 6.36 165.947 6.36V3.64L181.387 0.599997V44.52L188.827 37.24C191.227 34.84 193.014 33.08 194.187 31.96C195.36 30.7867 195.947 29.9067 195.947 29.32C195.947 28.7333 195.387 28.28 194.267 27.96C193.147 27.5867 191.547 27.4 189.467 27.4V24.6H210.267V27.4C209.254 27.4 208.374 27.4533 207.627 27.56C206.88 27.6667 206.16 27.88 205.467 28.2C204.827 28.52 204.134 28.9733 203.387 29.56C202.64 30.0933 201.787 30.7867 200.827 31.64L189.307 41.88L205.147 59.8C205.894 60.7067 206.56 61.4533 207.147 62.04C207.787 62.5733 208.4 63 208.987 63.32C209.627 63.64 210.294 63.88 210.987 64.04C211.734 64.1467 212.614 64.2 213.627 64.2V67H192.587V64.2ZM229.564 54.52C229.564 56.5467 229.644 58.1733 229.804 59.4C229.964 60.6267 230.284 61.5867 230.764 62.28C231.297 62.9733 232.017 63.4533 232.924 63.72C233.884 63.9867 235.137 64.1467 236.684 64.2V67H214.604V64.2C216.204 64.1467 217.484 63.9867 218.444 63.72C219.404 63.4 220.15 62.92 220.684 62.28C221.27 61.64 221.644 60.76 221.804 59.64C222.017 58.4667 222.124 56.9467 222.124 55.08V20.6C222.124 17.72 222.07 15.32 221.964 13.4C221.91 11.4267 221.804 10.0933 221.644 9.4C221.377 8.17333 220.737 7.34666 219.724 6.92C218.764 6.49333 217.004 6.27999 214.444 6.27999V3.56L229.564 0.599997V54.52ZM259.671 79.56C257.217 85.0533 253.404 87.8 248.231 87.8C244.871 87.8 243.191 86.5467 243.191 84.04C243.191 82.7067 243.644 81.72 244.551 81.08C245.511 80.4933 247.244 79.9867 249.751 79.56C250.871 79.4 251.831 79.16 252.631 78.84C253.431 78.5733 254.151 78.2 254.791 77.72C255.431 77.2933 255.991 76.7333 256.471 76.04C257.004 75.3467 257.511 74.4933 257.991 73.48L260.791 67.88L245.431 34.52C244.737 33.0267 244.124 31.8533 243.591 31C243.111 30.0933 242.577 29.4 241.991 28.92C241.457 28.3867 240.844 28.04 240.151 27.88C239.457 27.6667 238.577 27.5067 237.511 27.4V24.6H258.711V27.4C255.137 27.4 253.351 28.28 253.351 30.04C253.351 30.7333 253.564 31.8267 253.991 33.32C254.417 34.8133 254.951 36.3333 255.591 37.88L264.391 59.16H264.791L272.071 41.16C272.764 39.4 273.324 37.96 273.751 36.84C274.231 35.72 274.577 34.8133 274.791 34.12C275.057 33.3733 275.217 32.76 275.271 32.28C275.377 31.8 275.431 31.3467 275.431 30.92C275.431 29.5333 275.031 28.6 274.231 28.12C273.484 27.64 272.017 27.4 269.831 27.4V24.6H287.431V27.4C286.417 27.4 285.564 27.5333 284.871 27.8C284.177 28.0667 283.457 28.68 282.711 29.64C282.017 30.5467 281.217 31.88 280.311 33.64C279.457 35.4 278.391 37.7733 277.111 40.76L259.671 79.56ZM287.835 62.6C287.835 61.1067 288.342 59.8533 289.355 58.84C290.368 57.8267 291.595 57.32 293.035 57.32C294.528 57.32 295.782 57.8267 296.795 58.84C297.808 59.8533 298.315 61.1067 298.315 62.6C298.315 64.04 297.808 65.2667 296.795 66.28C295.782 67.2933 294.528 67.8 293.035 67.8C291.595 67.8 290.368 67.2933 289.355 66.28C288.342 65.2667 287.835 64.04 287.835 62.6Z" fill="#0B0C0C"/>
</svg>
