<?xml version="1.0" encoding="UTF-8"?>
<svg width="90px" height="124px" viewBox="0 0 90 124" version="1.1" xmlns="http://www.w3.org/2000/svg" xmlns:xlink="http://www.w3.org/1999/xlink">
    <!-- Generator: Sketch 61.2 (89653) - https://sketch.com -->
    <title>ft</title>
    <desc>Created with Sketch.</desc>
    <g id="Page-1" stroke="none" stroke-width="1" fill="none" fill-rule="evenodd">
        <g id="ft" fill-rule="nonzero">
            <polygon id="FT-Pink" fill="#B5B5B5" transform="translate(44.978000, 45.118500) scale(-1, 1) rotate(-90.000000) translate(-44.978000, -45.118500) " points="0.2455 0.3835 0.2455 89.8535 89.7105 89.8535 89.7105 0.3835 0.2455 0.3835"></polygon>
            <path d="M23.1265,19.505 C23.1265,15.28 24.2535,14.81 29.0675,14.63 L29.0675,13.085 L9.933,13.085 L9.933,14.63 C13.9135,14.81 15.0425,15.28 15.0425,19.505 L15.0425,47.075 C15.0425,51.3 13.9135,51.775 10.052,51.95 L10.052,53.495 L43.804,53.495 L44.04425,44.585 L42.37975,44.585 C40.95425,49.1 39.40725,50.525 31.50375,50.525 L25.37975,50.525 C23.54225,50.525 23.12625,50.11 23.12625,48.445 L23.12625,35.665 L26.14175,35.665 C32.44225,35.665 33.80975,36.8 34.58125,41.02 L36.12625,41.02 L36.12625,26.755 L34.58125,26.755 C33.75125,31.51 31.37225,32.695 26.14175,32.695 L23.12625,32.695 L23.12625,19.505 L23.1265,19.505 Z M82.0265,53.495 L46.6065,53.495 L45.78425,44.58 L47.816,44.58 C49.1125,48.945 51.019,50.525 55.2825,50.525 L60.275,50.525 L60.275,19.505 C60.275,15.28 59.146,14.81 54.5715,14.63 L54.5715,13.085 L74.064,13.085 L74.064,14.63 C69.4875,14.81 68.359,15.28 68.359,19.505 L68.359,50.525 L73.349,50.525 C77.6145,50.525 79.523,48.945 80.8175,44.58 L82.847,44.58 L82.0265,53.495 Z" id="FT" fill="#000000" transform="translate(46.390000, 33.290000) scale(-1, 1) rotate(-180.000000) translate(-46.390000, -33.290000) "></path>
            <path d="M3.4625,114.49 C3.4625,113.41 3.7535,113.29 4.984,113.24 L4.984,112.855 L0.0855,112.855 L0.0855,113.24 C1.103,113.29 1.394,113.41 1.394,114.49 L1.394,121.55 C1.394,122.635 1.103,122.755 0.1125,122.8 L0.1125,123.195 L8.761,123.195 L8.8195,120.915 L8.394,120.915 C8.0285,122.07 7.634,122.435 5.609,122.435 L4.0405,122.435 C3.5695,122.435 3.4625,122.33 3.4625,121.9 L3.4625,118.63 L5.23,118.63 C6.843,118.63 7.1925,118.92 7.39,120 L7.7865,120 L7.7865,116.345 L7.39,116.345 C7.177,117.565 6.5675,117.87 5.23,117.87 L3.4625,117.87 L3.4625,114.49 L3.4625,114.49 Z M13.6615,114.49 C13.6615,113.41 13.9485,113.29 15.183,113.24 L15.183,112.855 L10.0675,112.855 L10.0675,113.24 C11.304,113.29 11.589,113.41 11.589,114.49 L11.589,121.55 C11.589,122.635 11.304,122.755 10.0675,122.8 L10.0675,123.195 L15.183,123.195 L15.183,122.8 C13.9485,122.755 13.6615,122.635 13.6615,121.55 L13.6615,114.49 Z M25.853,121.26 C25.853,122.265 25.5775,122.675 24.4505,122.8 L24.4505,123.195 L28.103,123.195 L28.103,122.8 C26.978,122.675 26.7045,122.265 26.7045,121.26 L26.7045,112.6 L26.187,112.6 L19.1265,120.76 L19.1265,114.78 C19.1265,113.775 19.398,113.365 20.525,113.24 L20.525,112.855 L16.8705,112.855 L16.8705,113.24 C17.9975,113.365 18.271,113.775 18.271,114.78 L18.271,121.745 C17.9215,122.36 17.509,122.65 16.8705,122.8 L16.8705,123.195 L19.687,123.195 L25.853,116.07 L25.853,121.26 L25.853,121.26 Z M31.3765,116.56 L32.929,120.655 L34.468,116.56 L31.3765,116.56 Z M38.7885,112.855 L38.7885,113.24 C38.013,113.225 37.816,113.56 37.41975,114.535 L33.78075,123.44 L33.28075,123.44 L29.48975,114.215 C29.23025,113.575 28.88025,113.38 28.22625,113.24 L28.22625,112.855 L31.51325,112.855 L31.51325,113.24 C30.79825,113.24 30.44875,113.395 30.44875,113.895 C30.44875,114.32 30.92175,115.465 31.04075,115.8 L34.78675,115.8 C34.90775,115.465 35.40975,114.32 35.40975,113.895 C35.40975,113.395 35.03075,113.24 34.31425,113.24 L34.31425,112.855 L38.7885,112.855 L38.7885,112.855 Z M48.8195,121.26 C48.8195,122.265 48.5465,122.675 47.42125,122.8 L47.42125,123.195 L51.0735,123.195 L51.0735,122.8 C49.9465,122.675 49.6715,122.265 49.6715,121.26 L49.6715,112.6 L49.1555,112.6 L42.0925,120.76 L42.09275,114.78 C42.09275,113.775 42.366265,113.365 43.49325,113.24 L43.49325,112.855 L39.83875,112.855 L39.83875,113.24 C40.96575,113.365 41.24125,113.775 41.24125,114.78 L41.24125,121.745 C40.88975,122.36 40.47775,122.65 39.83875,122.8 L39.83875,123.195 L42.65525,123.195 L48.81925,116.07 L48.81975,121.26 L48.8195,121.26 Z M61.888,115.285 C60.806,113.44 59.39,112.6 57.2435,112.6 C53.88,112.6 51.886,114.81 51.886,118.115 C51.886,120.47 53.7435,123.44 57.351,123.44 C58.431,123.44 59.966,122.83 60.1965,122.83 C60.4995,122.83 60.591,122.995 60.8375,123.44 L61.353,123.44 L61.5675,119.985 L61.1105,119.985 C60.4995,121.585 59.4215,122.74 57.609,122.74 C55.173,122.74 54.109,120.105 54.109,118.115 C54.109,115.325 55.31,113.455 57.884,113.455 C59.892,113.455 61.0035,114.945 61.476,115.6 L61.888,115.285 L61.888,115.285 Z M66.9,114.49 C66.9,113.41 67.191,113.29 68.423,113.24 L68.423,112.855 L63.308,112.855 L63.308,113.24 C64.5425,113.29 64.8315,113.41 64.8315,114.49 L64.8315,121.55 C64.8315,122.635 64.5425,122.755 63.308,122.8 L63.308,123.195 L68.423,123.195 L68.423,122.8 C67.191,122.755 66.9,122.635 66.9,121.55 L66.9,114.49 Z M72.6615,116.56 L74.214,120.655 L75.7515,116.56 L72.6615,116.56 Z M80.0755,112.855 L80.0755,113.24 C79.298,113.225 79.101,113.56 78.7065,114.535 L75.0675,123.44 L74.566,123.44 L70.775,114.215 C70.515,113.575 70.1655,113.38 69.511,113.24 L69.511,112.855 L72.798,112.855 L72.798,113.24 C72.0835,113.24 71.734,113.395 71.734,113.895 C71.734,114.32 72.2065,115.465 72.3275,115.8 L76.0715,115.8 C76.1925,115.465 76.6945,114.32 76.6945,113.895 C76.6945,113.395 76.314,113.24 75.599,113.24 L75.599,112.855 L80.0755,112.855 L80.0755,112.855 Z M80.98,112.855 L80.98,113.24 C81.97,113.285 82.259,113.41 82.259,114.49 L82.259,121.55 C82.259,122.635 81.97,122.755 80.98,122.8 L80.98,123.195 L85.759,123.195 L85.759,122.8 C84.6185,122.755 84.3275,122.635 84.3275,121.55 L84.3275,114.29 C84.3275,113.665 84.511,113.455 85.6675,113.455 C87.525,113.455 88.6205,113.79 89.5035,115.615 L89.9,115.615 L89.2005,112.855 L80.98,112.855 Z M2.355,96.545 C3.5305,96.595 3.8175,96.715 3.8175,97.795 L3.8175,105.74 L2.5405,105.74 C1.3375,105.74 0.8645,105.255 0.5305,103.855 L0.0735,103.855 L0.3175,106.5 L9.388,106.5 L9.632,103.855 L9.173,103.855 C8.841,105.255 8.3685,105.74 7.1675,105.74 L5.888,105.74 L5.888,97.795 C5.888,96.715 6.177,96.595 7.347,96.545 L7.347,96.16 L2.355,96.16 L2.355,96.545 L2.355,96.545 Z M14.2885,97.795 C14.2885,96.715 14.5795,96.595 15.812,96.55 L15.812,96.16 L10.6965,96.16 L10.6965,96.55 C11.933,96.595 12.22,96.715 12.22,97.795 L12.22,104.86 C12.22,105.94 11.933,106.06 10.6965,106.105 L10.6965,106.505 L15.812,106.505 L15.812,106.105 C14.5795,106.06 14.2885,105.94 14.2885,104.86 L14.2885,97.795 L14.2885,97.795 Z M26.677,106.5 L30.2395,106.5 L30.2395,106.105 C29.2495,106.06 28.9625,105.94 28.9625,104.86 L28.9625,97.795 C28.9625,96.715 29.2495,96.595 30.2395,96.545 L30.2395,96.16 L25.5815,96.16 L25.5815,96.545 C26.601,96.595 26.892,96.715 26.892,97.795 L26.892,105.07 L26.8605,105.07 L23.4055,96.03 L22.933,96.03 L19.556,105.07 L19.525,105.07 L19.525,98.085 C19.525,97.08 19.798,96.67 20.925,96.545 L20.925,96.16 L17.273,96.16 L17.273,96.545 C18.398,96.67 18.6715,97.08 18.6715,98.085 L18.6715,105.115 C18.6715,105.83 18.3685,106.105 17.273,106.105 L17.273,106.5 L21.0325,106.5 L23.7865,99.32 L26.677,106.5 L26.677,106.5 Z M31.7085,96.16 L31.7085,96.545 C32.6965,96.595 32.9855,96.715 32.9855,97.795 L32.9855,104.86 C32.9855,105.94 32.6965,106.06 31.7085,106.105 L31.7085,106.5 L40.3525,106.5 L40.41325,104.22 L39.98925,104.22 C39.62225,105.375 39.22575,105.74 37.2025,105.74 L35.636,105.74 C35.1615,105.74 35.058,105.635 35.058,105.21 L35.058,101.935 L36.8215,101.935 C38.43475,101.935 38.78425,102.225 38.98375,103.305 L39.37975,103.305 L39.37975,99.655 L38.98375,99.655 C38.76875,100.87 38.16125,101.175 36.8215,101.175 L35.058,101.175 L35.058,97.595 C35.058,96.975 35.2395,96.76 37.066,96.76 C38.92125,96.76 40.01875,97.095 40.90125,98.925 L41.29625,98.925 L40.59675,96.16 L31.70875,96.16 L31.7085,96.16 Z M42.642,99.41 L43.0405,99.41 C43.479985,98.04 44.7905,96.61 46.314,96.61 C47.6205,96.61 48.09325,97.52 48.09325,98.33 C48.09325,100.705 42.73575,101.145 42.73575,104.095 C42.735515,105.525 44.1205,106.745 45.7025,106.745 C47.255,106.745 47.80225,106.2 48.48975,106.2 C48.77875,106.2 48.96075,106.425 49.03675,106.745 L49.43325,106.745 L49.43325,103.46 L49.03675,103.46 C48.61075,104.95 47.5465,106.045 46.144,106.045 C44.9895,106.045 44.56,105.3 44.56,104.595 C44.56,102.485 49.92,102.42 49.92,98.785 C49.9195,97.16 48.5815,95.91 46.72175,95.91 C44.89575,95.91 44.42475,96.545 43.70825,96.545 C43.43675,96.545 43.25125,96.365 43.19225,96.03 L42.64175,96.03 L42.64175,99.41 L42.642,99.41 Z" id="FinancialTimes" fill="#000000" transform="translate(44.986750, 109.675000) scale(-1, 1) rotate(-180.000000) translate(-44.986750, -109.675000) "></path>
        </g>
    </g>
</svg>