<svg xmlns="http://www.w3.org/2000/svg" width="180" height="29"><path fill="#0b0c0c" d="M6.36 6.53c.38-1.06 1.68-1.59 2.76-1.14 1.07.38 1.52 1.68 1.14 2.73-.39 1.07-1.68 1.59-2.75 1.14-1-.45-1.54-1.66-1.15-2.73zm-2.31 9.71c.47-1.06-.07-2.35-1.14-2.73-1.08-.45-2.38.08-2.76 1.14-.46 1.07.16 2.28 1.15 2.73 1.07.45 2.37-.07 2.75-1.14zm-1.29-4.17c1.07.45 2.38-.07 2.76-1.14.45-1.06-.09-2.35-1.15-2.73-1.07-.46-2.38.08-2.76 1.13-.39 1.07.07 2.29 1.15 2.74zm10.19-1.14c1.07.46 2.38-.07 2.76-1.13.37-1.07-.08-2.35-1.15-2.73-1.08-.45-2.38.07-2.76 1.14-.46 1.05.07 2.27 1.15 2.72zm19.6-1.67c1-.45 1.52-1.66 1.15-2.73-.38-1.06-1.69-1.59-2.76-1.14-1.08.38-1.54 1.68-1.15 2.73.39 1.07 1.68 1.59 2.76 1.14zM19.07 5.77l-1.52 4.64c-.08.23-.16.48-.16.71 0 1.21.92 2.45 2.15 2.45h.76c1.22 0 2.14-1.17 2.14-2.45 0-.31-.07-.51-.16-.74l-1.52-4.63c.23-.07.09-.14.18-.29l2.47 1.37V2.89l-2.47.83c-.08-.07-.05-.23-.21-.3L21.91 0H18l1.07 3.42c-.07.07-.17.14-.24.3l-2.63-.83v3.95l2.63-1.37c.07.07.09.23.24.3zm18.31 6.3c1-.45 1.54-1.66 1.15-2.73-.38-1.06-1.69-1.51-2.76-1.13-1.07.38-1.54 1.67-1.15 2.72.38 1.07 1.69 1.59 2.76 1.14zm-10.26-1.14c1.07-.45 1.61-1.66 1.14-2.72-.38-1.07-1.68-1.52-2.75-1.14-1.08.38-1.54 1.66-1.15 2.73.38 1.06 1.68 1.59 2.76 1.13zm8.42 10.02c-.54-.45-.92-1.3-1.31-2.58L32.85 23c.85-.61 1.54-.9 2.3-.9-1.31 2.81-2.99 3.57-4.14 3.41-1.3-.23-1.91-1.37-1.76-2.43.31-1.37 1.76-1.75 2.46-.15 1.3-2.58-.85-3.41-2.38-2.65 2.22-2.21 2.45-4.1.68-6.39-2.45 1.9-2.52 3.72-1.38 6.23-1.45-1.59-3.67-.76-2.83 1.89 1-1.59 2.45-.61 2.22.92-.16 1.28-1.91 2.43-4.13 2.2-3.14-.3-3.3-2.43-3.37-4.1.77-.14 2.14.61 3.29 2.2l.46-4.92c-1.22 1.28-2.45 1.54-3.74 1.54.46-1.3 2.45-3.55 2.45-3.55h-6.13s1.99 2.26 2.46 3.55c-1.31-.08-2.46-.28-3.76-1.56l.46 4.94c1.15-1.66 2.53-2.34 3.3-2.19-.08 1.75-.31 3.95-3.37 4.11-2.22.23-3.91-.83-4.14-2.2-.23-1.52 1.15-2.51 2.22-.91.84-2.58-1.38-3.48-2.83-1.89 1.07-2.58 1.07-4.4-1.38-6.23-1.76 2.35-1.54 4.17.7 6.39-1.38-.84-3.6.07-2.38 2.65.68-1.66 2.14-1.21 2.45.15.23.99-.46 2.2-1.76 2.43-1.07.23-2.76-.53-4.14-3.41.77 0 1.38.38 2.3.9L5.6 18.4c-.38 1.28-.84 2.2-1.31 2.58-.3-.92-.3-1.59 0-3.03l-2.9.99c1.54 2.12 2.99 5.01 4.21 10.1 4.52-.54 9.35-.92 14.4-.92 5.14 0 9.96.38 14.24.92 1.22-5.09 2.69-8.05 4.21-10.1l-2.9-.99c.29 1.41.38 2.08-.01 3zm114.76-1.66c0 .83-.09 1.59-.32 2.27-.3.69-.58 1.14-.96 1.59-.46.45-.9.76-1.59.92-.61.23-1.22.3-1.98.3-.77 0-1.68-.07-2.29-.3s-1.15-.54-1.61-.92c-.47-.45-.72-.9-.88-1.59-.31-.68-.27-1.37-.27-2.27V4.52H135v15.51c0 1.3.4 2.51.94 3.65.53 1.06 1.23 2.05 2.15 2.73.84.75 1.96 1.36 3.19 1.74 1.14.46 2.54.69 4.01.69 1.45 0 2.76-.23 3.98-.69 1.15-.45 2.31-.99 3.15-1.74.84-.76 1.76-1.68 2.3-2.73.53-1.07.98-2.35.98-3.65V4.52h-5.4v14.77zm20.66-5.48l8.42-9.29h-6.05l-8.64 10.21V4.52h-4.5v23.52h4.5v-7.02l3.13-3.62 6.42 10.64H180l-9.04-14.23zm-133.81-.3c-1.08.38-1.54 1.68-1.15 2.73.38 1.07 1.68 1.59 2.76 1.14 1.07-.45 1.61-1.66 1.15-2.73-.38-1.06-1.69-1.51-2.76-1.14zm93.13 10.17c-.3-.31-.61-.53-.91-.69-.38-.14-.77-.23-1.15-.23-.38 0-.84.08-1.15.23-.38.15-.76.38-1 .69-.23.3-.53.61-.68.9-.16.38-.23.76-.23 1.14 0 .38.07.76.23 1.14s.38.76.68.9c.31.31.61.53 1 .69.38.15.85.23 1.15.23.46 0 .84-.07 1.15-.23.3-.15.77-.38.91-.69.16-.3.54-.61.7-.9.16-.38.23-.83.23-1.14 0-.45-.07-.83-.23-1.14-.16-.37-.38-.67-.7-.9zM64.8 19h6.3c0 .53-.17 1.05-.4 1.64-.16.62-.58 1.14-.88 1.68-.46.53-1.02.9-1.79 1.28s-1.62.54-2.69.54c-1.15 0-2.15-.23-2.92-.68-.84-.46-1.53-.99-2.07-1.75-.54-.76-.93-1.59-1.15-2.51-.23-.83-.3-1.82-.23-2.96 0-.99.16-2.05.38-2.96.3-.9.68-1.82 1.15-2.5.53-.76 1.14-1.3 2.06-1.75.84-.45 1.84-.69 2.9-.69.77 0 1.38.08 1.99.31.62.23 1.08.45 1.54.76.46.3.84.76 1.22 1.14.38.37.7.9.84 1.44l4.3-2.43c-.46-.84-.92-1.59-1.61-2.35-.7-.69-1.38-1.3-2.3-1.75-.84-.53-1.84-.83-2.83-1.06-1-.31-2.15-.38-3.29-.38-1.76 0-3.37.3-4.82.9-1.46.69-2.6 1.52-3.68 2.58-1.07 1.07-1.76 2.43-2.38 3.95-.53 1.52-.84 3.12-.84 4.86 0 1.74.23 3.33.77 4.85.54 1.52 1.15 2.81 2.15 3.95.91 1.06 2.14 2.05 3.52 2.58 1.38.69 2.92.92 4.75.92.77 0 1.45-.08 2.15-.23.68-.15 1.3-.38 1.84-.69.61-.3.93-.61 1.39-.99.46-.38.92-.83.92-1.28v2.61h4.5V15.38H64.8V19zm49.71 3.61h-.16l-4.68-18.09h-5.51l6.89 23.52h6.52l6.89-23.52h-5.35l-4.6 18.09zm-13.1-11.15c.54 1.52.84 3.12.84 4.86 0 1.74-.3 3.33-.84 4.85-.54 1.52-1.22 2.89-2.29 3.95-1.08 1.06-2.22 1.9-3.68 2.58-1.38.61-2.99.92-4.82.92-1.76 0-3.37-.23-4.82-.92-1.45-.53-2.68-1.52-3.67-2.58-1-1.14-1.76-2.43-2.3-3.95-.54-1.52-.84-3.12-.84-4.85 0-1.75.3-3.34.84-4.86.54-1.52 1.22-2.88 2.3-3.95 1.07-1.06 2.22-1.89 3.67-2.58 1.38-.52 2.99-.9 4.82-.9 1.76 0 3.37.23 4.82.9 1.46.61 2.69 1.52 3.68 2.58.99 1.15 1.75 2.43 2.29 3.95zm-4.21 4.86c0-1.07-.23-2.2-.54-3.12-.31-.99-.69-1.75-1.31-2.51a6.08 6.08 0 0 0-2.07-1.66c-.77-.38-1.77-.61-2.77-.61s-1.94.23-2.78.61c-.84.45-1.65.99-2.1 1.66-.47.69-1 1.59-1.32 2.51-.3.92-.62 1.97-.62 3.12v.14c0 1.07.32 2.21.62 3.12.31.99.86 1.75 1.4 2.51.61.76 1.23 1.28 2.07 1.66.84.45 1.77.61 2.77.61s1.92-.23 2.77-.61c.84-.45 1.47-.9 2.08-1.66.46-.69.95-1.59 1.26-2.51.31-.9.53-1.97.53-3.12v-.14z"/></svg>