<svg xmlns="http://www.w3.org/2000/svg" width="159" height="74"><path fill="#0b0c0c" d="M10.2 36.94h1.97v6.39h7.78v-6.39h1.97V51.8h-1.97V45h-7.78v6.8H10.2V36.94zM24.63 51.8h1.86V39.44h.04l4.61 12.36h1.68l4.61-12.36h.04V51.8h1.86V36.94h-2.69l-4.68 12.48-4.66-12.48h-2.69V51.8zm35.68-10.38c-.46-3.16-3-4.83-6.09-4.83-4.55 0-6.99 3.51-6.99 7.82 0 4.33 2.23 7.74 6.83 7.74 3.73 0 6.02-2.25 6.39-5.95h-1.97c-.19 2.46-1.68 4.29-4.26 4.29-3.54 0-5.03-2.83-5.03-6.22 0-3.1 1.49-6.01 5.01-6.01 2.05 0 3.73 1.06 4.14 3.16h1.97zm6.46-.63c-3.39 0-5.2 2.48-5.2 5.64 0 3.14 1.8 5.62 5.2 5.62 3.39 0 5.19-2.48 5.19-5.62 0-3.16-1.8-5.64-5.19-5.64zm0 9.69c-1.84 0-3.33-1.46-3.33-4.06 0-2.62 1.49-4.08 3.33-4.08s3.33 1.46 3.33 4.08c0 2.61-1.49 4.06-3.33 4.06zm15.6-9.44h-1.76v6.07c0 1.93-1.04 3.37-3.17 3.37-1.34 0-2.17-.85-2.17-2.16v-7.28h-1.76v7.07c0 2.31.87 3.93 3.68 3.93 1.53 0 2.73-.62 3.48-1.95h.04v1.71h1.66V41.04zm2.1 10.76h1.76v-4.78c0-2.72 1.03-4.35 3.87-4.35V40.8c-1.9-.06-3.08.79-3.93 2.52h-.04v-2.27h-1.66V51.8zm9.65-13.98h-1.76v3.22h-1.82v1.56h1.82v6.84c0 1.98.72 2.35 2.55 2.35h1.34v-1.56h-.81c-1.1 0-1.32-.14-1.32-.96V42.6h2.13v-1.56h-2.13v-3.22zm2.9 10.58c.1 2.66 2.13 3.64 4.53 3.64 2.17 0 4.55-.83 4.55-3.39 0-2.08-1.74-2.66-3.5-3.06-1.63-.4-3.5-.6-3.5-1.87 0-1.08 1.22-1.37 2.28-1.37 1.16 0 2.36.44 2.48 1.81h1.76c-.14-2.62-2.03-3.37-4.39-3.37-1.86 0-4 .89-4 3.06 0 2.06 1.76 2.64 3.5 3.04 1.76.4 3.5.62 3.5 2 0 1.35-1.49 1.6-2.59 1.6-1.45 0-2.81-.5-2.88-2.08h-1.74zm26.1 3.39h2.3l-2.88-3.35c.62-1.31.85-1.91.99-3.66h-1.68c-.04.79-.21 1.58-.47 2.31l-2.67-3.26c1.43-.81 2.78-2.08 2.78-3.85 0-2.02-1.74-3.04-3.58-3.04-2.13 0-3.33 1.44-3.33 3.06 0 1.52.81 2.31 1.64 3.5-1.88 1-3.46 2.16-3.46 4.49 0 1.21.62 4.06 4.61 4.06 1.61 0 3.29-.71 4.18-2.1l1.57 1.84zm-2.55-3.07c-.72 1.08-1.8 1.77-3.14 1.77-1.43 0-2.81-1.02-2.81-2.52 0-1.77 1.18-2.56 2.57-3.35l3.38 4.1zm-.85-8.64c0 1.25-1.12 2.04-1.97 2.58-.64-.81-1.43-1.68-1.43-2.58 0-1.08.87-1.58 1.7-1.58 1.06 0 1.7.73 1.7 1.58zM13.55 73.65h1.97V60.46h4.93V58.8H8.63v1.66h4.92v13.19zm6.01 0h1.76v-4.78c0-2.73 1.04-4.35 3.87-4.35v-1.87c-1.9-.06-3.08.79-3.93 2.52h-.04V62.9h-1.65v10.75zm6.65-12.69h1.76V58.8h-1.76v2.16zm0 12.69h1.76V62.89h-1.76v10.76zm3.94 0h1.76v-1.44h.04c.79 1.27 2.36 1.69 3.46 1.69 3.27 0 4.88-2.56 4.88-5.6 0-3.04-1.64-5.66-4.93-5.66-1.47 0-2.83.52-3.41 1.71h-.05V58.8h-1.76v14.85zm4.96-9.45c2.28 0 3.31 1.95 3.31 3.97 0 2.1-.81 4.16-3.21 4.16-2.42 0-3.37-1.96-3.37-4.08 0-2.01.91-4.05 3.27-4.05zm15.61-1.31h-1.76v6.07c0 1.93-1.04 3.37-3.17 3.37-1.35 0-2.17-.85-2.17-2.16v-7.28h-1.76v7.07c0 2.31.87 3.93 3.68 3.93 1.53 0 2.73-.63 3.48-1.96h.04v1.71h1.65V62.89zm2.14 10.76h1.76v-6.07c0-1.93 1.04-3.37 3.17-3.37 1.34 0 2.17.85 2.17 2.16v7.28h1.76v-7.07c0-2.31-.87-3.93-3.68-3.93-1.53 0-2.73.62-3.48 1.96h-.04V62.9h-1.66v10.75zm20.46-1.42c-.23.08-.39.1-.54.1-.56 0-.56-.37-.56-1.21V65.6c0-2.52-2.09-2.95-4.01-2.95-2.38 0-4.43.93-4.53 3.6h1.76c.08-1.58 1.18-2.04 2.67-2.04 1.12 0 2.38.25 2.38 1.79 0 1.33-1.66 1.21-3.6 1.58-1.82.35-3.62.87-3.62 3.31 0 2.14 1.59 3.02 3.54 3.02 1.49 0 2.79-.52 3.77-1.67 0 1.17.58 1.67 1.49 1.67.56 0 .95-.1 1.26-.29v-1.39zm-2.85-2.33c0 .98-.95 2.43-3.27 2.43-1.08 0-2.07-.42-2.07-1.58 0-1.31.99-1.73 2.15-1.94 1.18-.21 2.5-.23 3.19-.73v1.82zm4.15 3.75h1.76V58.8h-1.76v14.85zm3.3-3.39c.1 2.66 2.13 3.64 4.53 3.64 2.17 0 4.55-.83 4.55-3.39 0-2.08-1.74-2.66-3.5-3.06-1.63-.39-3.5-.6-3.5-1.87 0-1.08 1.22-1.37 2.27-1.37 1.16 0 2.36.44 2.48 1.81h1.76c-.14-2.62-2.03-3.37-4.39-3.37-1.86 0-3.99.89-3.99 3.06 0 2.06 1.76 2.64 3.5 3.04 1.76.4 3.5.62 3.5 2 0 1.35-1.49 1.6-2.59 1.6-1.45 0-2.81-.5-2.88-2.08h-1.74zm27.07-7.12c-.12-3.27-2.42-4.7-5.44-4.7-2.69 0-5.36 1.33-5.36 4.35 0 2.72 2.38 3.41 4.74 3.93 2.36.52 4.72.87 4.72 2.91 0 2.14-1.97 2.7-3.75 2.7-2.23 0-4.3-1.08-4.3-3.58h-1.86c0 3.62 2.79 5.24 6.11 5.24 2.69 0 5.77-1.27 5.77-4.43 0-2.91-2.36-3.74-4.72-4.29-2.38-.54-4.74-.81-4.74-2.64 0-1.93 1.65-2.54 3.31-2.54 2.03 0 3.44.91 3.66 3.04h1.86zm9.65 7.09c-.31 1.4-1.32 2.1-2.77 2.1-2.34 0-3.39-1.66-3.33-3.54h8.01c.1-2.6-1.06-6.16-4.84-6.16-2.92 0-5.03 2.37-5.03 5.59.1 3.29 1.72 5.66 5.13 5.66 2.4 0 4.1-1.29 4.57-3.66h-1.74zm-6.1-2.99c.12-1.64 1.22-3.04 3.06-3.04 1.74 0 3 1.35 3.08 3.04h-6.14zm9.43 6.41h1.76v-4.78c0-2.73 1.04-4.35 3.87-4.35v-1.87c-1.9-.06-3.08.79-3.93 2.52h-.04V62.9h-1.66v10.75zm15.88-10.76h-1.84l-2.92 8.96h-.04l-3-8.96h-1.97l3.97 10.75h1.88l3.92-10.75zm1.16-1.93h1.76V58.8h-1.76v2.16zm0 12.69h1.76V62.89h-1.76v10.76zm13.08-7.3c-.25-2.56-2.19-3.7-4.62-3.7-3.39 0-5.05 2.54-5.05 5.76 0 3.2 1.74 5.49 5.01 5.49 2.69 0 4.33-1.56 4.72-4.18h-1.8c-.23 1.62-1.24 2.62-2.94 2.62-2.24 0-3.12-1.96-3.12-3.93 0-2.18.79-4.2 3.33-4.2 1.45 0 2.38.79 2.65 2.14h1.82zm9 3.88c-.31 1.4-1.32 2.1-2.77 2.1-2.34 0-3.39-1.66-3.33-3.54H159c.1-2.6-1.05-6.16-4.84-6.16-2.92 0-5.03 2.37-5.03 5.59.1 3.29 1.72 5.66 5.13 5.66 2.4 0 4.1-1.29 4.57-3.66h-1.74zm-6.1-2.99c.12-1.64 1.22-3.04 3.06-3.04 1.74 0 3 1.35 3.08 3.04h-6.14zM24.03 4.85c-.17.33-.31.51-.29.77.02.25.28.43.41.68.11-.29.3-.51.28-.74-.03-.24-.35-.54-.4-.71zm4.33 0c-.06.17-.37.47-.39.7-.02.23.17.45.28.74.12-.25.39-.43.41-.68.02-.24-.13-.43-.3-.76zm-6.83-.18a.29.29 0 1 0-.29-.29c0 .15.13.29.29.29zm.2.42a.29.29 0 1 0-.58 0 .29.29 0 0 0 .58 0zm.14.71a.29.29 0 1 0-.58 0 .29.29 0 0 0 .58 0zm1.28-2.54a.29.29 0 1 0 0-.58.29.29 0 0 0 0 .58zm-.72.23c.16 0 .29-.13.29-.29 0-.16-.13-.3-.29-.3-.16 0-.29.13-.29.3-.01.16.12.29.29.29zm-.58.5a.29.29 0 1 0 0-.58.29.29 0 0 0 0 .58zm2.07-.66a.29.29 0 1 0 0-.58.29.29 0 0 0 0 .58zm.73.21c.16 0 .29-.13.29-.3a.29.29 0 0 0-.58 0c-.01.17.12.3.29.3zm.68.33c.16 0 .29-.13.29-.3a.29.29 0 0 0-.58 0c0 .16.13.3.29.3zm5.23.5a.29.29 0 0 0 .58 0c0-.16-.13-.3-.29-.3-.16.01-.29.14-.29.3zm.39.42a.29.29 0 0 0 0 .58c.16 0 .3-.13.3-.29a.306.306 0 0 0-.3-.29zm-.15.72a.29.29 0 0 0 0 .58c.16 0 .3-.13.3-.29 0-.16-.14-.29-.3-.29zm-1.57-2.25a.29.29 0 1 0-.29-.29c-.01.16.13.29.29.29zm.73.23c.16 0 .29-.13.29-.29 0-.16-.13-.3-.29-.3-.16 0-.29.13-.29.3-.01.16.13.29.29.29zm.57.5a.29.29 0 1 0 0-.58.29.29 0 0 0 0 .58zm-2.07-.66a.29.29 0 1 0 0-.58.29.29 0 0 0 0 .58zm-.72.21c.16 0 .29-.13.29-.3a.29.29 0 0 0-.58 0c-.01.17.13.3.29.3zm-.98.03a.29.29 0 0 0 .58 0c0-.16-.13-.3-.29-.3-.16.01-.29.14-.29.3zm-1.07 1.59h.33V3.9c-.12-.02-.23-.05-.33-.1v1.36zm1-1.36c-.1.05-.21.09-.33.1v1.26h.33V3.8zM26 2.41v-.75c-.37.08-.66.37-.72.75H26zm.38 0h.71a.93.93 0 0 0-.71-.75v.75zm-1.09.36a.923.923 0 0 0 1.8 0h-1.8zm1.41-1.23c-.21-.17-.37-.4-.4-.65.24.04.51.22.66.43V.3c-.16.21-.43.38-.66.43.03-.25.18-.47.38-.73h-.98c.21.26.36.48.38.73-.24-.04-.51-.22-.67-.43v1.01c.16-.21.43-.38.67-.43-.03.25-.19.49-.4.65h1.02zm.02 21.14c.2 0 .36-.16.36-.36 0-.2-.16-.36-.36-.36-.2 0-.36.16-.36.36 0 .19.16.36.36.36zm-1.73-.54c.22 0 .39-.18.39-.4a.4.4 0 0 0-.39-.4c-.22 0-.39.18-.39.4 0 .22.18.4.39.4zm-.59-1.76c.06.04.11.09.16.12a.64.64 0 0 0-.17-.35.625.625 0 0 0-.46-.23c-.36 0-.75.39-.86.52l-.03.03-.04-.01c-.09-.02-.19-.04-.28-.05.03.08.07.17.13.25l.03.05-.03.04c-.18.28-.28.56-.28.78 0 .14.16.43.42.56.17.08.34.07.5-.02-.09-.05-.21-.12-.29-.18l-.05-.03c-.07-.04-.16-.09-.18-.19-.01-.02-.01-.05-.01-.07 0-.09.04-.19.12-.34.02-.03.03-.05.05-.08.01-.02.02-.03.03-.05l.04-.07.07.04c.14.08.27.12.36.09.04-.01.08-.04.1-.08.05-.1.02-.26-.16-.41l-.07-.05.1-.12c.07-.08.14-.16.21-.22.16-.14.31-.14.49-.01l.1.08zm3.37 1.39c.56.14 1.25.27 1.71.21l-.06.06c-.16.15-.38.32-.62.47-.59.37-1.18.58-1.63.58-.52 0-1.19-.11-1.88-.3-.61-.17-1.19-.4-1.63-.64-.24.18-.51.21-.75.09-.3-.15-.51-.49-.51-.71 0-.04 0-.08.01-.12-.21-.18-.4-.38-.59-.59-.57-.65-1.01-1.4-1.32-2.24a8.22 8.22 0 0 1-.34-1.2c.52.19.75 0 .9-.17.05.02.06.16.05.23.58-.01.91-.4.96-.7.06.36.14.71.27 1.05.21.59.52 1.13.9 1.58.13.16.27.3.42.44a.748.748 0 0 1 .86.24c.16.18.24.42.21.63v.01c1.02.45 2.12.85 3.04 1.08zm-.25 3.76c.07-.14.12-.29.12-.39 0-.18-.14-.44-.43-.44-.5 0-.39.69-.63.69-.11 0-.18-.07-.18-.17 0-.2.35-.38.35-.66s-.26-.52-.54-.74c-.28.23-.53.46-.53.74 0 .28.35.47.35.66 0 .1-.08.17-.18.17-.24 0-.12-.69-.63-.69-.29 0-.43.25-.43.44 0 .11.04.25.12.39.07-.12.16-.19.25-.19.38 0 .23 1 .68 1 .2 0 .3-.13.3-.27s-.1-.18-.1-.3c0-.11.09-.15.19-.15s.19.04.19.15c0 .11-.1.16-.1.3 0 .14.1.27.3.27.45 0 .3-1 .68-1 .05 0 .15.07.22.19zm-1.32 1.4c.14 0 .25-.11.25-.25s-.11-.25-.25-.25-.25.11-.25.25c.01.14.12.25.25.25zm1-2.42c.39 0 .63.33.63.63 0 .29-.17.55-.31.71-.08-.18-.14-.31-.24-.31-.19 0-.1.96-.66.99.02.05.03.1.03.15 0 .24-.2.44-.44.44s-.44-.2-.44-.44c0-.06.01-.11.03-.15-.56-.03-.47-.99-.67-.99-.1 0-.16.14-.23.31-.14-.17-.31-.43-.31-.71a.633.633 0 0 1 .83-.6v-1.36c.56.15 1.13.23 1.61.24v1.11c.04-.01.1-.02.17-.02zm12.95 1.33c-.02-.06-.09-.09-.14-.07-1.29.38-2.89-.7-4.45-1.74-1.3-.87-2.54-1.7-3.59-1.7-.39 0-.74.08-1.04.25-.37.2-.64.53-.82.96-.18.43-.37.73-.52.97-.18.29-.31.49-.31.75 0 .21.09.4.27.58.15.15.36.3.68.47.07.03.13.07.2.1.26.13.42.21.44.36-.51.23-1.17.41-1.92.55a16 16 0 0 1-2.76.22c-.98 0-1.91-.08-2.76-.22-.75-.13-1.41-.32-1.93-.55.02-.22.18-.3.46-.44.07-.03.13-.06.2-.1.26-.14.5-.27.66-.42.18-.16.27-.34.27-.54 0-.26-.13-.46-.31-.75-.15-.24-.34-.53-.51-.97-.18-.43-.45-.76-.82-.96-.3-.16-.65-.25-1.03-.25-1.06 0-2.29.82-3.59 1.7-1.55 1.04-3.15 2.11-4.45 1.73a.108.108 0 0 0-.14.07c-.02.06.01.12.06.15.39.18.74.45 1.07.71.47.36.91.71 1.39.71.46 0 .95-.15 1.55-.46.52-.27 1.06-.64 1.58-1 1.02-.7 2.08-1.42 3.08-1.5-.1.11-.21.2-.3.29-.3.26-.55.5-.55.96 0 .37.13.63.3.99.05.1.11.22.17.36.11.25.16.45.23.72l.1.41c.06.24.18.69.92 1.06.85.44 2.32.66 4.36.66 2.04 0 3.51-.22 4.36-.66.73-.37.85-.82.92-1.06l.1-.41c.07-.28.11-.48.23-.72.08-.18.16-.33.23-.46.15-.29.27-.52.27-.85 0-.47-.27-.71-.58-.99-.1-.09-.2-.19-.31-.3 1 .08 2.06.8 3.08 1.51.52.36 1.06.73 1.58 1 .6.32 1.09.46 1.55.46.48 0 .92-.35 1.39-.71.33-.26.68-.53 1.07-.71.06-.03.09-.1.06-.16zM30.4 15.76c-.01-.64-.12-1.27-.33-1.85-.21-.59-.52-1.12-.91-1.58a4.22 4.22 0 0 0-1.34-1.06 3.81 3.81 0 0 0-1.46-.38v4.87h4.04zm-4.2-6.91c1.37 0 2.32.41 2.87.78.32-.19.46-.38.46-.6 0-.79-2.21-.86-3.33-.86s-3.33.07-3.33.86c0 .22.14.41.46.6.55-.37 1.5-.78 2.87-.78zm-.07 2.03c-.54.01-1.06.14-1.56.38-.5.25-.95.61-1.34 1.06-.39.46-.69.99-.9 1.58-.21.59-.32 1.21-.33 1.85h4.13v-4.87zm6.26 4.57c.01.17.01.23.01.4 0 .95-.16 1.87-.48 2.73-.31.84-.76 1.59-1.33 2.24-.27.31-.57.59-.89.84-.08.06-.43.17-1.85-.19-.18-.04-.28-.08-.47-.13.02-.18.04-.28.09-.41.06-.15.13-.29.2-.37.08-.03.08-.09.16-.13.5-.25.95-.61 1.34-1.06.39-.46.69-.99.91-1.58.2-.57.31-1.17.33-1.79h-4.03v4.51c.32.02.92.08.92.08-.15.18-.21.36-.25.66-.46-.14-.91-.32-1.39-.51.14-.17.31-.21.47-.23V16h-4.12c-.01-.18-.1-.48-.16-.56-.2-.25-.28-.4-.29-.78-.01-.2-.13-.47-.34-.73-.12-.15-.61-.69-.73-.81.31-.83.76-1.58 1.33-2.22.38-.43.8-.79 1.25-1.09-.25-.16-.49-.39-.49-.78 0-.22.09-.4.25-.54-.26-.83-.72-1.84-1.12-2.28l.83-.35c-.22.33-.23.72-.18.95.22-.15.41-.36.47-.64.04.25.18.66.31.91-.24-.11-.44-.17-.68-.06.14.19.5.48 1.04.35.3-.07.59-.23.58-.46-.01-.14-.11-.3-.29-.28-.18.02-.19.29-.14.42-.25-.15-.5-.84-.13-.95.29-.08.56.32.66.63.05-.37.21-.73.5-.71.38.03.26.73.13.92-.02-.25-.16-.38-.27-.37-.1.01-.24.08-.21.3.02.23.35.37.71.37.35 0 .97-.11 1.02-.79-.23.04-.58.22-.72.44.05-.41.05-.7 0-1.13.18.26.5.4.71.44-.06-.29-.31-.6-.6-.78h1.51c-.29.18-.54.49-.6.78.22-.04.54-.18.73-.44-.05.43-.05.72 0 1.13-.15-.23-.51-.4-.74-.44.06.68.67.79 1.02.79.37 0 .69-.14.71-.37.02-.23-.11-.3-.21-.3-.11-.01-.25.12-.27.37-.13-.18-.26-.89.12-.92.3-.02.45.34.5.71.1-.31.36-.71.65-.63.37.1.12.8-.11.94.06-.12.05-.4-.13-.42-.18-.02-.29.15-.29.28-.01.23.28.39.58.46.55.13.9-.16 1.04-.35-.24-.1-.44-.05-.68.06.13-.24.26-.65.31-.91.06.27.25.48.46.63.05-.23.03-.61-.18-.94l.83.35c-.39.44-.86 1.44-1.12 2.27.16.14.26.33.26.55 0 .39-.25.62-.49.78.46.3.88.66 1.25 1.09.31.35.55.65.78 1.06-.04.04-.07.09-.11.15-.05.08-.19.22-.24.28-.07.1-.14.2-.14.34 0 .11.04.24.13.38.1.17.74 1.44.89 1.76.11.26.34.48.48.59zm-3.77-2.58c-.23-.29-.5-.54-.8-.74-.25-.17-.51-.29-.78-.38.03.04.05.1.04.17a.339.339 0 0 1-.15-.06v1.18c.07-.01.12.02.14.07.01.04.01.09-.05.14.06 0 .12.02.18.08-.06.05-.12.08-.18.08.06.05.06.1.05.14-.01.04-.07.08-.14.07v1.4c.04-.04.1-.06.17-.06 0 .07-.03.13-.06.17h.86c-.01-.06.03-.12.06-.13.04-.02.09-.01.14.05 0-.06.02-.12.08-.18.06.06.08.12.08.18.05-.06.1-.06.14-.05.04.01.08.07.07.13h1.01a.26.26 0 0 1-.08-.19c.06 0 .11.02.15.04-.09-.58-.3-1.15-.6-1.64-.04.02-.08.02-.11 0-.04-.02-.06-.07-.04-.14-.05.03-.11.05-.19.04a.28.28 0 0 1 .09-.17c-.07 0-.11-.04-.12-.08-.01-.05.01-.09.04-.12zm1.14 2.09c.13 0 .18.11.16.17-.02.04-.06.07-.13.07.04.04.07.1.07.18-.08 0-.14-.03-.18-.06.01.07-.02.11-.06.13-.06.03-.18-.02-.18-.15.05.06.15.04.14-.04h-1.33c.02.08.01.18-.07.26a.273.273 0 0 1-.07-.26h-1.19c0 .08.1.1.15.03 0 .13-.12.18-.18.15-.04-.02-.07-.06-.06-.13-.04.04-.1.07-.18.07 0-.08.03-.14.07-.18-.07.01-.11-.02-.13-.06-.03-.06.03-.18.15-.18-.07.05-.05.15.04.15v-1.72c-.08.02-.18.02-.26-.07.09-.08.18-.09.26-.07v-1.58c-.08-.01-.1.09-.04.14-.13-.01-.17-.13-.14-.19.02-.03.05-.05.11-.05a.288.288 0 0 1-.06-.19c.08.01.14.05.18.1.01-.06.04-.09.07-.1.06-.03.17.04.16.17-.04-.07-.14-.06-.15.02.34.09.66.24.97.45.32.22.62.49.87.82.03.04.06.08.09.11.05-.07.13-.13.26-.11-.02.12-.09.18-.17.21 0 .01-.01.01-.01.01.42.6.69 1.32.77 2.05.12.01.14-.1.07-.15zm-.7-.43a.27.27 0 0 0 .11-.1c-.06.02-.1-.01-.11-.02.04-.02.09 0 .04-.07-.05-.07-.08-.08-.13-.02-.05.05-.37-.01-.37-.25.02.04.06.07.11.09.01.01.03.01.04.02.01 0 .03 0 .04.01.03.01.06.02.09.01h.02v-.01c.07-.01.12-.05.13-.13.01-.13-.11-.19-.25-.31-.05-.05-.09-.09-.13-.12-.05-.09-.02-.18-.14-.35-.01-.04-.02-.09-.04-.15-.06.11-.09.33.07.51.13.15.42.29.41.42 0 .03-.03.06-.07.06h-.04c-.01 0-.02 0-.03-.01-.02-.01-.04-.01-.06-.03-.03-.02-.06-.04-.1-.08-.12-.11-.22-.27-.3-.36-.13-.17-.07-.33-.05-.48.09-.13-.06-.4-.15-.46 0 0 .02-.06-.01-.14-.02.02-.06.01-.08.01-.02-.05-.03-.06-.07-.07-.06-.01-.06-.04-.06-.06-.03.03-.05.06-.08.06-.05 0-.07 0-.09.02-.03.03-.05.04-.1.04s-.05.03-.05.07c0 .03.01.06.04.08 0 0 .01.01.02.01l.04.05.03-.05c.02-.02.09-.03.11.02.01.03.02.04-.03.05-.05.01-.07.01-.12.01-.03 0-.03.04-.03.07 0 .03.04.05.1.03.06-.02.18-.03.18.03 0 .14-.16.14-.2.31a.45.45 0 0 1-.1-.09.489.489 0 0 0-.12-.15.58.58 0 0 0-.12-.1c-.06-.03-.06-.06-.06-.12 0-.05.02-.1.02-.15 0-.01-.01-.03-.01-.04-.01-.03-.05-.06-.08-.05.01.01.03.02.03.05-.01.01-.02.03-.02.03-.01.01-.02.03 0 .05v.03c0 .01 0 0-.01 0-.01-.04-.03-.09-.06-.09h-.02v-.01c0-.04-.04-.07-.09-.02.01 0 .03 0 .03.01s-.01.04-.01.04c0 .04.02.05.07.05.01 0 .01 0 .01.01s0 .01.01.02c0 .01 0 0-.01 0-.07-.03-.09 0-.1.03v.03c-.02.01-.03.05.01.08 0-.01 0-.04.01-.04h.01l.02.02s.02 0 .04-.01h.02c.01.01.01.01.02.01v.01c-.04.04-.03.08.02.09-.03.05-.1.03-.1-.04-.05.09.04.15.11.12 0 .03 0 .1.01.1 0-.01.01-.02.02-.02s.01 0 .01.01c0 .02.01.05.04.05 0-.01 0-.02.01-.03.01.02.03.04.04.06.04.07.11.24.28.31-.08.05-.14.13-.2.19-.05.05-.12.1-.16.07-.02-.01-.02-.03-.05-.05-.02-.02-.04-.02-.05-.02 0 0-.02 0-.03.01a.08.08 0 0 0-.09.03c.02 0 .04-.01.06.01v.03c0 .02.02.04.1.04 0 0 .02 0 .01.01s-.02.02-.05.01c-.04-.01-.06-.04-.09 0l-.02.02h-.01c-.03.01-.07.08-.03.11 0-.01 0-.04.03-.05l.02.02c.02.04.05.06.11-.03.01-.01.01 0 .01 0 0 .04-.04.1.01.11h.02v.01c.01.05.08.06.1.05-.02-.01-.05-.02-.06-.06h.03c.03-.03-.01-.07.01-.1 0-.01.01-.01.01 0 .01.02.04.06.08.03.02-.02.03-.04.03-.06.06-.03.11-.05.16-.03-.01-.03.03-.07.09-.09.06-.02.09 0 .11.02.01-.03.03-.07.06-.11-.01.25.33.25.41.4-.1-.04-.21-.07-.28-.05-.08.02-.23.09-.25.19-.01.08.07.22.15.27-.1.02-.13-.01-.22.01h-.01c-.08.01-.09-.13-.18-.09 0 0-.02.01-.02.02-.04 0-.08.04-.08.08.01-.01.03-.03.06-.03v.02c0 .01 0 .03.03.03.02 0 .02-.01.04-.01.01 0 .01 0 .01.01 0 .03-.11-.02-.09.08 0 0 .01.02.02.03-.01.03.02.06.07.04-.01-.01-.03-.02-.02-.04h.02c.01 0 .01 0 .01-.01.01 0 .01.01.01.01s-.01.01-.01.02l.01.03c0 .03.05.07.1.03-.02 0-.05-.01-.05-.03.01 0 .02-.01.02-.01.01-.01.01-.02.01-.03 0-.01 0-.01.01-.01h.03c.01 0 .01 0 .01.01.01.02.04.04.07.03.02-.01.03-.02.03-.03.01.01.03.01.04.03-.01-.04.02-.07.1-.01l.06-.04s.07.03.1 0c.05-.04.02-.04.02-.08-.03-.08-.05-.07-.07-.14-.02-.13.15-.2.25-.18.02.08.13.29.32.35.12.04.16-.09.2-.07.01 0 .01.02.02.03-.01.06 0 .11-.01.14-.01.03-.07.01-.12 0-.02 0-.04.02-.05.02-.04.01-.08.04-.08.08.01-.01.04-.03.07-.03v.02c.01.05.06.07.09.03 0-.01.02 0 .01.01-.03.02-.08.07-.04.09l.02.01c0 .03.02.06.05.07-.01-.02-.01-.03 0-.06h.02c.03 0 .02-.06.05-.08h.01c-.01.04-.02.08.01.09 0 0 .01 0 .03.01.01.03.04.05.09.03-.01-.01-.03-.02-.04-.03.01-.01.02-.03.02-.03.02-.08-.04-.08-.04-.11 0-.04.08-.01.08-.09v-.01c.04-.02.07-.04.08-.07.02-.06-.03-.08-.03-.08zm-3.76 2.25c.02-.2 0-.25-.1-.25-.12 0-.36.13-.64.24l.61.88c.04-.24.07-.44.09-.56 0-.02.01-.04.01-.06h-.04c-.08-.01-.14-.06-.14-.14.01-.09.09-.12.15-.11h.06zm-.23 1.54c.02-.15.05-.3.07-.45l-.73-1.05c-.1.04-.2.07-.31.09l.97 1.41zm-.1.63c.02-.11.04-.25.07-.41l-1.1-1.59c-.07.01-.14.01-.21.01h-.13l1.37 1.99zm-1.55-1.97c-.1 1.14.7 1.86 1.51 2.18l-1.51-2.18zm2.24-.17c.06.01.13.05.13.13-.01.09-.07.12-.15.12h-.05l-.05 2.19.07.01-.01.19c-.02.06-.09.08-.16.07.04.34-.25.42-.39.42-.15 0-.28-.1-.28-.27 0-.14.13-.2.22-.2s.13.03.11.11c-.02.06-.16.01-.16.09 0 .05.05.09.12.09.11 0 .17-.05.17-.18 0-.2-.19-.23-.37-.18-1.24-.37-1.94-1.59-1.85-2.54a.689.689 0 0 1-.08-.03l.07-.19c-.03.04-.07.06-.12.06-.09 0-.16-.07-.16-.16 0-.08.07-.15.16-.15s.15.07.15.15v.02l.08-.19c.2.12.51.25.78.25.63 0 1.08-.3 1.31-.3.26 0 .4.18.4.42v.07h.06zm-1.1-4.62c-.01.02-.01.05.01.06.03.02.05-.01.06-.03.01-.02.01-.03.01-.04-.01-.01-.01-.02-.01-.04.01-.02.02-.01.04 0-.01-.02-.01-.03 0-.03s.01.03.02.03 0-.02.01-.03c0-.01-.01-.02-.02-.02l-.08-.04c-.01-.01-.02-.01-.02 0 0 0-.02.01-.02.02.01.01.02-.01.03 0 .01.01 0 .01-.02.02.02.01.03.02.03.04-.01.02-.01.02-.03.02 0 .01 0 .03-.01.04zm.09-.2a.25.25 0 0 1-.08-.05c.03.04 0 .05.02.07.02.02.05.01.06-.02zm.06.04c-.01.03.01.06.03.06.03 0 .02-.02.06-.03-.02 0-.08-.03-.09-.03zm-.21.05s-.01 0 0 0c-.01 0 0 0 0 0zm.9.33c-.02 0-.01.01 0 0 .14.02.18.06.25.05.05-.01.05.02.05.02 0 .04.05.02.07 0 .01.04-.01.05-.02.06-.01 0-.01.01 0 .01.01.03-.01.06.04.06-.01.02-.02.02-.04.02.02.01.03.03.03.04 0 .06-.06.04-.06.07 0 .03.05.03.03.09 0 0-.01.02-.02.03.01.01.02.02.03.02-.03.02-.06 0-.07-.02-.01 0-.02-.01-.02-.01-.03-.01-.02-.04-.01-.07-.03.02-.02.07-.04.06h-.02c-.01.03-.01.04 0 .05-.02 0-.04-.03-.04-.05-.01 0-.02-.01-.02-.01-.03-.02.01-.05.03-.07.01-.01-.01-.01-.01-.01-.03.03-.07.01-.07-.03v-.01c-.02 0-.04.02-.05.03 0-.03.03-.06.06-.06 0 0 .02-.02.03-.01.03 0 .08.02.09 0 .01-.03-.01-.03.01-.09 0-.02-.01-.02-.02-.03-.02 0-.08-.02-.14.02-.05.03.06.05-.06.05a.42.42 0 0 1-.16-.04c.02.04 0 .07.02.08.04.03.05.1.04.12-.01.02-.07.02-.11.01h-.03c-.04.01 0 .06-.05.07-.03.01-.05-.01-.06-.03 0 0-.01-.01-.02-.01h-.02s-.01 0-.01.01 0 .02-.01.03c0 0-.01.01-.02.01 0 .01.03.02.04.02-.04.03-.09 0-.08-.03 0 0-.01-.02-.01-.03 0-.01.01-.01.01-.02 0 0 0-.01-.01-.01 0 .01-.01.01-.01.01h-.02c0 .01.01.02.02.03-.04.01-.06-.01-.06-.04-.01-.01-.02-.02-.02-.03-.02-.08.08-.03.08-.07 0-.01 0-.01-.01-.01s-.02.01-.03.01c-.03 0-.03-.01-.03-.03v-.02c-.02 0-.04.02-.05.03-.01-.03.04-.07.07-.07.01 0 .02-.01.02-.02.08-.03.08.13.15.08.01-.01.04-.02.07-.02.01 0 .01 0 0-.01a.133.133 0 0 0-.08-.03c-.05-.01-.05-.1-.02-.15-.02.02-.07.04-.09.03-.32-.02-.07.09-.22.13-.03.01-.1.09-.17.08.02-.01.01-.04 0-.05a.09.09 0 0 1-.08.04c-.02.02-.04.03-.04.04 0 .04-.06.07-.09.07.02-.01.02-.03.03-.04 0-.01 0-.01-.01 0-.07.04-.13 0-.14.11-.03-.03-.01-.07-.03-.07l-.02.02a.03.03 0 0 1 0-.04s0-.01-.01-.01c-.04.01-.07.01-.09 0 0-.01-.01-.02-.02-.02-.01.05-.05.07-.07.07.03-.03.02-.06.02-.08-.01.02-.02.03-.03.03.01-.02-.01-.04-.02-.05v.01c0 .02-.02.06-.06.06-.04 0-.05-.04-.05-.06 0-.01-.01-.01-.01 0-.02.01 0 .06-.04.07 0 0-.01 0-.02-.01-.01.03.01.05.02.06-.02 0-.07-.03-.06-.07v-.01c-.01-.01-.02-.01-.02-.01-.04-.03.01-.06.03-.09 0 0 0-.01-.01-.01-.07.05-.09.02-.1-.02 0 0 0-.01-.01-.02-.02 0-.03.02-.04.03-.02-.03.03-.08.06-.07h.01c.01-.01.02-.01.02-.01.03-.02.04.01.07.03.01.01.03.01.04 0 .01 0 0-.01 0-.01-.07-.03-.08-.05-.07-.06 0 0 .01-.02.01-.03-.01-.02-.03-.03-.04-.03.02-.01.06-.01.08.01h.03c.01 0 .02.01.04.03.01.02.01.04.02.06.03.05.15.01.19-.02.03-.02.13-.01.14-.01.01 0 .12-.03.18-.05-.04-.05-.06-.1-.08-.1-.01 0-.01.01-.01.03-.03 0-.03-.03-.03-.04v-.01c-.01 0-.02.01-.02.02-.01 0-.02-.01-.02-.03 0 0 0-.01-.01 0-.08.04-.16-.02-.1-.1-.02.07.08.08.09.01 0-.01 0-.01-.01-.01-.05-.01-.05-.04-.01-.08v-.01c-.01-.01-.01-.01-.02-.01h-.01c-.02.01-.03.01-.04.01l-.01-.01h-.01c-.02 0-.02.02-.02.03-.04-.02-.02-.05 0-.06v-.02c.01-.02.03-.05.09-.02 0 0 .01 0 0-.01v-.01h-.01c-.04 0-.06-.02-.05-.04 0 0 .01-.02.01-.03-.01-.01-.02-.01-.03-.01.05-.04.08-.01.07.02v.01h.02c.03 0 .04.04.04.07 0 0 0 .01 0 0s.01-.01.01-.02v-.01c-.01-.01 0-.03.01-.04 0 0 .02-.01.02-.02 0-.02-.01-.03-.02-.04.02 0 .06.02.06.04 0 .01.01.03.01.04 0 .04-.03.07-.04.12-.01.05-.01.07.04.1.03.02.05.04.07.05 0-.04.02-.12.04-.19-.01-.01-.01-.01-.02-.03.03 0 .04-.05.06-.1-.01 0-.02-.01-.03-.03.03.01.06-.07.09-.07-.01-.04 0-.06.01-.09.02 0 .04.01.06.03 0-.02.02-.02.04-.02 0 0 .04-.01.05-.01.01 0 .04 0 .07.02.04.02.06.04.07.05.01.01.02.04.02.04.01.01.03.03.02.04.02 0 .04.01.06.03 0 .03-.02.05-.05.06.04.05-.06.15-.06.2.32-.08.44.04.6.04.23 0 .37-.05.37-.13 0-.23-.82-.01-.82-.32 0-.05.03-.09.09-.12-.01-.02 0-.04.01-.06.09-.11.25-.12.32-.21.01.04-.02.13-.1.17.15-.01.2-.29.55-.24-.29.06-.3.34-.7.38h-.01c-.03.03-.06.06-.06.09 0 .2.81 0 .81.32.02.15-.13.25-.42.25zm-1.33 1.56zm-.24-.51c-.01.02-.01.05.02.07.03.02.06-.01.06-.03.01-.02.01-.04.01-.05-.01-.02-.02-.03-.01-.05.01-.02.03-.01.05 0-.01-.02-.01-.04.01-.03.02 0 .02.03.02.03.01 0 .01-.02.01-.03 0-.01-.01-.02-.02-.02l-.09-.04c-.01-.01-.02-.01-.03 0-.01.01-.02.01-.02.02s.02-.01.04 0c.01.01 0 .02-.02.03.02.01.04.03.03.05-.01.02-.02.02-.04.02 0 0-.01.01-.02.03zm.11-.23c-.02 0-.07-.04-.1-.06.03.05 0 .05.03.08.02.03.05 0 .07-.02zm.07.04c0 .03.01.07.04.08.03 0 .02-.02.07-.03-.03-.02-.1-.04-.11-.05zm-.46.41c0-.01 0 0 0 0zm2.25-.17c0 .11-.28.16-.47.16.17.01.23.03.31.02.05-.01.05.02.06.03.01.05.06.02.08 0 .01.04 0 .06-.02.08-.01 0-.01.01-.01.01.01.03-.01.07.05.07-.01.03-.03.02-.05.02v.01c.03.01.03.03.03.04 0 .07-.07.05-.07.08s.06.03.04.1c0 .01-.01.02-.02.03 0 .02.03.03.03.03-.04.02-.07 0-.08-.03-.01 0-.02 0-.02-.01-.03-.01-.02-.05-.01-.08 0 0 0-.01-.01 0-.03.02-.02.08-.05.08h-.02c-.01.03-.01.04 0 .06-.02 0-.05-.03-.04-.06-.01 0-.02-.01-.02-.02-.04-.02.01-.06.03-.08.01-.01-.01-.01-.01-.01-.03.03-.08.02-.09-.03v-.02c-.03 0-.05.02-.06.03 0-.04.04-.07.07-.07 0-.01.02-.02.04-.02.04 0 .1.03.11 0 .02-.03-.01-.04.01-.11.01-.02-.01-.03-.03-.03-.02 0-.1-.02-.16.02s-.09.06-.22.06c-.07 0-.13-.02-.18-.04.03.04 0 .08.03.1.05.03.06.12.05.14-.01.02-.08.03-.13.01h-.03c-.05.01 0 .06-.06.09-.03.01-.06-.01-.07-.03 0 0-.01-.01-.02-.01h-.02s-.01 0-.01.01c0 .02 0 .03-.01.04 0 0-.01.01-.02.01.01.02.04.02.05.03-.05.03-.1 0-.1-.04l-.01-.03c0-.01.01-.01.01-.02 0 0 0-.01-.01-.01 0 .01-.01.02-.01.02h-.02c0 .02.02.03.02.03-.05.02-.07-.01-.07-.04a.144.144 0 0 1-.02-.03c-.02-.1.09-.04.09-.08 0-.01-.01-.01-.01-.01-.01 0-.02.01-.03.01-.03 0-.04-.02-.03-.03v-.02c-.03 0-.05.02-.06.03-.01-.04.04-.08.08-.08.01-.01.02-.02.03-.02.09-.04.1.15.18.09.01-.01.05-.02.08-.02.01 0 .01 0 0-.01a.178.178 0 0 0-.1-.04c-.06-.01-.05-.12-.02-.17-.02.02-.07.05-.1.04-.41-.07-.23.18-.48.16-.02 0-.05 0-.08.01-.02.06-.16.19-.25.17.02-.01.03-.03.03-.04 0-.01 0-.01-.01-.01-.08.05-.15 0-.16.13-.03-.03-.02-.08-.03-.08-.01 0-.02.02-.02.03-.01-.01-.01-.03 0-.05 0 0 0-.01-.01-.01-.05.01-.08.01-.1 0 0-.01-.01-.02-.02-.03-.01.05-.06.08-.08.08.03-.03.03-.06.02-.09-.01.02-.03.03-.04.04.01-.02-.01-.04-.02-.05 0 0-.01 0 0 0 0 .03-.02.07-.07.07s-.06-.04-.06-.06c0-.01 0-.01-.01 0-.02.01 0 .07-.05.08 0 0-.01 0-.02-.01-.01.04.02.06.03.08-.03 0-.08-.04-.07-.09v-.01l-.02-.02c-.05-.03.01-.07.03-.1 0 0 0-.01-.01 0-.09.06-.11.03-.11-.02 0-.01-.01-.02-.01-.03-.03.01-.04.03-.05.04-.02-.04.03-.09.07-.08h.01c.01-.01.02-.01.03-.01.04-.02.04.01.08.04.02.01.03.01.05.01.01 0 0-.01 0-.01-.09-.03-.09-.06-.08-.08 0 0 .01-.02.01-.03-.02-.03-.03-.03-.05-.03.02-.02.07-.01.09.01h.03c.01 0 .03.02.04.04.02.03.01.05.03.07.04.06.17.01.23-.02.03-.02.18-.01.2-.01.01 0-.04-.06-.03-.12-.04.04-.07-.02-.13-.05-.06-.04-.1-.1-.11-.1-.01 0-.02.02-.01.03-.03 0-.04-.03-.04-.05v-.01c-.01 0-.02.01-.02.02-.01 0-.02-.02-.02-.03 0 0 0-.01-.01 0-.08.05-.18-.03-.12-.12-.01.08.1.1.11.02 0-.01 0-.01-.01-.01-.06-.01-.06-.05-.02-.09 0 0 .01-.01 0-.01s-.01-.01-.02-.01c-.01-.01-.01 0-.02 0-.02.01-.03.02-.04.01l-.02-.02s-.01 0-.01.01c-.02.01-.02.03-.02.04-.04-.03-.03-.06-.01-.08v-.03c0-.03.03-.06.1-.03h.01v-.02s0-.01-.01-.01c-.04 0-.07-.01-.06-.05 0 0 .01-.03.01-.04a.144.144 0 0 0-.03-.02c.05-.05.09-.02.08.02v.01h.02c.03 0 .05.05.06.09 0 .01 0 .01.01 0v-.03c-.02-.02-.01-.04 0-.05 0 0 .01-.02.02-.03 0-.03-.02-.04-.03-.05.03-.01.07.02.07.05 0 .01.01.04.01.04 0 .05-.02.09-.03.14 0 .06 0 .09.05.12s.09.08.13.11l.04.01c-.01 0-.02-.01-.03-.01.01 0 .02.01.02.01h.02l.06.02c0-.03 0-.07.01-.11-.01 0-.03-.01-.05-.04.03 0 .05-.06.07-.12-.01 0-.02-.01-.03-.04.03.01.07-.08.1-.08-.01-.04-.01-.07.01-.1.02 0 .05.01.07.03 0-.02.03-.02.05-.02 0 0 .04-.01.05-.01.02 0 .05 0 .09.03.04.02.07.05.08.06.01.01.02.04.02.05.02.02.03.03.02.05.02 0 .05.01.07.03 0 .03-.02.06-.06.07.04.05-.03.13-.06.19.38-.08 1.02.03 1.23.03.14 0 .38-.02.38-.09 0-.05-.05-.07-.29-.07s-1.01.17-1.01-.12c0-.14.16-.14.37-.13.01-.01.02-.01.02-.02.15-.09.39.03.52-.05-.01.05-.06.09-.23.09.28.06.5-.15.77.05-.22-.06-.66.13-1.03.02a.163.163 0 0 1-.06-.03c-.15-.01-.28-.02-.28.06 0 .16.65.05.94.05.21.03.31.08.31.17zm-2.3 1.24c-.01.02-.02.05.02.07.03.02.05-.01.06-.03.01-.02.01-.03.01-.04-.01-.01-.02-.03-.01-.04.01-.02.03-.01.05 0-.01-.02-.01-.04 0-.03.02 0 .02.03.02.03.01 0 0-.02 0-.03 0-.01-.01-.02-.02-.02l-.09-.04c-.01-.01-.02-.01-.03 0-.01.01-.02.01-.02.02s.03-.01.04 0c.01.01 0 .02-.02.03.02.01.04.02.03.04-.01.02-.02.02-.04.02.02-.02.01-.01 0 .02zm.1-.23c-.02 0-.07-.03-.09-.05.03.05 0 .05.03.07.02.03.05.01.06-.02zm.07.04c0 .03.01.07.04.07s.02-.02.07-.03c-.03-.01-.1-.03-.11-.04zm2.01.22c0 .1-.29.14-.44.15.16.01.21.03.3.02.05-.01.05.02.06.03 0 .05.06.02.07 0 .01.04-.01.06-.02.07-.01 0 0 .01 0 .01.01.03-.01.07.04.07-.01.02-.03.02-.05.02.02.01.03.03.03.04 0 .07-.07.05-.07.08s.06.03.04.1c0 0-.01.02-.02.03l.03.03c-.04.02-.07 0-.08-.02-.01 0-.02-.01-.02-.01-.03-.01-.02-.05-.01-.08 0 0 0-.01-.01 0-.03.02-.02.07-.05.07h-.02c-.01.03-.01.04 0 .05-.02 0-.04-.03-.04-.06-.01-.01-.02-.01-.02-.01-.04-.02.01-.06.03-.08.01 0 0-.01-.01 0-.03.03-.08.02-.08-.03v-.01c-.02 0-.05.02-.06.03 0-.04.03-.07.07-.07 0 0 .01-.02.04-.02.04 0 .09.03.1 0 .01-.03-.01-.03.01-.1 0-.02-.01-.03-.02-.03-.02 0-.09-.02-.15.01-.05.03-.09.05-.21.05-.07 0-.12-.02-.17-.04.03.04 0 .08.03.09.05.03.06.11.04.13-.01.02-.08.03-.13.01h-.03c-.05.01 0 .06-.06.08-.03.01-.06-.01-.07-.03 0 0-.01-.01-.02-.01h-.02s-.01 0-.01.01 0 .03-.01.03c0 0-.01 0-.02.01 0 .02.03.02.05.02-.05.03-.1 0-.09-.03l-.01-.03v-.02s0-.01-.01-.01h-.01c0 .01-.01.01-.01.01h-.02c0 .01.02.03.02.03-.05.02-.07-.01-.07-.04 0-.01-.02-.03-.02-.03-.02-.09.09-.04.09-.07 0-.01 0-.01-.01-.01s-.02.01-.04.01c-.03 0-.03-.01-.03-.03v-.02c-.03 0-.05.02-.06.03-.01-.04.04-.08.07-.08l.02-.02c.09-.03.09.14.17.09.01-.01.04-.01.07-.02 0 0 .01 0 0-.01-.02-.02-.07-.03-.09-.04-.05-.01-.05-.09-.03-.15-.02.02-.03.03-.06.03-.53-.05-.27.2-.72.14-.03-.01-.02.06-.1.05h.01c-.01 0-.03.01-.04.01 0 .01 0 .02-.01.04l-.12.06.01-.01a.26.26 0 0 1-.1.04c.02-.01.03-.03.03-.04 0-.01 0-.01-.01 0-.08.05-.22-.01-.23.11-.03-.03-.01-.08-.03-.08-.01 0-.02.02-.02.02-.01-.01-.01-.03-.01-.05 0 0 0-.01-.01 0-.05.01-.08.01-.1 0v.01c0-.01-.01-.02-.02-.03-.01.05-.06.08-.08.08.03-.03.03-.06.02-.08-.01.02-.03.03-.03.03 0-.02-.01-.04-.02-.05 0 .03-.02.06-.06.07-.05 0-.06-.04-.06-.06 0-.01-.01-.01-.01-.01-.02.02 0 .07-.04.08 0 0-.01 0-.02-.01 0 .03.02.06.02.07-.03 0-.08-.03-.07-.08v-.01l-.02-.02c-.04-.03.01-.06.03-.1 0 0 0-.01-.01-.01-.08.06-.1.02-.11-.02 0 0 0-.02-.01-.03-.03.01-.04.03-.04.04-.02-.04.03-.09.06-.08h.01c.01 0 .02-.01.03-.01.04-.02.04.01.07.04.02.01.03.01.05 0 .01 0 0-.01 0-.01-.08-.03-.09-.05-.08-.07 0 0 .01-.02.02-.02-.02-.03-.03-.03-.05-.03.02-.02.07-.01.09.01h.03c.01 0 .03.01.04.03.02.03.01.04.02.06.04.05.16.01.21-.02.03-.02.21-.01.23-.01.01 0-.02-.06-.03-.12-.01-.01-.02-.02-.02-.03-.01.03-.04.03-.06.03-.11-.06-.17-.17-.18-.17-.01 0-.01.02-.01.03-.03 0-.04-.03-.04-.05v-.01c.01.08.01.09.01.1-.01 0-.02-.01-.03-.03 0 0 0-.01-.01 0-.07.04-.18-.02-.12-.11 0 .08.1.09.1.01 0-.01 0-.01-.01-.01-.06-.01-.06-.05-.02-.09v-.01c-.01-.01-.01-.01-.02-.01h-.02c-.02.01-.03.02-.03.01l-.02-.02h-.01c-.02 0-.02.03-.02.04-.04-.03-.04-.06-.01-.08v-.02c0-.03.03-.06.09-.03h.01v-.02l-.01-.01c-.04 0-.07-.02-.06-.05 0 0 .01-.03.01-.04-.01-.01-.02-.01-.03-.02.04-.04.08-.01.08.02v.01h.02c.03 0 .05.05.06.09 0 0 0 .01.01 0v-.03c-.02-.02-.01-.03 0-.05 0 0 .01-.02.02-.03 0-.03-.02-.04-.03-.05.02-.01.06.02.07.05.01.01.01.04.02.04 0 .04-.02.09-.02.14 0 .06 0 .08.06.11.07.04.1.11.15.12.02 0 .03 0 .05.01h.04l.03.01c0-.03 0-.06.01-.08l-.03-.03c.03 0 .04-.06.07-.11-.01 0-.02-.01-.03-.04.03.01.06-.07.1-.08-.01-.04-.01-.07.01-.1.02 0 .05.01.06.03 0-.02.03-.02.05-.02 0 0 .04-.01.05-.01.01 0 .04 0 .08.02s.07.04.08.05c.01.01.01.04.02.05.01.01.03.03.02.05.02 0 .05.01.07.03 0 .03-.02.05-.06.07.04.05-.05.14-.07.2.36-.11 1.26.01 1.47.01.13 0 .36-.02.36-.08 0-.04-.05-.07-.28-.07-.23 0-1.19.16-1.19-.11 0-.16.32-.12.58-.12l.02-.02c.14-.09.49.04.61-.04-.01.04-.17.07-.33.08.27.06.52-.15.73.04-.25-.09-.62.15-.98.05-.03-.01-.05-.02-.06-.04-.21 0-.49-.04-.49.05 0 .16.85.05 1.12.05.24.02.34.08.34.16zM27.79 17c.01 0 0 0 0 0zm-.41-.64zm-.02.1zm.07.12c-.01.02-.01.05.02.07.03.01.05-.01.06-.03.01-.02.01-.04.01-.05-.01-.02-.02-.03-.01-.04.01-.02.03-.01.05 0-.01-.02-.01-.03 0-.03.02 0 .02.03.02.03.01 0 .01-.02.01-.03 0-.01-.01-.02-.02-.03l-.09-.04c-.01 0-.02-.01-.03 0-.01.01-.02.02-.02.03 0 .01.02-.01.03 0 .01.01 0 .02-.02.03.02.01.04.02.03.04-.01.02-.02.02-.03.02.01 0 0 .01-.01.03zm.11-.22c-.02 0-.07-.03-.09-.05.03.05 0 .05.02.08.02.02.05 0 .07-.03zm.06.03c-.01.03.01.07.04.07s.02-.02.07-.03a.21.21 0 0 1-.11-.04zm1.98.52c.01.03-.01.07.04.07-.01.03-.03.02-.05.02v.01c.02.01.03.03.02.04-.01.07-.07.05-.07.08s.06.03.03.09c0 0-.01.02-.02.03 0 .01.02.02.03.03-.04.02-.07 0-.07-.02-.01 0-.02 0-.02-.01-.03-.01-.02-.05-.01-.08h-.01c-.03.02-.02.07-.05.07h-.02c-.02.03-.01.04-.01.05a.068.068 0 0 1-.04-.06c-.01 0-.02-.01-.02-.01-.04-.02.01-.06.04-.08.01-.01-.01-.01-.01-.01-.03.03-.08.02-.08-.03v-.01c-.03 0-.05.02-.06.03 0-.04.04-.06.07-.07 0 0 .02-.02.04-.02.04 0 .09.02.1 0 .02-.03 0-.04.02-.1.01-.02-.01-.03-.02-.03-.02 0-.09-.02-.15.02-.06.03-.1.05-.22.05-.07 0-.12-.02-.17-.04.03.04 0 .08.03.09.05.03.06.11.04.13-.01.02-.08.02-.12.01h-.04c-.05.01 0 .06-.06.08-.03.01-.06-.01-.07-.03 0 0 0-.01-.02-.01h-.02s-.01 0-.01.01c0 .02 0 .03-.01.03 0 0-.01.01-.02.01.01.02.03.02.05.02-.05.03-.1 0-.09-.03l-.01-.03c0-.01.01-.01.01-.02 0 0 0-.01-.01-.01 0 .01-.01.01-.01.01h-.02c0 .01.01.03.02.03-.05.02-.07-.01-.07-.04a.144.144 0 0 1-.02-.03c-.02-.09.09-.04.09-.07 0-.01 0-.01-.01-.01s-.02.01-.03.01c-.03 0-.04-.01-.03-.03v-.02c-.03 0-.05.02-.06.03-.01-.03.04-.08.07-.08 0-.01.02-.02.02-.02.09-.03.09.14.17.09.01-.01.04-.02.07-.02 0 0 .01 0 0-.01-.02-.02-.07-.03-.09-.04-.06-.01-.05-.12-.03-.17-.02.02-.03.05-.06.05-.53-.05-.27.2-.72.14-.03 0-.02.06-.1.06-.04.01-.08.01-.08.02 0 .05-.11.12-.14.09.02-.01.03-.03.03-.04 0-.01 0-.01-.01-.01-.08.05-.14 0-.15.12-.03-.03-.01-.08-.03-.08-.01 0-.02.02-.02.03-.01-.01-.01-.03-.01-.05 0 0 0-.01-.01 0-.05.01-.08.01-.1 0 0-.01-.01-.02-.02-.03-.01.05-.06.08-.08.08.03-.03.03-.06.02-.08-.01.02-.03.03-.04.04.01-.02-.01-.04-.02-.05h-.01c.01.02-.02.06-.06.07-.05.01-.06-.04-.06-.06 0-.01-.01-.01-.01-.01-.02.02-.01.06-.04.08 0 0-.02 0-.02-.01-.01.03.01.06.03.07-.03 0-.08-.03-.07-.08v-.01c-.01-.01-.02-.01-.02-.02-.04-.03.02-.06.03-.1 0 0 .01-.01-.01 0-.08.06-.1.02-.11-.02 0 0-.01-.02-.01-.03-.03 0-.04.03-.04.04.02.03.07-.02.11-.02h.01c.01 0 .02-.01.03-.01.04-.02.04.02.07.04.02.02.03.01.04.01.01 0 0-.01-.01-.01-.08-.03-.08-.05-.07-.07 0 0 .01-.01.01-.03-.02-.03-.03-.03-.05-.03.02-.02.06-.01.08.01h.03c.01 0 .03.01.04.03.02.03.01.04.03.06.04.05.16.01.22-.02.04-.02.14-.01.16-.01.01 0-.05-.06-.04-.11l-.02.01c-.02-.01-.03-.03-.04-.05-.02.01-.07.03-.07.04-.11-.06-.16-.18-.18-.18-.01 0-.01.01-.01.03-.03 0-.04-.03-.04-.05 0 0 0-.01-.01-.01s-.02.01-.02.02c-.01 0-.02-.01-.02-.03 0 0 0-.01-.01 0-.07.04-.17-.02-.12-.11 0 .08.1.09.1.02 0-.01 0-.01-.01-.01-.06-.01-.06-.05-.02-.09v-.01c-.01 0-.01-.01-.02-.01h-.02c-.02.01-.03.02-.04.01 0 0-.01-.01-.02-.01h-.01c-.02 0-.01.03-.01.04-.04-.03-.04-.06-.02-.08v-.02c0-.03.03-.06.09-.03h.01v-.02s0-.01-.01-.01c-.04 0-.06-.01-.06-.05 0 0 .01-.03.01-.04-.01-.01-.02-.01-.03-.02.04-.04.08-.01.08.02v.01h.02c.03 0 .05.05.06.09 0 0 0 .01 0 0s.01-.02.01-.02 0-.01-.01-.01c-.01-.02-.01-.03 0-.05 0 0 .01-.01.02-.03 0-.03-.02-.04-.03-.05.02-.01.06.02.07.05.01.01.01.04.01.04 0 .04-.02.08-.02.13 0 .06 0 .08.06.12.07.04.11.11.15.12.02 0 .03.01.04.01h.04l.05.02c0-.02 0-.05.01-.08-.01 0-.03-.02-.05-.04.03 0 .04-.06.07-.11-.01 0-.02-.01-.03-.04.03.01.06-.07.1-.07-.01-.04-.01-.07.01-.1.02 0 .05.01.06.03 0-.02.03-.02.04-.02 0 0 .04-.01.05-.01.02 0 .04 0 .08.02s.07.04.08.06c.01.01.02.04.02.05.01.01.03.03.02.05.02 0 .05.01.07.03 0 .03-.02.06-.06.07.04.05-.05.14-.07.2.36-.11 1.25.01 1.47.01.13 0 .36-.02.36-.08 0-.04-.05-.07-.28-.07-.23 0-1.19.16-1.19-.12 0-.15.32-.12.58-.12.01-.01.02-.01.02-.02.14-.09.49.04.61-.04-.01.04-.17.08-.33.08.27.06.44-.11.72-.02-.21-.06-.62.2-.97.1-.03-.01-.05-.02-.06-.04-.21-.01-.49-.05-.49.05 0 .15.84.05 1.12.05.27 0 .37.05.37.14 0 .1-.29.13-.45.14-.02 0-.01.01 0 .01.16.01.24.03.32.02.05-.01.05.02.05.03 0 .05.06.02.08 0 .03.05.01.08-.01.1 0-.01 0-.01 0 0zm-1.98.77c.03 0 .02-.02.07-.03a.513.513 0 0 1-.1-.04c-.02.03 0 .07.03.07zm-.05.06c.01 0 .01-.02.01-.03 0-.01-.01-.02-.02-.02l-.08-.04c-.01-.01-.02-.01-.02 0-.01.01-.02.01-.02.02s.02-.01.03 0c.01.01 0 .02-.02.02.02.01.04.02.03.04-.01.02-.02.02-.03.02-.01 0-.02.01-.03.03-.01.02-.01.05.02.06.03.02.05-.01.06-.03.01-.02.01-.03.01-.04-.01-.01-.02-.03-.01-.04.01-.02.03-.01.05 0-.01-.02-.01-.03 0-.03.01.02.01.04.02.04zm-.05-.16c-.02 0-.06-.03-.09-.05.03.04 0 .05.02.07.03.03.05.01.07-.02zm.85.02c-.14-.01-.25-.01-.25.06 0 .15.59.05.85.05s.28.05.28.13c0 .1-.31.12-.46.13-.02 0-.01.01 0 .01.15.02.26.03.34.02.05-.01.04.02.04.02 0 .04.05.02.07 0 0 .04-.02.06-.04.07v.01c0 .03-.02.07.02.06-.02.03-.03.02-.05.02.02.01.02.03.02.04-.02.07-.08.04-.08.07-.01.03.05.03.01.09l-.03.03c0 .01.02.02.03.03-.04.02-.07 0-.07-.02-.01 0-.02-.01-.02-.01-.02-.01-.01-.05.01-.08-.03.02-.04.07-.06.07h-.02c-.02.03-.02.04-.02.05-.02 0-.03-.03-.02-.06-.01-.01-.02-.01-.02-.01-.03-.02.02-.05.05-.07.01-.01 0-.01-.01-.01-.03.03-.07.01-.07-.03v-.01c-.03 0-.05.02-.06.03.01-.03.05-.06.08-.07 0 0 .02-.02.04-.01.03 0 .08.02.1 0 .02-.03 0-.03.03-.09.01-.02 0-.03-.01-.03-.02 0-.08-.02-.15.02-.06.03-.12.05-.23.05a.34.34 0 0 1-.16-.04c.03.04 0 .08.02.09.05.03.06.11.04.13-.01.02-.08.02-.12.01-.01-.01-.03 0-.03 0-.05.01 0 .06-.05.08-.03.01-.06-.01-.06-.03 0 0-.01-.01-.02-.01h-.02s-.01 0-.01.01 0 .03-.01.03c0 0-.01.01-.02.01 0 .02.03.02.05.03-.05.03-.09 0-.09-.03l-.01-.03c0-.01.01-.01.01-.02 0 0 0-.01-.01-.01 0 0-.01 0-.01.01s-.01.01-.01.01h-.02c0 .01.01.03.02.03-.05.02-.07-.01-.06-.04-.01 0-.01-.02-.02-.03-.02-.08.08-.04.08-.07 0-.01 0-.01-.01-.01s-.01.01-.03.01c-.03 0-.03-.01-.03-.03v-.02c-.03 0-.04.02-.05.03-.01-.04.04-.07.07-.07.01-.01.02-.01.02-.02.08-.03.09.14.16.08.01-.01.04-.02.07-.02 0 0 .01 0 0-.01-.02-.02-.06-.03-.09-.04-.05-.01-.05-.11-.02-.16-.02.02-.06.04-.09.04-.37-.06-.19.15-.42.13-.03 0-.02.06-.1.05.02-.01.02-.02.01-.03-.01.01-.01.02-.02.02-.02.06-.1.17-.18.12.02-.01.03-.02.03-.04 0-.01 0-.01-.01 0-.07.05-.17.02-.18.13-.03-.03-.02-.07-.03-.07-.01 0-.02.02-.02.03-.01-.01-.01-.03-.01-.05 0 0 0-.01-.01 0-.05.01-.08.01-.09 0h-.01c0-.01-.01-.02-.02-.03-.01.05-.06.07-.07.08.03-.03.03-.06.02-.08-.01.02-.02.03-.03.03 0-.02-.01-.04-.02-.05h-.01c.01.02-.02.06-.06.07-.05 0-.05-.04-.06-.06 0-.01 0-.01-.01 0-.02.02 0 .06-.04.08 0 0-.01 0-.02-.01 0 .03.01.06.03.07-.03 0-.07-.03-.07-.08v-.01c-.01-.01-.02-.01-.02-.01-.04-.03.01-.06.03-.1 0 0 0-.01-.01 0-.08.05-.1.02-.1-.02 0 0 0-.01-.01-.02-.02 0-.04.02-.04.04-.02-.04.03-.08.06-.08h.01c.01-.01.02-.01.02-.01.04-.02.04.01.07.04.02.01.03.01.04.01.01 0 0-.01 0-.01-.08-.03-.08-.05-.07-.07l.01-.02a.055.055 0 0 0-.05-.03c.02-.02.06-.01.08.01h.03c.01 0 .03.01.04.03.02.03.01.04.02.06.03.05.15.01.2-.02.03-.02.13-.01.15-.01.01 0 0-.08 0-.13l-.06.01c-.02-.01-.03-.02-.03-.03-.09-.05-.09-.02-.1-.02-.01 0-.01.02-.01.03-.03 0-.03-.03-.03-.05 0 0 0-.01-.01-.01s-.02.01-.02.02c-.01 0-.02-.01-.02-.03 0 0 0-.01-.01 0-.07.04-.17-.02-.12-.11 0 .07.09.09.1.02 0-.01 0-.01-.01-.02-.05-.01-.06-.05-.02-.08v-.01c-.01 0-.01-.01-.02-.01h-.01c-.02.01-.03.01-.03.01l-.02-.02s-.01 0-.01.01c-.02 0-.01.03-.01.03-.04-.02-.03-.05-.01-.07v-.03c0-.03.03-.05.09-.03h.01v-.01c0-.01 0-.01-.01-.01-.04 0-.06-.01-.06-.05 0 0 .01-.02.01-.03-.01-.01-.02-.01-.03-.02.04-.04.08-.01.08.02v.01h.02c.03 0 .04.05.06.08 0 0 .01.01.01 0v-.03c-.02-.01-.01-.03 0-.05 0 0 .01-.01.02-.03 0-.02-.02-.04-.03-.04.02-.01.06.02.07.04 0 .01.01.04.01.04 0 .04-.02.08-.02.13s0 .08.05.11c.07.04.09.03.14.04h.01l.03.01c0-.03.01-.07.02-.1l-.03-.03c.03 0 .04-.06.07-.11-.01 0-.02-.01-.03-.03.03.01.06-.07.09-.07-.01-.04 0-.06.01-.09.02 0 .04.01.06.03 0-.02.02-.02.04-.02.01 0 .04-.01.05-.01.02 0 .04 0 .08.02s.06.04.08.05c.01.01.02.04.02.04.01.01.02.03.02.05.02 0 .05.01.06.03 0 .03-.02.05-.05.07.03.04-.03.12-.06.17.35-.07.92.03 1.11.03.13 0 .38-.02.38-.08 0-.04.02-.07-.19-.07-.22 0-.92.15-.92-.11 0-.12.15-.12.34-.12l.02-.02c.14-.08.46.04.58-.04-.01.04-.16.07-.31.07.25.05.42-.11.69-.02-.2-.06-.59.19-.92.1-.05.04-.06.03-.07.01zm-1.06 1.42c-.01.02-.01.05.02.06.03.02.05-.01.06-.03.01-.02.01-.03.01-.04-.01-.01-.02-.02-.01-.04s.03-.01.05 0c-.01-.02-.01-.03 0-.03s.01.03.02.03.01-.02.01-.03c0-.01-.01-.02-.02-.02l-.08-.04c-.01 0-.02-.01-.03 0 0 .01-.02.01-.01.02 0 .01.02-.01.03 0 .01.01 0 .02-.02.02.02.01.03.02.03.04-.01.02-.02.02-.03.02-.01.01-.02.02-.03.04zm.09-.2c-.02 0-.06-.03-.09-.05.02.04 0 .05.02.07.03.02.06 0 .07-.02zm.06.03c-.01.02.01.06.03.06.03 0 .02-.02.06-.02-.02-.01-.08-.03-.09-.04zm.63-.03c-.07.02-.12.05-.12.1 0 .14.87-.07.88.13.01.09-.18.18-.47.17h-.08c0 .07.1.07.14.13.02.03.01.06-.04.08-.04.02.02.05.05.05-.02.03-.04.03-.06.03h-.01c-.01.02-.05.04-.02.07-.02.01-.03 0-.04-.02v.01c.01.02 0 .04-.01.04-.05.04-.07-.01-.09.01-.02.02.02.05-.04.08h-.03c-.01.01 0 .03 0 .04-.04-.01-.04-.04-.03-.07 0-.01-.01-.02-.01-.02-.01-.02.02-.04.04-.06v-.01c-.03-.01-.06.03-.08.02 0 0-.01-.01-.01-.02-.04.04-.04.04-.05.06-.01-.02-.01-.05.01-.06 0-.01-.01-.02-.01-.02-.01-.03.04-.03.07-.03.01 0 .01 0 .01-.01h-.01c-.01-.01-.02-.02-.01-.03v-.01c-.02-.01-.04 0-.06 0 .01-.03.05-.04.08-.03 0 0 .02-.01.04 0s.03.03.05.05c.03-.01.02-.03.07-.06.02-.01.01-.02.01-.03a.312.312 0 0 0-.13-.06c-.03.05-.22.02-.28 0 .13.08.06.24.09.26.04.03.05.1.04.12-.01.02-.04.01-.09 0h-.03c-.04.01 0 .06-.05.07-.03.01-.05-.01-.06-.02 0-.01-.01-.01-.01-.01h-.02s-.01 0-.01.01 0 .02-.01.03c0 0-.01.01-.02.01 0 .02.03.02.04.02-.04.03-.09 0-.08-.03l-.01-.02c0-.01.01-.02.01-.02l-.01-.01c0 .01-.01.01-.01.01h-.02c0 .02.01.03.02.03-.04.01-.06-.01-.06-.04 0-.01-.01-.02-.01-.03-.02-.08.08-.03.08-.07 0-.01-.01-.01-.01-.01-.01 0-.02.01-.03.01-.03 0-.03-.01-.03-.02v-.02c-.02 0-.04.02-.05.03-.01-.03.03-.07.07-.07l.02-.02c.08-.03.08.13.15.08.01-.01.04-.02.07-.02 0 0 .01 0 0-.01-.02-.02-.08-.07-.08-.12 0-.04.01-.11.03-.13-.09.01-.13.07-.22.08h-.03c-.01.13-.06.17-.06.19 0 .04-.08.08-.1.07.02-.01.02-.02.03-.03 0-.01 0-.01-.01-.01-.07.04-.13 0-.14.11-.03-.03-.01-.07-.02-.07s-.02.02-.02.02a.03.03 0 0 1 0-.04s0-.01-.01-.01c-.04.01-.07.01-.09 0 0-.01-.01-.02-.02-.02-.01.05-.05.07-.07.07.03-.03.03-.05.02-.07-.01.02-.02.03-.03.03.01-.02-.01-.04-.02-.05 0 0-.01 0 0 0 0 .02-.02.06-.06.06-.04 0-.05-.04-.05-.06 0-.01 0-.01-.01 0-.02.01 0 .06-.04.07 0 0-.02 0-.02-.01-.01.03.01.05.02.06-.02 0-.07-.03-.06-.07v-.01c-.01 0-.01-.01-.02-.01-.04-.03.01-.06.03-.09 0 0 0-.01-.01-.01-.07.05-.09.02-.1-.02 0 0-.01-.01-.01-.02-.02.01-.03.02-.04.03-.02-.04.03-.08.06-.08h.01c.01 0 .02-.01.02-.01.04-.02.04.01.07.03.01.01.03.01.04 0 .01 0 0-.01-.01-.01-.07-.03-.08-.05-.07-.06l.01-.02c-.01-.02-.03-.03-.04-.03.02-.01.06-.01.08.01h.03c.01 0 .03.01.04.03.01.03.01.04.02.06.02.02.05.02.08.02 0 0 0 .01-.01.01l.01-.01c.04-.01.09-.02.11-.04.03-.02.15 0 .17 0 .01 0-.02-.04-.03-.08-.05.01-.1-.03-.12-.09-.1-.06-.09-.17-.1-.17-.01 0-.01.01-.01.03-.03 0-.03-.03-.03-.05 0 0 0-.01-.01-.01s-.02.01-.02.02c-.02 0-.02-.01-.02-.02 0 0 0-.01-.01 0-.07.04-.16-.02-.11-.1 0 .07.09.08.09.01 0-.01 0-.01-.01-.01-.05-.01-.06-.05-.02-.08v-.01c-.01 0-.01-.01-.02-.01h-.01c-.02.01-.03.02-.04.01 0 0-.01-.01-.01-.02h-.01c-.01 0-.01.02-.01.04-.04-.02-.03-.05-.01-.07v-.02c0-.02.02-.05.08-.03v-.01c0-.01-.01-.01-.01-.01-.03 0-.06-.02-.06-.05 0 0 0-.02.01-.03 0-.01-.02-.01-.03-.01.04-.04.07-.01.07.02v.01h.02c.03 0 .04.05.05.08 0 .01 0 .01.01 0v-.03a.03.03 0 0 1 0-.04l.02-.02c0-.03-.02-.03-.03-.04.02 0 .06.01.07.04.01.01.01.04.01.04 0 .04-.02.08-.02.12 0 .05 0 .07.05.1s.13.16.18.21c-.01-.06 0-.14.02-.21-.01 0-.02-.01-.03-.03.03 0 .04-.05.06-.1-.01 0-.02-.01-.03-.03.03.01.06-.07.09-.07-.01-.04-.01-.06.01-.09.02 0 .04.01.06.03 0-.02.02-.02.04-.02l.04-.01c.02.01.04.01.08.02.04.02.06.04.07.05.01 0 .02.04.02.04.01.01.02.03.02.05.02 0 .04.01.06.03 0 .03-.02.05-.05.06.03.04-.04.14-.07.2.37-.09.67.02.84.02.22 0 .39-.06.39-.12 0-.08-.86.1-.86-.12 0-.08.09-.13.19-.16l.03-.03c.14-.08.46.04.58-.03-.01.04-.17.07-.31.07.25.05.42-.11.69-.02-.21-.06-.59.2-.93.1-.03.05-.05.04-.06.02zM13.99 3.59c0-.12-.09-.21-.21-.21-.11 0-.21.1-.21.21 0 .12.09.21.21.21s.21-.09.21-.21zm-.07-.56c0-.12-.09-.21-.21-.21-.11 0-.21.09-.21.21s.09.21.21.21.21-.1.21-.21zm.12-.25c.12 0 .21-.09.21-.21s-.1-.21-.21-.21c-.12 0-.21.1-.21.21s.09.21.21.21zm.56-.04c.12 0 .21-.09.21-.21s-.09-.21-.21-.21-.21.1-.21.21c0 .12.09.21.21.21zm2.39-.39c.08.08.22.08.3 0 .08-.08.08-.22 0-.3a.217.217 0 0 0-.3 0c-.08.08-.08.22 0 .3zm-.04-.45c.08-.08.08-.22 0-.3a.217.217 0 0 0-.3 0c-.08.08-.08.22 0 .3.08.08.22.08.3 0zm-.56-.09c.08-.08.08-.22 0-.3a.217.217 0 0 0-.3 0c-.08.08-.08.22 0 .3.08.08.21.08.3 0zm-.48.35c.08-.08.08-.22 0-.3a.217.217 0 0 0-.3 0c-.08.08-.08.22 0 .3.09.09.22.09.3 0zm-1.34-.29l.17.37.21-.26c.01 0 .02.01.03.01.01.13.02.34.02.46 0 .15.12.27.27.27.15 0 .27-.12.27-.27 0-.1-.06-.19-.14-.24-.1-.08-.22-.19-.3-.28 0-.01.01-.02.01-.03l.36.03-.14-.38-.27.23c-.01 0-.01 0-.01-.01l-.02-.39-.37.14.25.29c-.01.01-.01.02-.02.03l-.32.03zm2.44.66c.08.13.11.19.12.29a.634.634 0 0 1-.22-.2l.04.49c.06-.09.11-.15.18-.18-.02.32-.15.45-.26.48a.205.205 0 0 1-.25-.16c-.03-.14.1-.23.22-.11.02-.3-.22-.29-.32-.17.12-.29.07-.47-.18-.63-.16.27-.09.44.11.65-.19-.1-.37.07-.2.29.04-.19.2-.15.24 0 .03.13-.09.3-.3.36-.3.09-.4-.1-.47-.27.06-.04.22-.03.39.08l-.15-.48c-.07.17-.17.24-.29.29-.01-.14.09-.42.09-.42l-.58.24s.27.13.36.24c-.12.05-.24.07-.41-.01l.23.45c.05-.2.15-.32.22-.34.06.17.13.38-.15.52-.2.1-.4.07-.47-.05-.08-.13.01-.28.17-.17-.03-.28-.27-.28-.34-.07 0-.29-.07-.46-.37-.54-.07.29.02.46.31.58-.16-.02-.34.14-.11.34 0-.18.15-.2.23-.08a.2.2 0 0 1-.07.29c-.09.06-.28.06-.51-.16.07-.03.15-.02.25 0l-.31-.38c.02.14.01.24-.02.3-.07-.08-.09-.14-.12-.29l-.24.21c.22.14.48.35.8.79.33-.21.92-.49 1.29-.64.37-.15.99-.36 1.37-.44-.08-.53-.04-.87.02-1.12l-.3.02zm.66 2.8c.24-.18.04-.38.33-.83-.32.2-.78.39-1.19.55.18.3.57.51.86.28zm-.06 3.08c.4-.17.37-.57.27-.78-.1-.22-.19-.4-.32-.4-.23 0-.35-.06-.42-.27-.08-.25.17-.34.41-.48-.25-.07-.37-.18-.23-.28.16-.12.39.11.44 0 .05-.11-.12-.2-.19-.27-.1-.1-.2-.07-.34-.02l-1.1.42c-.13.06-.22.11-.22.25 0 .1-.06.29.05.33.11.04.11-.29.32-.31.17-.02.16.14.04.36.26-.06.51-.18.63.06.1.2.05.33-.12.49-.09.09-.03.28.05.5.05.23.35.56.73.4zm-2.09-2.23c.37-.03.51-.46.44-.8-.41.16-.88.34-1.24.42.51.13.5.41.8.38zm6.11 9.83c-.1.28.13.34.13.56 0 .28-.24.4-.5.47.19-.38.02-.6-.29-.65.06.72-.5.83-.73.71.22-.05.32-.39.19-.71-.1.24-.35.44-.59.44-.22 0-.39-.17-.48-.36.26.18.47-.03.47-.16s-.26-.21-.26-.41c0-.49.53-.29.53-.72 0-.18-.1-.25-.21-.25-.11 0-.28.06-.33.35-.27-.24 0-.78-.12-1.14.02.57-.36.54-.51.76-.19-.2 0-.59-.19-1.05-.07.52-.27.45-.32.75-.53-.26-1.46-.17-1.78.19.9.7 1.96 1.07 1.96 2.16 0 .83-1.29 1.16-1.29 1.7s1.35 1.78 2.03 1.78c.22 0 .33-.28.52-.29.18-.01.35 0 .51.01.17.01.31.17.29.32.31.03.71.52.31.92-.06-.22-.27-.53-.68-.31.16.36.02.71-.44.85.15-.23.17-.55-.11-.55-.27 0-.04.18-.56.18-.51 0-.46.02-.67-.27-.21-.29-.36-.41-.47-.37-.12.04-.17.34.03.45-1.09 0-.64-1.13-1.2-1.41.02.35.04.63-.01.8-.41-.32-.65-.75-.72-1.02-.07-.27-.02-.53-.28-.66a.257.257 0 0 1-.16-.28c.02-.12.09-.08.28-.17.23-.1.53-.34.53-.91 0-.44-.09-1.04-.81-1.46.06.93.04 1.72-.38 2.43-.54.92-1.45 1.48-1.97 1.7-.52.22-1.25.4-1.25 1.08 0 1.28.56 2.03 1.14 2.03.36 0 .28-.42.81-.42.23 0 .49.09.54.26.29-.05.61.11.61.39 0 .27-.12.44-.35.48.17-.36-.26-.45-.4-.37-.13.08.04.21.04.43s-.07.42-.45.52c.08-.13.08-.32-.15-.32-.23 0-.32.39-.61.39-.48 0-.61-.21-1.06-.12-.32.07-.31.26-.19.34-.65.04-.52-.67-.38-.82.14-.14.23-.24.04-.37s-.51 0-.57.32c-.49-.96.19-.91-.03-1.99-.11.45-.39.8-.6.91.08-.24-.13-.68-.13-1.05 0-.82.51-1.08.51-1.34 0-.17-.19-.36.01-.53.11-.09.34.09.49.09.65 0 1.12-.84 1.22-1.77.12-1.11.55-1.87 1.01-2.71.02-.13.04-.26.07-.4-.45.57-.85 1.44-1.48 1.95.08.71-1.3 1.53-2.09.9.26.02.75-.1.89-.5-.12-.01-.23-.03-.33-.07-.48.27-1.24-.07-1.22-.6.19.23.43.27.65.18a1.5 1.5 0 0 1-.27-.87c0-2.08 3.22-3.51 3.22-5.2 0-.54-.33-.82-.7-.82-.2 0-.42.06-.65.2.15.14.26.32.26.54 0 1.91-3.06 1.73-3.33 2.99-.15-1.61 1.77-1.25 1.94-2.59-.4.58-1.08 1.01-1.48.79 1 .02.69-2.05 1.84-2.05.11 0 .25.03.38.08.31-.26.68-.41.99-.41.46 0 1.19.35 1.19 1.24 0 2.02-3.23 3.32-3.23 5.22 0 .63.37.94.87.94 1.13 0 1.85-2.03 3.08-3.7.76-1.12 1.28-3.35 1.79-4.4-.59.43-.68 1.59-1.4 1.66.39-.33.11-1.33.36-2.06.09-.27.13-.53.06-.8-.44.47-.25 2.04-.96 2.24.25-.32-.03-.84-.03-1.32 0-.9.46-1.04.51-1.88-.43.17-.28 1.35-1.12 1.32.6-.6-.02-1.23.67-1.91-.38-.17-.65-.49-.65-.82.26-.21.58-.28.86-.31-.13-.2.05-.4.22-.55.06.08.15.24.25.17.17-.12.75-.48 1.26-.68.51-.2 1.16-.37 1.36-.41.12-.02.07-.19.06-.3.24-.02.52 0 .55.26.21-.18.51-.26.8-.28.17.36.2.65.05 1.13.41.03.64.39 1.02.3-.33.45-.73.26-1.11.22 1.11.34 1.31 1.43 1.92 1.51-.65.52-1.09-.4-1.65-.38 1.47.74 1.48 1.64 1.89 1.65-.45.42-.81-.13-1.4-.27 1.16.77 1.24 1.4 1.15 1.92.25.24.22.54.24.91.19-.13.53-.18.75-.25-.08.08-.15.16-.23.25-.59.67-1 1.31-1.34 2.16-.25-.25-.52-.51-.66-.64-.23-.22-.46-.17-.55-.16.38.43 1.64 1.79 2 2.21.37.44.33.75.38 1.07.05.32.46.58.38.81zm20.85 5.22c0 .37.3.68.68.68.37 0 .67-.31.67-.68a.674.674 0 1 0-1.35 0zm-.24 0c0-.5.41-.91.91-.91s.91.41.91.91-.41.91-.91.91-.91-.41-.91-.91zm-2.98 1.65c.26.05.5-.07.53-.26v-.05c0-.17-.18-.35-.41-.39-.15-.03-.3 0-.4.07a.31.31 0 0 0-.13.19c-.03.2.15.4.41.44zm-.41-.81a.77.77 0 0 1 .58-.11c.39.07.65.39.6.7a.55.55 0 0 1-.29.38c-.15.08-.33.1-.51.07a.806.806 0 0 1-.46-.25.535.535 0 0 1-.14-.46c.02-.12.1-.24.22-.33zM33.79 9.78c0 .06.02.11.05.15.1.13.34.12.51-.02.1-.08.18-.2.19-.31a.24.24 0 0 0-.05-.19.24.24 0 0 0-.17-.09.496.496 0 0 0-.34.11c-.12.1-.19.23-.19.35zm.05-.53c.16-.12.35-.18.52-.15.13.02.25.08.32.18.08.1.11.23.09.36-.02.18-.12.34-.28.46-.28.22-.66.21-.84-.03-.17-.23-.09-.6.19-.82zm4.3 12.34c.09 0 .16-.04.21-.09.09-.09.15-.23.15-.38.01-.26-.15-.48-.34-.49a.34.34 0 0 0-.21.09c-.09.09-.15.23-.15.38s.05.3.14.39c.03.05.1.1.2.1zm-.36-1.04c.11-.1.24-.16.38-.16.16.01.31.09.42.23.1.13.16.31.15.5-.01.21-.09.42-.22.55-.1.1-.24.16-.38.15-.13 0-.27-.06-.37-.17a.765.765 0 0 1-.2-.54v-.01c.01-.21.09-.41.22-.55zm-4.26-6.49c.14.06.29.08.41.04a.27.27 0 0 0 .17-.15c.04-.08.03-.17.01-.23a.58.58 0 0 0-.28-.3.545.545 0 0 0-.41-.04.27.27 0 0 0-.17.15c-.09.18.03.42.27.53zm-.19-.89a.77.77 0 0 1 .59.05c.19.09.34.25.4.43.05.14.04.29-.02.41s-.17.22-.31.27a.77.77 0 0 1-.59-.05c-.35-.17-.53-.55-.39-.84.08-.13.19-.22.32-.27zm6.59 4.16c.15-.21.14-.48-.03-.6-.16-.12-.42-.04-.57.17-.15.21-.14.48.03.6s.42.04.57-.17zm-1.07 1.7c.15-.21.13-.48-.03-.6-.17-.12-.42-.04-.57.17-.15.21-.14.48.03.6s.42.04.57-.17zm.1-7.12c.27-.31.83-.91.83-.91l-.35-.28c.02.13 0 .31-.05.49a.427.427 0 0 1-.16-.34l-.28.35c.07 0 .26.03.35.12-.25.24-.46.12-.6.03-.24-.15-.34-.29-.27-.41.08-.14.34-.1.37.13.2-.09.24-.25.17-.38-.06-.1-.19-.13-.33-.08.31-.16.47-.44.4-.77-.35.07-.51.27-.59.62-.02-.14-.1-.27-.22-.28-.14-.01-.27.1-.26.32.22-.08.36.14.27.28-.09.14-.26.11-.49-.03-.26-.16-.3-.39-.16-.63.07.06.13.2.13.38L38 10c-.07.03-.2.05-.35 0 .08-.09.22-.25.42-.27l-.59-.34c.09.18.02.39-.02.5a.491.491 0 0 1-.17-.3l-.27.52c.14-.09.3-.11.39-.08-.14.24-.36.32-.63.17-.23-.13-.35-.27-.27-.41.07-.14.34-.13.38.1.19-.1.22-.27.14-.39-.06-.09-.22-.1-.35-.05.26-.25.35-.48.23-.82-.32.1-.48.38-.47.73-.03-.14-.12-.24-.23-.24-.14 0-.26.12-.24.33.21-.09.38.11.3.26-.07.11-.23.09-.48-.03-.15-.08-.36-.2-.28-.54.12.03.23.18.27.24l.17-.42c-.11.08-.28.07-.37.03.13-.12.27-.24.4-.28l-.41-.16s-.24.79-.37 1.18l3.75 2.18zm.68 2.89c0 .13.06.27.16.38.1.11.24.18.37.18.06 0 .14-.01.21-.07.07-.06.08-.15.09-.21 0-.13-.06-.27-.16-.38a.524.524 0 0 0-.37-.18c-.06 0-.14.01-.21.07a.28.28 0 0 0-.09.21zm1.63 7.53c-.01.06-.02.14.04.22.1.16.37.18.59.03.13-.08.21-.21.24-.34.01-.06.02-.14-.04-.22a.27.27 0 0 0-.19-.12c-.13-.03-.27.01-.4.09s-.21.21-.24.34zm-7.75-11.35a.451.451 0 0 0-.1-.33.253.253 0 0 0-.17-.09c-.08 0-.14.03-.18.07-.08.07-.13.19-.14.32v.03c0 .21.12.38.27.39.08 0 .14-.03.17-.07.09-.07.14-.19.15-.32zm2.4-4.94c.31-.18.69-.28 1.12-.31-.26-.08-.46-.3-.68-.3-.44-.01-.32.36-.44.61zm6.98 6.19c.07 1.58 2.03 1.21 1.73 2.38-.03-.78-2.66-.7-2.73-2.31-.02-.33.08-.6.25-.78a.682.682 0 0 0-.42-.14c-.46 0-1.12.49-1.12 1.25 0 2.04 2.71 2.31 2.71 4.55 0 .46-.18.89-.51 1.15.23.03.55-.11.71-.29-.23.86-1.12.89-1.4.54h-.12c-.08 0-.15-.01-.22-.02.18.35.45.71.84.65-.8.64-1.77-.22-1.62-1.11-.24-.27-.39-.59-.5-.83-.09-.2-.22-.09-.21.13.03.7-.53 1.37-.53 1.88 0 .51.53 1 .7 1 .17 0 .31-.2.43-.15.12.05.11.22.08.58-.02.25.03.86.06 1.5.05-.17.17-.33.33-.44a.82.82 0 0 1 .58-.13c.14.03.26.11.33.22.06.08.08.18.08.28 0 .04 0 .08-.01.12-.04.19-.16.36-.34.48-.15.1-.33.15-.5.13a.552.552 0 0 1-.41-.23c-.02-.02-.03-.05-.04-.08.01.2.02.39.02.58.01.47-.12.68-.32.78-.01-.07-.15-.21-.34-.21-.14 0-.26.11-.26.2 0 .21.26.19.26.51 0 .33-.74.74-1.2.66.07-.16.17-.68.31-1.04-.14.08-.27.31-.38.63-.14.39-.31.38-.47.27.15-.17.5-.98.86-1.23.36-.26.54-.35.63-.96.09-.61-.01-.98-.02-1.51-.02-.72-.31-.56-.53-.56-.49 0-2.28-1.16-2.28-2.35 0-.11.01-.24.03-.37-.79.04-1.24.27-1.24 1.04 0 .26.03.52.22.67.17.14.25.27-.03.4-.32.14-2.83 1.19-2.83 1.19-.32.12-.36-.01-.49-.17-.13-.15-.27-.23-.44-.12-.17.11.12.23.12.41 0 .18-.08.61-1.23.53l.27-.46c.08-.15.12-.26.06-.28-.07-.01-.13.11-.23.25l-.33.43c-.19.01-.37-.03-.37-.03.44-.44.68-.67.92-.92.24-.24.53-.35 1.03-.43.59-.09 2.55-.35 2.55-.99 0-.73-.82-.68-.82-1.66 0-.86.37-1.78 2.7-1.73-.2-.55-.79-.97-1.36-1.11-1.17-.29-1.5-1.09-1.6-1.94-.32-.01-.64-.03-.89-.05-.72-.04-1.08-.26-1.26-.12-.07.06-.14.16-.03.33.1.18.34.61.54.9.14.02.37.05.4.23.03.18-.11.21-.14.31-.03.09.03.17.13.17s.15-.08.14-.15c.1-.08.34-.08.58-.01.18.2.48.54.57.86-.28-.11-.68-.26-.82-.26-.14 0-.11.05.01.09.12.04.44.16.53.26l-.02.32c-.07-.07-.63-.4-.96-.54-.33-.13-.53-.2-.71-.63-.17-.42-.69-1.36-.9-1.72-.14-.25-.09-.34-.02-.43.07-.08.14-.18.19-.26.14-.22.18-.17.38-.15.2.02.66.03.87-.05l.15-.06c-.48-.53-1.05-1.29-1.12-1.38-.09-.13-.22-.2-.31-.2s-.19.02-.26.08c-.03.03-.07.06-.12.1l-.13-.16c-.09-.09-.17-.19-.26-.28.18-.14.35-.27.4-.32.12-.11.18-.19.29-.19.1 0 .25.01.31.01.16 0 .23.05.31.13.18.19.47.41.7.59.02.02.05.04.08.06.02-.03.04-.05.06-.07.1-.09.22-.14.35-.13.12.01.24.07.33.17.11.13.17.31.16.5 0 .07-.02.13-.04.2.19.15.35.3.52.47.08-.65.42-1.28.84-1.84l-.1-.03.04-.12c.09-.29.25-.8.32-1.05l.04-.13.05-.16.71.28c.02-.02.04-.04.07-.06.62-.6 2.13-1 2.13-1.86 0-.21-.07-.48-.29-.65.1.14.11.32.09.5-.04.23-.37.72-.97.72-.33 0-.56-.32-.67-.32-.07 0-.16.05-.26.13.03.45-.16.69-.35.73.07-.19.01-.5-.04-.46-.05.04-.12.1-.13.36-.01.26-.23.59-.58.63.07-.11.18-.53.11-.59-.07-.06-.19.12-.28.12-.09 0-.16-.09-.17-.19-.01-.09-.19 0-.22-.09s.21-.26.43-.34c.22-.09.55-.24.5-.36-.1-.23-.76.13-1.04.31-.44.27-.25-.1-.31-.24-.17-.39-.02-.43.17-.6.25-.23.74-.57 1.31-.86 0-.19.12-.34.27-.4.21-.09.44-.19.67-.27L33.55.97c-.07-.07-.07-.14-.04-.17.03-.03.09-.01.19.09l3.55 3.51c.08-.24.16-.52.08-.84.43.21.81.64.87 1.05 1.09-.02 1.38.67 1.72.43.05.17-.14.35-.45.4 1.26.33.93 1.25 1.65 1.35-.12.13-.29.18-.55.09.79 1.16 0 1.91.61 2.45-.23.07-.55-.13-.77-.5.23.96-.12 1.48.05 1.87-.27.08-.46-.16-.55-.54-.05.21-.12.4-.2.58l.29.24-.11.12-.03.03-.81.88-.08.09s-.09-.05-.1-.06c-.31.39-.56.71-.56 1.07 0 .41.54 1.17 1.13 1.94a.672.672 0 0 1-.04-.24v-.02c0-.15.06-.28.16-.37.1-.09.23-.14.38-.14.19.01.39.1.53.25s.22.34.22.53v.02c-.01.15-.06.28-.16.37-.1.09-.23.14-.38.14a.67.67 0 0 1-.4-.14c.42.55.82 1.08 1 1.46.38.81.75 1.33 1.21 1.33.51 0 .97-.38.97-.99 0-2.09-2.72-2.29-2.72-4.65 0-1.09.94-1.62 1.49-1.62.37 0 .62.1.84.33.07-.02.14-.02.21-.02 1.29 0 .48 1.73 1.48 1.84-.46.21-1.04-.08-1.34-.9zM0 74h1.73V0H0v74z"/></svg>