<?xml version="1.0" encoding="UTF-8"?>
<svg width="170px" height="47px" viewBox="0 0 170 47" version="1.1" xmlns="http://www.w3.org/2000/svg" xmlns:xlink="http://www.w3.org/1999/xlink">
    <!-- Generator: Sketch 61.2 (89653) - https://sketch.com -->
    <title>just-eat</title>
    <desc>Created with Sketch.</desc>
    <g id="Page-1" stroke="none" stroke-width="1" fill="none" fill-rule="evenodd">
        <g id="just-eat" fill-rule="nonzero">
            <path d="M7.07091681,0 L162.934083,0 C164.721526,0.122540015 166.407652,0.873941194 167.693027,2.12076522 C169.073011,3.43338203 169.895001,5.2874283 170,7.18243142 L170,39.3335517 C169.905001,40.8189864 169.394007,42.2834433 168.490018,43.4741885 C167.159692,45.2415675 165.127246,46.3454755 162.919083,46.5 L7.23591487,46.5 C5.40791989,46.4257517 3.66988213,45.6876415 2.34797238,44.4241874 C0.984988412,43.1525274 0.141998329,41.3564201 0,39.499377 L0,7.05456616 C0.126487615,5.16041616 0.962252136,3.38327833 2.34097246,2.07681153 C3.62405701,0.850396654 5.29883503,0.115039526 7.07091681,0 L7.07091681,0 Z" id="Path" fill="#000000"></path>
            <path d="M55.197555,10.7841624 C56.7253399,9.84823248 58.5454662,9.47805127 60.3225423,9.50100051 C62.9956652,9.59579084 65.6577753,10.2912526 68.0115251,11.5634387 C66.5097706,12.8944946 64.9239179,14.131758 63.3991366,15.4418603 C62.397967,15.2043855 61.3637587,14.8232286 60.3255458,15.0607033 C59.6317353,15.2133657 58.9269119,15.544633 58.5194358,16.1532867 C58.1109586,16.7569515 58.1620183,17.6290226 58.6595996,18.1688287 C59.2482873,18.8313633 60.1183037,19.1297034 60.9332558,19.4080876 C62.740367,19.9748341 64.6395858,20.3969005 66.2354502,21.4635413 C67.2946876,22.1480273 68.1807228,23.1308535 68.6252421,24.3152338 C69.061752,25.4177951 69.120821,26.6301137 69.0327181,27.8015227 C68.9416117,29.372049 68.548152,30.9645267 67.6611157,32.2846069 C66.742042,33.6695436 65.284339,34.6084669 63.7585565,35.2111339 C60.5247786,36.430437 56.8544907,36.1680174 53.680783,34.8928379 C52.5246434,34.4299933 51.425803,33.8360561 50.4059572,33.122753 C51.5226163,31.5911695 52.6560077,30.0717729 53.8059292,28.5648344 C55.203562,29.2004286 56.620217,29.8040934 58.0859294,30.2600848 C59.075085,30.6053212 60.2104113,30.4506632 61.1044558,29.9208351 C61.7882547,29.5257091 62.238781,28.7653908 62.226767,27.9741409 C62.2658126,27.3116063 61.8603389,26.7099371 61.3467389,26.3287802 C60.2885026,25.5465104 58.9679598,25.2810975 57.7305142,24.9089207 C56.1586778,24.4339712 54.5167597,23.9460504 53.2462754,22.8604516 C52.2060602,21.9833915 51.6494098,20.6583223 51.4932274,19.3332532 C51.3210262,17.7288019 51.4111315,16.0594942 52.0228461,14.5488355 C52.6314273,12.9769246 53.748589,11.6521579 55.197555,10.7841624 L55.197555,10.7841624 Z M16.9728986,10.1375925 C19.1073922,10.1395881 21.2418859,10.1375925 23.3763795,10.1395881 L23.3763795,24.777212 C23.3763795,26.3467405 23.4714906,27.9342292 23.1781479,29.487793 C22.8928146,31.0363678 22.2490625,32.5550088 21.1397666,33.6984796 C19.9283513,34.9676724 18.2133477,35.6661275 16.4883325,35.8666839 C15.2368704,36.0093683 13.9403558,36.0093683 12.731944,35.61524 C10.9558691,35.0724406 9.49716495,33.7802986 8.5,32.2456929 C9.75847022,30.9156348 11.0309568,29.6015414 12.2884259,28.2704854 C12.7659838,28.8941061 13.274578,29.506751 13.9023113,29.9896829 C14.3268072,30.3109722 14.880454,30.519511 15.4130763,30.3618597 C15.9757336,30.2580892 16.432267,29.8220536 16.6385079,29.3012057 C16.9008144,28.6596247 16.963888,27.9571784 16.9718974,27.2716946 L16.9728986,10.1375925 L16.9728986,10.1375925 Z M26.8384241,10.1485682 C28.9719166,10.1405858 31.1064102,10.1276145 33.2399027,10.1405858 C33.2509156,14.1586984 33.2409039,18.1808022 33.2439074,22.1999126 C33.2509156,23.7474896 33.1818349,25.3180158 33.5532688,26.8356591 C33.7955518,27.8544057 34.2901296,28.875148 35.1731613,29.4897885 C36.157311,30.1812591 37.4247917,30.3039877 38.5931567,30.1922349 C39.5953275,30.0894622 40.6035053,29.6494354 41.21522,28.8292496 C41.7438375,28.1427679 42.0111498,27.298635 42.1583218,26.4564977 C42.3275194,25.4626958 42.3645627,24.4499359 42.3625604,23.4421649 C42.3615592,19.0089704 42.3645627,14.5717848 42.3615592,10.1375925 C44.4950517,10.1316057 46.6295453,10.1375925 48.7650401,10.1355969 C48.7670425,15.0756702 48.7650401,20.0167414 48.7660413,24.9568148 C48.7620366,26.6331071 48.7159828,28.3393332 48.2163992,29.9527645 C47.7743498,31.4111877 46.9001113,32.7022969 45.7084693,33.6565723 C44.3058306,34.7880696 42.5577884,35.4076991 40.7997346,35.7239995 C38.8304339,36.0632491 36.8010631,36.0552668 34.8347659,35.6990547 C33.0947331,35.3707807 31.3667143,34.7371822 29.9851002,33.6036893 C29.2552476,32.9920421 28.614499,32.2636532 28.1469528,31.4334894 C27.3129785,29.9876873 27.0046183,28.3093994 26.9035001,26.6640386 C26.814396,25.3878613 26.8484358,24.1076929 26.8414276,22.8275244 C26.8384241,18.6028686 26.8394253,14.3762173 26.8384241,10.1485682 L26.8384241,10.1485682 Z M69.0857801,10.1395881 C76.0208821,10.1375925 82.9559841,10.1395881 89.8880826,10.1395881 C89.9111095,12.0044633 89.9281294,13.871334 89.8780709,15.7362092 L82.7006859,15.7352114 C82.6916754,22.3735286 82.7106976,29.0118457 82.7066929,35.6501628 C80.5711981,35.6551518 78.4347021,35.6501628 76.3012096,35.6531562 C76.2691722,29.0158369 76.2952026,22.3755241 76.2871932,15.737207 C73.8903931,15.7362092 71.4945942,15.7312203 69.0997965,15.7402004 C69.0687602,13.8733296 69.0957918,12.0064588 69.0857801,10.1395881 L69.0857801,10.1395881 Z M97.9575099,10.1395881 C103.24769,10.1375925 108.53787,10.1375925 113.830053,10.1395881 L113.829052,15.7232379 C110.675368,15.7561651 107.520682,15.7272291 104.366998,15.7382048 C104.366998,17.1850047 104.363994,18.6308069 104.367999,20.0796024 C106.992065,20.1145251 109.617131,20.0875847 112.242198,20.0975626 C112.234189,21.9784025 112.256214,23.8602402 112.231185,25.7410801 C111.658516,25.8149168 111.059817,25.751058 110.477136,25.7720117 C108.439756,25.7720117 106.403377,25.7700161 104.365997,25.7720117 C104.370001,27.1988557 104.35999,28.6227064 104.372004,30.0495504 C107.523686,30.0465571 110.67737,30.0495504 113.830053,30.0475549 C113.829052,31.9154234 113.831054,33.7852876 113.828051,35.654154 L97.9565087,35.654154 L97.9575099,10.1395881 L97.9575099,10.1395881 Z M124.785852,10.1465726 C127.134596,10.1485682 129.481338,10.144577 131.829081,10.1485682 C135.043836,18.6507627 138.238569,27.1559506 141.456328,35.654154 C139.099575,35.6661275 136.742821,35.6551518 134.386068,35.6601407 C133.839984,34.2010148 133.298349,32.740239 132.76117,31.2778337 C129.730629,31.266858 126.699088,31.2708491 123.668547,31.2758381 C123.08887,32.7386027 122.500182,34.1973761 121.922507,35.6601407 C119.583775,35.6391871 117.24304,35.6591429 114.905309,35.6471694 C118.20116,27.1479683 121.486998,18.6457738 124.785852,10.1465726 L124.785852,10.1465726 Z M138.1795,10.1435792 C145.119608,10.1316057 152.059715,10.1395881 158.999992,10.1395881 C158.995819,12.005461 159.004829,13.8703362 158.995819,15.7352114 C156.596015,15.7332159 154.196211,15.7411982 151.796408,15.7322181 C151.773381,22.371533 151.818434,29.0138413 151.800412,35.6531562 C149.661914,35.649165 147.525418,35.6561496 145.389923,35.649165 C145.3699,29.0118457 145.38692,22.3735286 145.380913,15.7362092 C143.105254,15.7362092 140.827593,15.7332159 138.552936,15.7382048 C138.423955,15.7371546 138.295685,15.7190359 138.17149,15.684324 C138.190513,13.8384069 138.170489,11.9894964 138.1795,10.1435792 L138.1795,10.1435792 Z" id="Shape" fill="#FFFCFB"></path>
            <path d="M126.67963,16 C128.613719,19.203546 130.57094,22.3938921 132.5,25.6004843 C131.473113,25.5750996 130.445219,25.5040225 129.419338,25.4918379 C129.623508,26.5579942 129.842765,27.620089 130.055988,28.6831993 C129.509857,28.7898149 128.96976,28.9411076 128.415583,29 C128.220464,27.9379052 127.996178,26.8808873 127.784967,25.8218386 C126.844576,26.2249473 125.937374,26.7021792 125,27.1144263 C125.247419,25.1790986 125.579321,23.2539249 125.858925,21.3216434 C126.137522,19.5487776 126.38494,17.7718503 126.67963,16 L126.67963,16 Z" id="Path" fill="#000000"></path>
        </g>
    </g>
</svg>