<svg xmlns="http://www.w3.org/2000/svg" width="93" height="74"><path fill="#0b0c0c" d="M0 73.29h1.72V.88H0v72.41zm56.47-30.72h-1.8v-1.53h1.8v-3.15h1.74v3.15h2.1v1.53h-2.1v6.53c0 .79.22.94 1.31.94h.8v1.53h-1.33c-1.8 0-2.51-.37-2.51-2.3v-6.7zm6.84 4.31c0-2.67 1.02-4.25 3.82-4.25V40.8c-1.88-.06-3.05.77-3.88 2.46h-.04v-2.22h-1.64v10.52h1.74v-4.68zm-13.38 3.4c-1.43 0-2.78-.49-2.84-2.04h-1.74c.1 2.61 2.11 3.56 4.48 3.56 2.15 0 4.5-.81 4.5-3.32 0-2.03-1.72-2.6-3.46-2.99-1.61-.39-3.45-.59-3.45-1.83 0-1.06 1.21-1.34 2.25-1.34 1.14 0 2.33.43 2.45 1.77h1.74c-.14-2.57-2-3.3-4.33-3.3-1.84 0-3.94.88-3.94 2.99 0 2.02 1.74 2.59 3.45 2.97 1.74.39 3.46.61 3.46 1.95-.02 1.34-1.49 1.58-2.57 1.58zm-17-4.66c0-1.89 1.02-3.3 3.13-3.3 1.33 0 2.15.84 2.15 2.12v7.12h1.74v-6.92c0-2.26-.86-3.85-3.64-3.85-1.51 0-2.7.61-3.43 1.91h-.04v-1.67H31.2v10.52h1.74v-5.93zm5.23 23.42c0 1.61-.55 2.63-2.33 2.63-1.9 0-2.35-1.2-2.35-2.89v-.61h-1.94v.9c0 2.73 1.53 4.23 4.25 4.23 3.27 0 4.31-2 4.31-3.97V58.41h-1.94v10.63zM27.33 39.15h1.74v-2.12h-1.74v2.12zm0 12.41h1.74V41.04h-1.74v10.52zm14.76-12.41h1.74v-2.12h-1.74v2.12zm-20.3 21.7v1.57h-1.78v1.53h1.78v9h1.74v-9h2.04v-1.53h-2.04v-1.47c0-.92.49-1.18 1.33-1.18.31 0 .67.04.98.14V58.4c-.33-.1-.8-.16-1.12-.16-1.91.01-2.93.91-2.93 2.61zm47.26-.32h1.74v-2.12h-1.74v2.12zm23.68 7.67h-7.91c-.06 1.83.98 3.46 3.29 3.46 1.43 0 2.43-.69 2.74-2.06h1.72c-.47 2.32-2.14 3.58-4.52 3.58-3.37 0-4.97-2.32-5.07-5.54 0-3.15 2.08-5.48 4.97-5.48 3.74.02 4.88 3.5 4.78 6.04zm-1.84-1.52c-.08-1.65-1.33-2.97-3.05-2.97-1.82 0-2.9 1.36-3.02 2.97h6.07zm-21.84 6.27h1.74V62.42h-1.74v10.53zm8.29-1.29c-2.21 0-3.09-1.91-3.09-3.85 0-2.14.78-4.11 3.29-4.11 1.43 0 2.35.77 2.62 2.1h1.8c-.25-2.5-2.17-3.62-4.56-3.62-3.35 0-4.99 2.48-4.99 5.64 0 3.13 1.72 5.37 4.95 5.37 2.66 0 4.27-1.53 4.66-4.09h-1.78c-.22 1.59-1.22 2.56-2.9 2.56zm-35.25-20.1h1.74V41.04h-1.74v10.52zm7.36 16.81c0 1.89-1.02 3.3-3.13 3.3-1.33 0-2.15-.83-2.15-2.12v-7.12h-1.74v6.92c0 2.26.86 3.85 3.64 3.85 1.51 0 2.7-.61 3.43-1.91h.04v1.67h1.64V62.42h-1.74v5.95zm16.11-9.1h-1.74v3.15h-1.8v1.53h1.8v6.7c0 1.93.72 2.3 2.51 2.3h1.33v-1.53h-.8c-1.08 0-1.31-.14-1.31-.94v-6.53h2.11v-1.53h-2.11v-3.15zm-7.34 7.61c-1.61-.39-3.45-.59-3.45-1.83 0-1.06 1.21-1.34 2.25-1.34 1.14 0 2.33.43 2.45 1.77h1.74c-.14-2.57-2-3.3-4.33-3.3-1.84 0-3.94.88-3.94 2.99 0 2.01 1.74 2.58 3.45 2.97 1.74.39 3.45.61 3.45 1.95 0 1.32-1.47 1.57-2.56 1.57-1.43 0-2.78-.49-2.84-2.04H52.7c.1 2.61 2.1 3.56 4.48 3.56 2.15 0 4.5-.81 4.5-3.32 0-2.02-1.72-2.59-3.46-2.98zm19.23-25.84h-1.84l-2.96 8.61h-.05l-3.09-8.61h-1.96l4.19 10.46-.72 1.79c-.33.61-.72.96-1.43.96-.35 0-.69-.14-1.02-.24v1.59c.39.14.8.18 1.21.18 1.55 0 2.27-.75 3.07-2.81l4.6-11.93zM19.69 67.69c0 3.07-1.78 5.5-5.13 5.5-3.35 0-5.13-2.42-5.13-5.5 0-3.09 1.78-5.52 5.13-5.52 3.35.01 5.13 2.43 5.13 5.52zm-1.84 0c0-2.56-1.47-3.99-3.29-3.99s-3.29 1.42-3.29 3.99c0 2.55 1.47 3.97 3.29 3.97s3.29-1.42 3.29-3.97zm7.01-16.13V37.03H22.2l-4.62 12.21-4.6-12.21h-2.66v14.53h1.84V39.47h.04l4.56 12.09h1.66l4.56-12.09h.04v12.09h1.84zm4.65-47.55a.29.29 0 1 1 .29.29c-.16 0-.29-.14-.29-.29zm.88 1.15a.29.29 0 1 0 .58 0 .29.29 0 0 0-.58 0zm-1.31-1.09a.29.29 0 1 0 0-.58.29.29 0 0 0 0 .58zm1.29.72a.29.29 0 1 0 0-.58.29.29 0 0 0 0 .58zm-7.29-.72a.29.29 0 1 0 0-.58.29.29 0 0 0 0 .58zm-.32 2.85c.04.25.18.65.3.89-.24-.11-.43-.16-.68-.06.14.19.49.47 1.03.34.29-.07.58-.22.57-.45-.01-.13-.11-.29-.29-.28-.18.02-.19.29-.13.41-.23-.13-.48-.82-.11-.92.29-.08.55.32.65.62.05-.37.21-.71.5-.69.38.03.25.72.12.9-.02-.24-.16-.37-.27-.36-.1.01-.23.08-.21.3.02.22.34.36.7.36.35 0 .95-.11 1.01-.77-.22.04-.57.21-.72.43.05-.4.05-.69 0-1.11.18.26.49.4.71.43-.06-.28-.31-.58-.6-.76h1.49c-.29.18-.53.48-.6.76.22-.04.53-.17.72-.43-.05.42-.05.7 0 1.11-.15-.22-.5-.39-.73-.43.06.67.67.77 1.01.77.36 0 .68-.14.7-.36.02-.22-.11-.29-.21-.3-.11-.01-.25.12-.27.36-.13-.18-.26-.87.12-.9.29-.02.44.33.5.69.09-.3.36-.7.65-.62.37.1.12.79-.11.92.06-.12.05-.39-.13-.41-.18-.02-.28.14-.29.28-.01.23.28.38.57.45.54.13.89-.16 1.03-.34-.24-.1-.43-.05-.67.06.12-.24.26-.64.3-.89.06.27.24.47.46.62.05-.22.03-.6-.18-.92l.82.34c-.39.43-.85 1.41-1.1 2.23.16.14.26.32.26.54 0 .38-.25.61-.49.76.45.29.86.65 1.24 1.07.3.34.54.64.77 1.04-.04.04-.07.09-.11.15-.05.08-.19.21-.24.28a.54.54 0 0 0-.13.33c0 .11.04.23.12.37.1.17.73 1.41.88 1.72.12.25.35.46.49.57a7.475 7.475 0 0 1-.47 3.06c-.31.82-.75 1.56-1.31 2.19-.27.31-.57.58-.88.82-.08.06-.42.16-1.82-.18-.18-.04-.28-.07-.47-.13.02-.18.04-.27.09-.4.06-.15.12-.28.2-.36.08-.03.08-.09.16-.13.5-.24.94-.59 1.32-1.04.38-.45.68-.97.89-1.55.2-.55.31-1.14.32-1.75h-3.98v4.41c.32.02.91.08.91.08-.15.18-.21.36-.25.64-.45-.14-.9-.31-1.37-.5.14-.17.31-.21.47-.22v-4.41h-4.07c-.01-.18-.1-.47-.16-.55-.2-.25-.28-.39-.29-.76-.01-.2-.13-.46-.33-.71-.12-.14-.61-.68-.72-.79.31-.81.75-1.55 1.31-2.17.37-.42.79-.77 1.24-1.07-.24-.16-.49-.38-.49-.76 0-.22.09-.39.25-.53-.26-.82-.71-1.8-1.1-2.23l.82-.34c-.21.33-.23.71-.18.93.21-.18.39-.38.46-.65zm3.26 4.61c-.53.01-1.05.13-1.54.37s-.94.59-1.32 1.04c-.38.45-.68.97-.89 1.55-.21.58-.32 1.18-.33 1.81h4.08v-4.77zm3 1.41c-.38-.44-.83-.79-1.32-1.04-.46-.22-.94-.35-1.44-.37v4.77h3.98c-.01-.63-.12-1.24-.33-1.81-.21-.58-.51-1.1-.89-1.55zM22.8 9.72c0 .22.14.4.45.58.54-.36 1.48-.76 2.84-.76 1.36 0 2.29.4 2.84.76.32-.19.45-.37.45-.58 0-.77-2.18-.84-3.29-.84-1.11.01-3.29.07-3.29.84zm5.53-5.58a.29.29 0 1 0 0-.58.29.29 0 0 0 0 .58zm-3.77.21a.29.29 0 1 0 0-.58.29.29 0 0 0 0 .58zm5.79 2.21a.29.29 0 1 0 .58 0 .29.29 0 0 0-.58 0zm-6.51-2.42a.29.29 0 1 0 0-.58.29.29 0 0 0 0 .58zm6.65 1.72a.29.29 0 1 0 .58 0 .29.29 0 0 0-.58 0zm-2.65.46c-.02.22.16.44.27.72.12-.25.38-.42.4-.67.02-.24-.12-.43-.29-.75-.05.17-.36.47-.38.7zm1.18 8.67c-.06.02-.1-.01-.11-.01.04-.02.09 0 .04-.07-.05-.07-.08-.08-.12-.02-.05.05-.36-.01-.36-.25.02.04.06.07.11.09.01.01.02.01.04.02.01 0 .03.01.04.01.03.01.06.02.09.01h.02v-.01c.07-.01.12-.05.12-.12.01-.13-.11-.19-.25-.3-.05-.04-.09-.08-.13-.12-.05-.09-.02-.18-.13-.35-.01-.04-.02-.09-.04-.15a.44.44 0 0 0 .07.5c.13.14.41.28.4.41 0 .03-.03.05-.07.06h-.04c-.01 0-.02 0-.03-.01-.02-.01-.04-.01-.06-.03-.03-.02-.06-.04-.1-.08-.12-.11-.22-.27-.29-.36-.13-.17-.07-.33-.05-.47.09-.13-.06-.39-.14-.45 0 0 .02-.06-.01-.13-.02.01-.06.01-.08.01-.02-.05-.03-.06-.07-.06-.06-.01-.06-.04-.06-.06-.03.03-.04.06-.08.06-.05 0-.07 0-.08.02-.03.03-.05.04-.1.03-.05 0-.05.03-.05.07 0 .02.01.06.04.07 0 0 .01.01.02.01l.04.05.03-.05c.02-.02.09-.03.1.02.01.03.02.04-.03.05-.05.01-.07.01-.11.01-.03 0-.03.04-.03.06 0 .03.04.05.1.03.06-.01.17-.03.17.03 0 .14-.16.14-.2.3a.45.45 0 0 1-.1-.09.644.644 0 0 0-.12-.15 1.27 1.27 0 0 0-.12-.1c-.06-.03-.06-.06-.06-.12 0-.05.02-.1.02-.14 0-.01-.01-.03-.01-.04-.01-.03-.05-.05-.08-.05.01.01.03.02.03.05-.01.01-.02.02-.02.03-.01.01-.02.03 0 .05v.03c0 .01 0 0-.01 0-.01-.04-.03-.09-.06-.09h-.02v-.01c0-.04-.04-.07-.09-.02.01 0 .03 0 .03.01s-.01.04-.01.04c0 .04.02.05.07.05.01 0 .01 0 .01.01v.02c0 .01 0 .01-.01 0-.07-.03-.09 0-.1.03v.03c-.02.01-.03.05.01.08 0-.01 0-.03.01-.04h.01c.01.01.02.01.02.02 0 0 .02 0 .04-.01h.02c.01.01.01.01.02.01v.01c-.04.04-.03.08.02.09-.02.04-.1.03-.09-.04-.05.09.04.15.11.12 0 .03 0 .09.01.09 0 0 .01-.02.02-.02s.01 0 .01.01c0 .02.01.05.04.05 0-.01 0-.02.01-.03.01.02.03.04.04.06.04.07.11.23.28.31-.08.05-.14.12-.2.19-.05.05-.12.1-.16.07-.02-.01-.02-.03-.05-.05-.02-.01-.04-.02-.05-.01 0 0-.02.01-.03.01a.08.08 0 0 0-.09.03c.02 0 .04-.01.06.01v.03c0 .02.02.04.1.04 0 0 .01 0 .01.01-.01.01-.02.02-.05.01-.04-.01-.06-.04-.09-.01l-.02.02h-.01c-.03.01-.07.08-.03.11 0-.01 0-.04.03-.05l.02.02c.02.04.05.06.11-.03.01-.01.01 0 .01 0 0 .04-.04.1.01.11h.02v.01c.01.05.07.06.1.05-.02-.01-.04-.02-.05-.06h.03c.03-.03-.01-.07.01-.09 0-.01.01-.01.01 0 .01.02.04.06.08.03.02-.01.03-.04.03-.06.06-.02.11-.04.15-.03-.01-.03.03-.07.09-.09.06-.02.09 0 .11.02.01-.03.03-.07.06-.11-.01.25.33.24.41.39-.1-.04-.21-.07-.28-.05-.08.02-.22.09-.24.18-.01.08.06.21.14.27-.1.02-.13-.01-.22.01h-.01c-.07.01-.09-.13-.18-.09-.01 0-.02.01-.02.02-.04 0-.08.04-.08.08.01-.01.03-.03.06-.03v.02c0 .01 0 .03.03.03.02 0 .02-.01.04-.01.01 0 .01 0 .01.01 0 .03-.11-.02-.09.08 0 0 .01.02.02.03 0 .03.02.06.07.04-.01-.01-.03-.02-.02-.04h.02c.01 0 .01 0 .01-.01h.01c.01 0 .01.01.01.01s-.01.01-.01.02c0 0 0 .02.01.03 0 .03.05.07.09.03-.01 0-.05-.01-.05-.02.01 0 .02-.01.02-.01.01-.01.01-.02.01-.03 0-.01 0-.01.01-.01h.02c.01 0 .01 0 .02.01.01.02.04.04.07.03.02-.01.03-.02.03-.02.01.01.03.01.04.02-.01-.04.02-.06.09-.01l.06-.04s.07.03.1 0c.05-.04.02-.04.02-.08-.03-.07-.05-.07-.07-.14-.02-.12.15-.19.25-.17.02.08.13.28.31.35.11.04.16-.09.2-.07.01 0 .01.01.02.03-.01.06 0 .11-.01.13-.01.03-.07 0-.12 0-.02 0-.04.01-.04.02-.04.01-.08.04-.07.08.01-.01.04-.03.06-.03v.02c.01.05.06.06.09.03 0-.01.02 0 .01.01-.03.02-.08.07-.04.09l.02.01c0 .03.02.06.05.06-.01-.02-.01-.03 0-.06h.02c.03 0 .02-.06.05-.08h.01c-.01.04-.02.08.01.09 0 0 .01 0 .03.01.01.03.04.05.09.02-.01-.01-.03-.01-.04-.03.01-.01.02-.03.02-.03.02-.07-.04-.08-.04-.11 0-.04.08-.01.08-.09v-.01c.04-.02.07-.04.08-.07-.04 0-.09-.01-.09-.02.09-.07.13-.11.15-.15zm-4.91.17c0 .15.84.05 1.11.05.27 0 .36.05.36.14 0 .1-.28.13-.44.15.16.01.21.03.29.02.05-.01.05.02.05.03 0 .05.06.02.07 0 .01.04-.01.06-.02.07-.01 0 0 .01 0 .01.01.03-.01.07.04.07-.01.02-.03.02-.05.02.02.01.03.03.03.04 0 .07-.07.05-.07.08s.06.03.04.09c0 0-.01.02-.02.03l.03.03c-.04.02-.07 0-.08-.02-.01 0-.02-.01-.02-.01-.03-.01-.02-.05-.01-.08 0 0 0-.01-.01 0-.03.01-.02.07-.05.07h-.02c-.01.03-.01.04 0 .05-.02 0-.04-.03-.04-.06-.01-.01-.02-.01-.02-.01-.04-.01.01-.06.03-.08.01-.01 0-.01-.01-.01-.03.03-.07.01-.08-.03v-.01c-.02 0-.05.02-.06.03 0-.04.03-.06.07-.07 0 0 .02-.02.04-.02.04 0 .09.02.1 0 .01-.03-.01-.03.01-.1 0-.02-.01-.03-.03-.03-.02 0-.09-.02-.15.01-.05.03-.09.05-.21.05-.07 0-.12-.02-.17-.04.03.04 0 .08.02.09.05.03.05.11.04.13-.01.02-.08.02-.12.01h-.03c-.05.01 0 .06-.06.08-.03.01-.06-.01-.07-.03 0 0 0-.01-.02-.01h-.02s-.01 0-.01.01 0 .03-.01.03c0 0-.01 0-.02.01 0 .02.03.02.05.02-.05.03-.09 0-.09-.03l-.01-.03c0-.01.01-.01.01-.02 0 0 0-.01-.01-.01l-.01.01c0 .01-.01.01-.01.01h-.02c0 .01.02.03.02.03-.05.01-.07-.01-.07-.04a.144.144 0 0 1-.02-.03c-.02-.09.09-.04.09-.07 0-.01 0-.01-.01-.01s-.02.01-.03.01c-.03 0-.03-.01-.03-.03v-.02c-.03 0-.04.02-.05.03-.01-.04.04-.08.07-.08.01 0 .02-.01.02-.02.09-.03.09.14.17.09.01-.01.04-.01.07-.02 0 0 .01 0 0-.01a.18.18 0 0 0-.09-.04c-.05-.01-.05-.09-.03-.14-.02.02-.03.03-.06.03-.52-.05-.27.2-.71.14-.03-.01-.02.06-.1.05-.01 0-.03.01-.04.01 0 .01 0 .02-.01.04l-.12.05.01-.01c-.03.02-.07.04-.1.04.02-.01.03-.03.03-.04 0-.01 0-.01-.01 0-.08.05-.22-.01-.23.11-.03-.03-.01-.07-.03-.07-.01 0-.02.02-.02.02-.01-.01-.01-.03-.01-.05 0 0 0-.01 0 0-.05.01-.08.01-.1 0 0-.01-.01-.02-.02-.03-.01.05-.06.07-.08.08.03-.03.03-.06.02-.08l-.03.03c0-.02-.01-.04-.02-.05 0 0-.01 0 0 0 0 .02-.02.06-.06.07-.05.01-.06-.04-.06-.06 0-.01-.01-.01-.01-.01-.02.01 0 .06-.04.08 0 0-.01 0-.02-.01 0 .03.01.06.03.07-.03 0-.08-.03-.07-.08v-.01c-.01-.01-.02-.01-.02-.01-.04-.03.01-.06.03-.1 0 0 0-.01-.01-.01-.08.06-.1.02-.11-.02 0 0 0-.02-.01-.02-.02 0-.04.03-.04.04-.02-.04.03-.09.06-.08h.01c.01-.01.02-.01.03-.01.04-.02.04.01.07.04.02.01.03.01.04 0 .01 0 0-.01 0-.01-.08-.03-.08-.05-.08-.07l.02-.02c-.02-.03-.03-.03-.05-.03.02-.01.07-.01.09.01h.03c.01 0 .03.01.04.03.02.03.01.04.02.06.04.05.16.01.21-.02.03-.02.21-.01.22-.01.01 0-.02-.06-.03-.11-.01-.01-.02-.02-.02-.03-.01.03-.04.03-.06.03-.11-.06-.16-.16-.18-.16-.01 0-.02.01-.01.03-.03-.01-.04-.03-.04-.05v-.01c-.01 0-.02.01-.02.02-.01 0-.02-.01-.02-.03 0 0 0-.01-.01 0-.07.04-.17-.02-.12-.11 0 .07.1.09.1.01 0-.01 0-.01-.01-.01-.05-.01-.06-.05-.02-.09v-.01c-.01-.01-.01-.01-.02-.01h-.02c-.02.01-.03.02-.03.01l-.02-.02h-.01c-.02 0-.02.03-.01.04-.04-.02-.04-.06-.01-.07v-.02c0-.03.03-.06.09-.03h.01v-.01c0-.01 0-.01-.01-.01-.04 0-.06-.01-.06-.05 0 0 .01-.03.01-.04-.01-.01-.02-.01-.03-.01.04-.04.08-.01.08.02v.01h.02c.03 0 .05.05.06.08 0 .01 0 .01.01 0v-.03c-.02-.01-.01-.03 0-.05 0 0 .01-.02.02-.03 0-.03-.02-.04-.03-.05.02-.01.06.02.07.05.01.01.01.04.01.04 0 .04-.02.09-.02.13 0 .06 0 .08.06.11.07.04.1.11.15.12.02 0 .03 0 .05.01h.04l.03.01c0-.03 0-.06.01-.08l-.03-.03c.03 0 .04-.06.07-.11-.01 0-.02-.01-.03-.04.03.01.06-.07.1-.07-.01-.04-.01-.07.01-.1.02 0 .05.01.06.03 0-.02.03-.02.05-.02 0 0 .04-.01.05-.01.01 0 .04 0 .08.02s.07.04.08.05c.01.01.01.04.02.05.01.01.03.03.02.05.02 0 .05.01.07.03 0 .03-.02.05-.06.07.04.05-.05.14-.06.2.35-.11 1.24.01 1.45.01.13 0 .35-.01.35-.08 0-.04-.05-.07-.28-.07-.23 0-1.18.16-1.18-.11 0-.15.31-.12.57-.12l.02-.02c.14-.09.48.04.6-.04-.01.04-.17.07-.32.07.26.05.52-.14.72.04-.25-.08-.61.15-.96.05-.03-.01-.05-.02-.06-.04-.19.05-.47.01-.47.11zm-.68-.12c.03.04 0 .05.03.07.02.02.05 0 .07-.02-.02 0-.07-.03-.1-.05zm.16.19c0-.01-.01-.02-.02-.02l-.09-.04c-.01-.01-.02-.01-.03 0-.01 0-.02.01-.02.02s.02-.01.04 0c.01.01 0 .02-.02.02.02.01.04.02.03.04-.01.02-.02.02-.04.02-.01 0-.02.01-.03.03-.01.02-.02.05.02.07.03.01.05-.01.06-.03.01-.02.01-.03.01-.04-.01-.01-.02-.03-.01-.04.01-.02.03-.01.05 0-.01-.02-.01-.03 0-.03.02 0 .02.03.03.03.02-.01.02-.03.02-.03zm.11-.06c-.03-.01-.09-.03-.11-.04 0 .03.01.07.04.07.03-.01.02-.02.07-.03zm2.57-12.66v.73h.71a.894.894 0 0 0-.71-.73zm1.34 1.84a.29.29 0 1 0 0-.58.29.29 0 0 0 0 .58zm-1.03 1.58V4.6c-.1.05-.21.08-.33.1v1.23h.33zm-2.19 7.98c0 .16.64.05.93.05.28 0 .38.06.38.14 0 .1-.28.15-.46.15.16.01.22.03.31.02.05-.01.05.02.05.03.01.05.06.02.08 0 .01.04-.01.06-.02.07v.01c.01.03-.01.07.04.07-.01.03-.03.02-.05.02v.01c.02.01.03.03.03.04 0 .07-.07.05-.07.08s.06.03.04.1c0 .01-.01.02-.02.03 0 .01.03.02.03.03-.04.02-.07 0-.08-.02h-.02c-.03-.01-.02-.05-.01-.08 0 0 0-.01-.01 0-.03.02-.02.07-.05.07h-.02c-.01.03-.01.04 0 .06-.02 0-.05-.03-.04-.06-.01 0-.02-.01-.02-.01-.04-.01.01-.06.03-.08.01-.01-.01-.01-.01-.01-.03.03-.08.02-.09-.03v-.02c-.03.01-.05.02-.06.03 0-.04.04-.07.07-.07 0-.01.02-.02.04-.02.04 0 .09.02.11 0 .02-.03-.01-.04.01-.1 0-.02-.01-.03-.03-.03-.02 0-.09-.02-.16.01-.06.04-.09.06-.22.06-.07 0-.12-.02-.18-.04.03.04 0 .08.03.09.05.03.06.11.05.14-.01.02-.08.02-.13.01h-.04c-.05.01 0 .07-.06.09-.03.01-.06-.01-.07-.03 0 0-.01-.01-.02-.01h-.02s-.01 0-.01.01 0 .03-.01.03c0 0-.01.01-.02.01 0 .02.04.02.05.02-.05.04-.1 0-.09-.04-.01 0-.01-.03-.01-.03v-.02c0-.01 0-.01-.01-.01 0 .01-.01.02-.01.02h-.02c0 .02.01.03.02.03-.05.02-.07-.01-.07-.04a.144.144 0 0 1-.02-.03c-.02-.1.09-.04.09-.07 0-.01 0-.01-.01-.01s-.02.01-.03.01c-.03 0-.04-.02-.03-.03v-.02c-.03 0-.05.02-.06.03-.01-.04.04-.08.08-.08.01 0 .02-.01.03-.02.09-.04.09.15.18.09.01-.01.05-.01.08-.02 0 0 .01 0 0-.01a.18.18 0 0 0-.09-.04c-.05-.01-.05-.12-.02-.17-.02.02-.07.05-.1.04-.4-.07-.23.18-.48.15-.02 0-.05 0-.08.01l-.01.01c-.03.06-.16.17-.23.15.02-.01.03-.03.03-.04 0-.01 0-.01-.01 0-.08.05-.15 0-.16.13-.03-.03-.02-.08-.03-.08-.01 0-.02.02-.02.03-.01-.01-.01-.03 0-.05 0 0 0-.01-.01-.01-.05.01-.08.01-.1 0h-.01c0-.01-.01-.02-.02-.03-.01.05-.06.08-.08.08.03-.03.03-.06.02-.09-.01.02-.03.03-.04.03.01-.02-.01-.04-.02-.05 0 .03-.02.06-.07.07-.05 0-.06-.04-.06-.06 0 0 0-.01-.01 0-.02.01 0 .07-.05.08 0 0-.01 0-.02-.01-.01.04.01.06.03.07-.03 0-.08-.04-.07-.08v-.01c-.01-.01-.02-.01-.02-.01-.04-.03.01-.06.03-.1 0 0 0-.01-.01 0-.09.06-.11.02-.11-.02 0-.01-.01-.02-.01-.03-.03.01-.04.03-.05.04-.02-.04.03-.09.07-.08h.01c.01 0 .02-.01.03-.01.04-.02.04.01.08.04.02.01.03.01.05.01.01 0 0-.01 0-.01-.09-.03-.09-.06-.08-.07 0 0 .01-.02.01-.03-.02-.03-.03-.03-.05-.03.02-.01.07-.01.09.01h.03c.01 0 .03.01.04.03.02.03.01.05.03.07.04.05.17.01.22-.02.04-.02.18-.01.2-.01.01 0-.04-.06-.03-.12-.04.03-.07-.02-.13-.05-.06-.04-.1-.1-.11-.1-.01 0-.02.02-.01.03-.03 0-.04-.03-.04-.05v-.01c-.01 0-.02.01-.02.02-.02 0-.02-.01-.02-.03 0 0-.01-.01-.01 0-.08.05-.18-.02-.12-.12-.01.08.1.1.11.01 0-.01 0-.01-.01-.01-.06-.01-.06-.05-.02-.09 0 0 .01-.01 0-.01-.01-.01-.01-.01-.02-.01-.01-.01-.01 0-.02 0-.02.01-.03.02-.04.01l-.02-.02h-.01c-.02.01-.02.03-.02.04-.04-.03-.03-.06-.01-.08v-.03c0-.03.03-.06.09-.03h.01v-.02l-.01-.01c-.04 0-.07-.01-.06-.05 0 0 .01-.03.01-.04-.01-.01-.02-.01-.03-.01.05-.04.09-.02.08.02v.01h.02c.03 0 .05.05.06.09 0 0 0 .01.01 0v-.03c-.02-.02-.01-.04 0-.05 0 0 .01-.02.02-.03 0-.03-.02-.04-.03-.05.03-.01.07.02.07.05 0 .01.01.04.01.04 0 .04-.02.09-.03.14 0 .06 0 .08.05.12.05.03.09.08.12.11l.03.01c-.01 0-.02 0-.03-.01.01 0 .02.01.02.01h.02l.06.02c0-.03 0-.07.01-.11-.01 0-.03-.01-.05-.04.03 0 .05-.06.07-.11-.01 0-.02-.01-.03-.04.03.01.07-.08.1-.08-.01-.04-.01-.07.01-.1.02 0 .05.01.07.03 0-.02.03-.02.05-.02 0 0 .04-.01.05-.01.02 0 .04 0 .09.02.04.02.07.04.08.06.01.01.02.04.02.05.02.01.03.03.02.05.02 0 .05.01.07.03 0 .03-.02.06-.06.07.04.04-.03.12-.06.19.38-.07 1 .03 1.21.03.13 0 .37-.02.37-.08 0-.05-.05-.07-.29-.07s-1 .17-1-.12c0-.13.16-.13.37-.13.01-.01.02-.01.02-.02.15-.09.39.03.52-.05-.01.04-.06.09-.23.09.28.06.5-.14.76.05-.22-.06-.65.13-1.02.02a.163.163 0 0 1-.06-.03c-.15.04-.28.04-.28.12zm-.63-.14c.03.05 0 .05.03.08.03.02.06 0 .07-.02-.02-.01-.07-.04-.1-.06zm.16.2c0-.01-.01-.02-.02-.02l-.09-.04c-.01-.01-.02-.01-.03 0-.01.01-.02.01-.02.02s.02-.01.04 0c.01.01 0 .02-.02.03.02.01.04.02.03.05-.01.02-.02.02-.04.02-.01 0-.02.01-.03.04-.01.02-.01.05.02.07.03.02.06-.01.06-.03.01-.02.01-.04.01-.05-.01-.01-.02-.03-.01-.04.01-.02.03-.01.05 0-.01-.02-.01-.03.01-.03s.02.03.02.03c.03-.03.02-.04.02-.05zm.12-.07c-.03-.01-.1-.03-.11-.04 0 .03.01.07.04.07.03.01.02-.02.07-.03zm2.46 12.94a.427.427 0 0 1-.4.58.427.427 0 0 1-.4-.58c-.56-.03-.47-.97-.66-.97-.09 0-.16.14-.23.31-.14-.16-.31-.42-.31-.7a.622.622 0 0 1 .81-.59v-1.33c.56.14 1.12.22 1.59.24v1.09c.06-.02.12-.03.18-.03.38 0 .62.32.62.62 0 .28-.16.54-.31.7-.08-.18-.14-.31-.24-.31-.19 0-.1.95-.65.97zm-.17.15c0-.13-.11-.24-.24-.24s-.24.11-.24.24.11.24.24.24c.14 0 .24-.11.24-.24zm.82-1.32c.08 0 .18.07.24.19.07-.14.12-.28.12-.38 0-.18-.14-.43-.43-.43-.5 0-.38.67-.62.67-.11 0-.18-.06-.18-.17 0-.19.35-.37.35-.65 0-.27-.25-.51-.53-.73-.28.22-.53.45-.53.73 0 .28.35.46.35.65 0 .1-.08.17-.18.17-.24 0-.12-.67-.62-.67-.29 0-.43.25-.43.43 0 .1.04.24.12.38.06-.12.16-.19.24-.19.37 0 .23.98.67.98.19 0 .3-.12.3-.26s-.1-.18-.1-.29c0-.11.09-.15.18-.15.1 0 .18.04.18.15 0 .11-.1.15-.1.29 0 .14.1.26.3.26.44 0 .29-.98.67-.98zM25.91 5.93V4.7a1.19 1.19 0 0 1-.32-.1v1.33h.32zm-1.47 6.56c.02 0 .04.01.06.02 0-.02.02-.02.04-.02 0 0 .03-.01.05-.01.01 0 .04 0 .07.02.04.02.06.04.07.05.01.01.01.04.02.04.01.01.03.03.02.04.02 0 .04.01.06.03 0 .02-.02.05-.05.06.04.05-.06.15-.06.2.31-.08.43.04.6.04.22 0 .36-.05.36-.13 0-.22-.81-.01-.81-.32 0-.05.03-.08.09-.12-.01-.02 0-.04.01-.06.09-.11.24-.12.31-.21.01.03-.02.13-.1.17.15-.01.2-.28.54-.24-.29.06-.29.33-.69.37h-.01c-.04.03-.06.06-.06.09 0 .2.8 0 .8.32 0 .09-.14.19-.43.18-.02 0-.01.01 0 .01.14.01.18.05.25.04.04-.01.05.02.05.02 0 .04.05.02.07 0 .01.04-.01.05-.02.06-.01.01-.01.01 0 .01.01.02-.01.06.04.06-.01.02-.02.02-.04.02.02.01.02.03.02.04 0 .06-.06.04-.06.07 0 .02.05.03.03.09 0 0-.01.02-.02.03.01.01.02.02.03.02-.03.02-.06 0-.07-.02-.01 0-.02-.01-.02-.01-.03-.01-.02-.04-.01-.07-.03.01-.02.06-.04.06h-.02c-.01.03-.01.03 0 .05-.02 0-.04-.03-.04-.05-.01 0-.02-.01-.02-.01-.03-.02.01-.05.03-.07.01-.01-.01-.01-.01-.01-.02.03-.07.01-.07-.03v-.01c-.02 0-.04.02-.05.02 0-.03.03-.06.06-.06 0 0 .02-.02.03-.01.03 0 .08.02.09 0 .01-.03-.01-.03.01-.09 0-.02-.01-.02-.02-.03-.02 0-.08-.02-.13.01s.06.05-.05.05c-.06 0-.11-.02-.15-.04.03.04 0 .07.02.08.04.03.05.1.04.12-.01.02-.07.02-.11.01h-.03c-.04.01 0 .05-.05.07-.03.01-.05-.01-.06-.03L25 13.4h-.02s-.01 0-.01.01 0 .02-.01.03c0 0-.01.01-.02.01 0 .01.03.02.04.02-.04.03-.09 0-.08-.03l-.01-.02c0-.01.01-.01.01-.02 0 0 0-.01-.01-.01 0 .01-.01.01-.01.01h-.02c0 .01.01.02.02.03-.04.01-.06-.01-.06-.04-.01-.01-.01-.02-.01-.02-.02-.08.08-.03.08-.06 0-.01 0-.01-.01-.01s-.02.01-.03.01c-.02 0-.03-.01-.03-.02v-.02c-.02 0-.04.02-.05.03-.01-.03.04-.07.07-.07.01 0 .02-.01.02-.01.08-.03.08.13.15.08.01-.01.04-.01.07-.02 0 0 .01 0 0-.01a.133.133 0 0 0-.08-.03c-.05-.01-.05-.1-.02-.15-.02.02-.07.04-.09.03-.31-.02-.07.09-.22.12-.03.01-.1.09-.17.08.02-.01.01-.04 0-.05-.01.03-.05.04-.08.03-.02.01-.04.03-.04.04 0 .04-.06.06-.08.06.02-.01.02-.02.03-.03 0-.01 0-.01-.01 0-.07.04-.13 0-.13.11-.03-.03-.01-.07-.03-.07l-.02.02a.03.03 0 0 1 0-.04s0-.01-.01-.01c-.04.01-.07.01-.09 0 0-.01-.01-.02-.01-.02-.01.05-.05.07-.07.07.03-.03.02-.05.02-.07-.01.02-.02.03-.03.03.01-.02-.01-.04-.02-.05v.01c0 .02-.02.05-.06.06-.04 0-.05-.04-.05-.05 0-.01 0-.01-.01 0-.02.01 0 .06-.04.07 0 0-.01 0-.02-.01-.01.03.01.05.02.06-.02 0-.07-.03-.06-.07v-.01c-.01-.01-.02-.01-.02-.01-.04-.02.01-.06.03-.09 0 0 0-.01-.01 0-.07.05-.09.02-.1-.02 0 0 0-.01-.01-.02-.02 0-.03.02-.04.03-.02-.04.03-.07.06-.07h.01c.01-.01.02-.01.02-.01.03-.02.04.01.07.03.01.01.03.01.04 0 .01 0 0-.01 0-.01-.07-.02-.08-.05-.07-.06l.01-.02c-.01-.02-.03-.02-.04-.03.02-.01.06-.01.08.01h.03c.01 0 .02.01.04.03.01.02.01.04.02.06.03.05.15.01.19-.02.03-.02.13-.01.14-.01.01 0 .12-.02.18-.05-.04-.05-.06-.1-.07-.1-.01 0-.02.01-.01.03-.03 0-.03-.03-.03-.04v-.01c-.01 0-.02.01-.02.01-.01 0-.02-.01-.02-.02h-.01c-.08.04-.16-.02-.1-.09-.02.06.08.08.09.01 0-.01 0-.01-.01-.01-.05-.01-.05-.04-.01-.08v-.01c-.01 0-.01-.01-.02-.01h-.01c-.02.01-.03.01-.04.01l-.01-.01h-.01c-.02.01-.02.02-.02.03-.04-.02-.02-.05 0-.06v-.02c.01-.02.03-.05.09-.02h.01v-.01h-.01c-.03 0-.06-.01-.05-.04 0 0 .01-.02.01-.03-.01-.01-.02-.01-.03-.01.05-.03.08-.01.07.02v.01h.02c.03 0 .04.04.04.07 0 0 0 .01.01 0 0-.01.01-.01.01-.02v-.01c-.01-.01-.01-.03.01-.04l.02-.02c0-.03-.01-.03-.02-.04.02 0 .06.02.06.04 0 .01.01.03.01.04 0 .04-.03.07-.04.11-.01.05-.01.07.04.1.03.01.05.03.06.05.01-.04.02-.12.04-.18l-.02-.02c.03 0 .04-.05.06-.1-.01 0-.02-.01-.03-.03.03.01.06-.07.09-.07-.07-.04-.07-.06-.05-.08zm.18.16c-.01.03.01.06.03.06.03 0 .02-.02.06-.03-.02 0-.08-.03-.09-.03zm-.14-.08c.02.04 0 .05.02.07.02.02.05 0 .06-.02-.01-.01-.06-.03-.08-.05zm-.01.24c-.01.02-.01.05.01.06.03.01.05-.01.06-.03.01-.02.01-.03.01-.04-.01-.01-.01-.02-.01-.04.01-.02.02-.01.04 0-.01-.02-.01-.03 0-.03s.01.03.02.03 0-.02.01-.03c0-.01-.01-.01-.02-.02l-.08-.04c-.01-.01-.02-.01-.02 0-.01.01-.02.01-.02.02.01.01.02-.01.03 0 .01.01 0 .01-.02.02.02.01.03.02.03.04-.01.02-.01.02-.03.02 0 .01 0 .03-.01.04zm2.17-8.43a.29.29 0 1 0 .58 0 .29.29 0 0 0-.58 0zm-.74-1.87c-.36.07-.65.36-.71.73h.71v-.73zm-.67 2.15a.29.29 0 1 0-.29-.29c0 .17.13.29.29.29zm.35-2.27h1c-.21-.16-.37-.39-.4-.64.24.04.5.21.66.42v-.99c-.16.2-.42.38-.66.42.03-.24.18-.46.38-.71h-.96c.2.25.35.47.38.71-.24-.04-.5-.21-.66-.42v.99c.16-.2.42-.37.66-.42-.03.25-.19.48-.4.64zm3.99 13.28c.09.01.11-.1.04-.15.13 0 .18.11.16.17-.02.04-.06.07-.13.06.04.04.07.1.07.18-.08 0-.14-.03-.18-.06.01.07-.02.11-.06.13-.06.03-.17-.02-.18-.15.05.06.15.04.14-.04h-1.31c.02.08.01.17-.07.26a.267.267 0 0 1-.07-.26h-1.17c0 .08.1.1.15.03 0 .13-.11.18-.17.15-.04-.02-.07-.06-.06-.13-.04.04-.1.07-.18.07 0-.08.03-.14.07-.18-.07.01-.11-.02-.13-.06-.03-.06.03-.17.15-.17-.07.05-.05.15.04.14v-1.68c-.08.02-.17.01-.26-.07.08-.08.18-.09.26-.07V12.3c-.08-.01-.1.09-.04.14-.13-.01-.17-.13-.14-.19.02-.03.05-.05.11-.05a.288.288 0 0 1-.06-.19c.08.01.14.05.18.1.01-.06.04-.09.07-.1.06-.02.17.04.16.16-.04-.07-.14-.06-.15.02.33.09.65.23.96.44.32.21.61.48.86.8.03.04.06.07.09.11.05-.07.13-.13.26-.11-.02.12-.09.18-.17.21l-.01.01c.41.6.68 1.3.77 2.02zm-.32-.18c.06 0 .11.01.15.04-.09-.57-.3-1.12-.6-1.61-.04.02-.08.02-.11 0-.04-.02-.06-.07-.04-.13-.05.03-.11.05-.19.04a.28.28 0 0 1 .09-.17c-.07 0-.11-.04-.12-.08-.01-.03 0-.08.04-.11-.23-.28-.5-.53-.79-.72-.24-.16-.5-.29-.77-.37.03.04.05.1.04.17a.339.339 0 0 1-.15-.06v1.16c.06-.01.12.02.14.06.01.04.01.09-.05.13.06 0 .12.02.18.08-.06.05-.12.08-.18.08.06.05.06.09.05.13-.01.04-.07.07-.14.06v1.37c.04-.04.1-.06.17-.06 0 .07-.03.13-.06.17h.85c-.01-.06.03-.12.07-.13.04-.01.09-.01.14.05 0-.06.02-.12.08-.17.05.06.08.12.08.17.05-.05.09-.06.13-.05.04.01.07.07.07.13h1a.302.302 0 0 1-.08-.18zm-5.59-9.11c.02.25.28.42.4.67.11-.29.3-.5.27-.73-.02-.23-.33-.53-.38-.69-.17.32-.32.5-.29.75zm3.31-2.79h-1.78c.1.41.46.71.89.71s.8-.3.89-.71zm-13.14.6c-.11 0-.21.09-.21.21 0 .11.09.21.21.21s.21-.09.21-.21c-.01-.12-.1-.21-.21-.21zM41.98 22.3c.05.08.08.18.08.28 0 .04 0 .07-.01.11a.73.73 0 0 1-.34.47c-.15.1-.33.15-.49.13a.552.552 0 0 1-.41-.23c-.02-.02-.03-.05-.04-.07.01.19.02.38.02.56.01.46-.12.66-.32.77-.01-.07-.15-.21-.33-.21-.14 0-.25.1-.25.2 0 .21.25.19.25.5 0 .32-.73.73-1.19.65.07-.16.17-.67.31-1.02-.14.08-.26.3-.37.62-.13.38-.31.37-.47.27.15-.17.49-.95.85-1.21.36-.25.53-.34.63-.94.09-.6-.01-.96-.02-1.48-.02-.7-.31-.54-.52-.54-.48 0-2.25-1.14-2.25-2.3 0-.11.01-.23.02-.36-.81-.01-1.26.21-1.26.96 0 .26.03.51.22.66.17.14.25.26-.03.39-.31.14-2.79 1.16-2.79 1.16-.31.12-.36-.01-.49-.16s-.27-.23-.43-.12c-.16.11.12.23.12.4s-.08.59-1.21.52l.27-.45c.08-.15.12-.26.05-.27-.06-.01-.13.11-.23.25l-.33.42c-.18.01-.37-.03-.37-.03.43-.43.67-.66.91-.9s.52-.35 1.02-.42c.59-.09 2.52-.35 2.52-.97 0-.72-.81-.67-.81-1.62 0-.84.36-1.74 2.67-1.7-.2-.54-.78-.95-1.34-1.09-1.15-.29-1.49-1.07-1.58-1.89-.32-.01-.64-.03-.88-.05-.71-.05-1.07-.26-1.24-.12-.07.06-.13.16-.03.33s.34.59.53.88c.14.02.36.04.39.22.03.18-.11.21-.14.3-.03.08.03.16.13.16.09 0 .15-.08.13-.15.1-.07.34-.07.57-.01.18.19.48.53.56.84-.28-.11-.67-.25-.81-.25s-.11.05.01.09c.12.04.43.16.53.26l-.02.32c-.07-.07-.62-.39-.95-.53-.33-.13-.53-.2-.7-.61-.17-.41-.68-1.33-.89-1.68-.14-.24-.09-.33-.02-.41.07-.08.13-.18.19-.26.14-.21.18-.16.38-.15.2.02.65.03.86-.05.05-.02.1-.04.15-.05-.47-.52-1.04-1.26-1.1-1.35-.09-.13-.21-.2-.3-.2s-.19.01-.26.07c-.03.03-.07.06-.12.09l-.13-.16c-.08-.09-.17-.18-.26-.27.18-.14.34-.26.4-.31.12-.1.18-.18.28-.18s.25.01.31.01c.16 0 .23.04.3.13.17.19.46.4.69.58.02.02.05.04.07.06.02-.03.04-.05.06-.07.1-.09.22-.13.34-.13.12.01.24.06.32.16a.692.692 0 0 1 .12.68c.18.15.34.29.51.47.08-.63.41-1.25.83-1.8l-.06-.04.04-.11c.09-.29.25-.78.32-1.02.03-.1.04-.12.04-.13l.05-.15.7.27c.02-.02.04-.04.07-.06.61-.58 2.11-.98 2.11-1.82 0-.2-.07-.47-.28-.64.1.13.11.31.09.5-.03.23-.37.71-.96.71-.32 0-.55-.31-.67-.31-.07 0-.16.05-.25.13.03.44-.16.67-.34.71.07-.18.01-.49-.04-.45-.05.04-.12.1-.13.35-.01.25-.23.58-.57.62.07-.1.18-.51.11-.58-.07-.06-.18.12-.27.12-.09 0-.16-.09-.17-.19-.01-.09-.19 0-.22-.08s.2-.25.42-.34c.22-.08.54-.24.49-.35-.1-.22-.74.13-1.03.3-.44.26-.24-.1-.31-.24-.16-.38-.02-.42.17-.59.24-.22.74-.56 1.29-.84 0-.19.12-.34.26-.39.23-.09.46-.18.68-.26l-3.01-3.76c-.07-.07-.07-.13-.04-.17.03-.04.09-.01.19.08l3.51 3.43c.08-.23.16-.51.08-.82.42.2.8.63.86 1.03 1.08-.02 1.37.66 1.69.42.05.16-.14.34-.44.4 1.24.32.92 1.22 1.63 1.32-.11.13-.28.18-.53.09.78 1.14 0 1.87.6 2.4-.23.07-.54-.12-.76-.49.23.94-.12 1.45.05 1.83-.26.07-.46-.16-.54-.53-.05.21-.12.39-.19.57l.29.23-.11.12-.03.03c-.47.5-.69.74-.8.86l-.08.09s-.09-.05-.1-.06c-.31.38-.55.69-.55 1.05 0 .41.54 1.14 1.12 1.9a.672.672 0 0 1-.04-.24v-.02c0-.14.06-.27.16-.36.1-.09.23-.14.37-.14.19 0 .38.1.53.25.14.15.22.34.22.52v.02c-.01.14-.06.27-.16.36-.1.09-.23.14-.37.14a.67.67 0 0 1-.4-.14c.41.54.8 1.05.99 1.43.38.79.74 1.3 1.2 1.3.51 0 .96-.37.96-.97 0-2.04-2.69-2.24-2.69-4.55 0-1.07.93-1.59 1.47-1.59.36 0 .61.1.83.32.06-.01.13-.02.21-.02 1.27 0 .47 1.69 1.46 1.8-.44.21-1.02-.08-1.32-.88.07 1.54 2 1.19 1.71 2.33-.03-.76-2.63-.68-2.7-2.26-.01-.32.08-.59.25-.76a.678.678 0 0 0-.42-.13c-.45 0-1.1.48-1.1 1.22 0 2 2.68 2.26 2.68 4.46 0 .45-.17.87-.5 1.12.23.03.54-.1.7-.28-.23.85-1.11.87-1.38.53h-.12c-.07 0-.14-.01-.21-.02.17.35.44.69.83.63-.79.63-1.74-.22-1.6-1.09-.23-.26-.39-.58-.49-.81-.09-.2-.22-.08-.21.13.03.69-.52 1.34-.52 1.84s.52.98.69.98c.17 0 .3-.2.42-.15.12.05.11.21.08.57-.02.24.03.84.07 1.47.05-.17.16-.33.33-.43.18-.12.38-.16.57-.12.06.02.18.09.25.2zm-5.2-15.82c-.26-.08-.45-.3-.67-.3-.44 0-.31.36-.44.6.31-.17.69-.26 1.11-.3zm-3.47 5.15a.451.451 0 0 0-.1-.33.253.253 0 0 0-.16-.09c-.08 0-.14.03-.17.07-.08.07-.13.19-.14.31v.03c0 .2.12.37.27.38.07 0 .13-.03.17-.07.07-.06.12-.17.13-.3zm6.04 3.73c0 .13.05.27.16.37.1.11.24.18.37.18.06 0 .14-.01.21-.07.07-.06.08-.14.09-.2 0-.13-.05-.27-.16-.38a.566.566 0 0 0-.37-.18c-.06 0-.14.01-.21.07-.07.07-.09.15-.09.21zm-.67-2.83c.27-.3.83-.89.83-.89l-.34-.27c.02.13 0 .3-.04.47-.08-.06-.17-.2-.16-.33l-.27.34c.07 0 .26.02.34.11-.25.24-.45.12-.6.03-.23-.15-.33-.28-.27-.4.08-.14.34-.09.36.13.2-.09.23-.25.16-.37-.06-.1-.19-.12-.33-.08.31-.16.46-.43.39-.76-.35.07-.5.26-.58.6-.02-.14-.1-.27-.22-.28-.14-.01-.27.1-.26.31.21-.07.36.14.27.28-.09.13-.26.11-.49-.03-.26-.16-.29-.38-.16-.62.07.06.13.2.12.37l.3-.49c-.07.03-.2.05-.34 0 .08-.09.22-.24.42-.26l-.58-.34c.08.18.02.38-.02.49a.518.518 0 0 1-.17-.3l-.27.51c.14-.09.29-.11.38-.08-.14.23-.36.32-.62.17-.23-.13-.34-.26-.27-.41.07-.14.33-.13.38.1.19-.1.22-.26.14-.38-.06-.09-.21-.1-.35-.05.25-.24.35-.47.23-.81-.32.1-.48.37-.46.71-.02-.1-.11-.2-.23-.2-.14 0-.26.11-.24.33.21-.09.37.11.29.25-.07.11-.23.09-.48-.03-.15-.08-.36-.2-.27-.53.12.02.23.17.27.24l.16-.41c-.11.07-.28.07-.37.03.13-.12.27-.23.39-.28l-.41-.16-.36 1.16 3.73 2.13zm-.12 6.39c-.16-.11-.42-.04-.56.17-.15.21-.13.47.03.58.16.11.41.04.56-.17.14-.2.13-.46-.03-.58zm1.08-1.08c.15-.21.14-.47-.03-.58-.16-.12-.41-.04-.56.17-.15.21-.13.47.03.58.17.11.42.04.56-.17zm2.15 4.59a.27.27 0 0 0-.19-.12c-.12-.03-.27.01-.4.09-.12.08-.21.2-.24.33-.01.06-.02.14.04.22.1.16.37.17.58.03.12-.08.21-.2.24-.33.01-.06.02-.14-.03-.22zm-8.33-11.69c-.18-.23-.1-.59.18-.81.15-.12.34-.17.51-.15.13.02.24.08.32.18.08.1.11.22.09.35-.02.17-.12.34-.27.45-.28.22-.65.21-.83-.02zm.13-.29c0 .05.02.1.05.15.1.13.33.12.51-.02.1-.08.17-.19.19-.3a.25.25 0 0 0-.05-.19.285.285 0 0 0-.17-.09.486.486 0 0 0-.34.1c-.12.1-.19.24-.19.35zm.52 3.79c.05.14.04.28-.01.4-.06.12-.16.21-.3.26-.18.06-.39.05-.58-.05-.35-.17-.52-.53-.38-.82a.55.55 0 0 1 .3-.26c.18-.06.39-.04.58.05a.7.7 0 0 1 .39.42zm-.21.07a.528.528 0 0 0-.28-.29.52.52 0 0 0-.4-.04c-.06.02-.13.06-.17.14-.08.17.04.4.27.51.14.06.29.08.41.04.05-.02.13-.06.17-.14a.33.33 0 0 0 0-.22zm-2.5 13.74c.07-.27.11-.47.22-.71.08-.18.16-.32.23-.45.15-.28.27-.51.27-.83 0-.46-.27-.69-.57-.97-.1-.09-.2-.18-.31-.29.99.08 2.03.78 3.04 1.47.51.35 1.05.71 1.56.98.59.31 1.08.45 1.53.45.48 0 .91-.34 1.37-.7.33-.25.67-.52 1.06-.69.06-.02.08-.09.06-.15a.108.108 0 0 0-.14-.07c-1.28.37-2.86-.68-4.39-1.7-1.29-.85-2.5-1.66-3.55-1.66-.39 0-.73.08-1.02.24-.36.2-.64.52-.81.94-.18.43-.36.72-.51.95-.18.28-.31.48-.31.73 0 .2.09.39.27.57.15.15.36.29.67.46.07.03.13.06.2.1.25.12.41.21.44.35-.5.22-1.16.4-1.9.53-.84.15-1.75.22-2.72.22-.97 0-1.89-.07-2.72-.22-.74-.13-1.4-.31-1.9-.54.02-.21.18-.3.45-.43.07-.03.13-.06.2-.1.25-.13.49-.27.66-.41.18-.16.26-.33.26-.53 0-.25-.13-.45-.3-.73-.15-.23-.33-.52-.51-.95-.18-.42-.45-.74-.81-.94-.29-.16-.64-.24-1.02-.24-1.04 0-2.26.81-3.55 1.66-1.53 1.02-3.11 2.07-4.39 1.7a.108.108 0 0 0-.14.07c-.02.06.01.12.06.15.39.17.73.44 1.06.69.46.36.89.69 1.37.69.45 0 .94-.14 1.53-.45.51-.27 1.05-.63 1.56-.98 1.01-.69 2.05-1.39 3.04-1.47-.1.11-.2.2-.3.28-.29.26-.54.48-.54.94 0 .36.12.61.29.97.05.1.11.22.17.35.11.24.16.44.22.71.03.12.06.25.1.4.06.23.18.67.91 1.04.84.43 2.29.64 4.31.64 2.02 0 3.46-.22 4.31-.64.73-.37.84-.8.91-1.04.02-.14.05-.27.08-.39zm7.1-4.79a.515.515 0 0 1-.14-.45c.02-.13.1-.25.22-.33.15-.11.36-.15.57-.11.38.07.65.38.59.69-.03.16-.13.29-.29.37-.15.08-.33.1-.51.07a.797.797 0 0 1-.44-.24zm.09-.41c-.03.19.15.38.4.42.26.04.49-.07.53-.26v-.04c0-.17-.17-.34-.41-.38a.54.54 0 0 0-.4.07c-.04.04-.1.1-.12.19zm-.28-1.79c.1.13.15.31.15.49 0 .21-.08.41-.22.54-.11.1-.24.15-.37.15s-.26-.06-.36-.17a.74.74 0 0 1-.2-.53v-.02c0-.21.08-.4.22-.53.1-.1.24-.15.37-.15.16 0 .31.08.41.22zm-.08.49c0-.26-.15-.47-.34-.48a.34.34 0 0 0-.21.09.52.52 0 0 0-.15.37c0 .15.05.29.14.38.04.04.11.09.2.09.09 0 .16-.04.2-.09.11-.08.16-.22.16-.36zm-9.57 1.35c-.58.36-1.17.57-1.61.57-.51 0-1.17-.1-1.86-.29-.61-.17-1.17-.39-1.61-.62-.24.17-.5.2-.74.08-.3-.14-.5-.48-.5-.69 0-.04 0-.08.01-.12-.2-.18-.4-.37-.58-.58-.56-.63-1-1.37-1.31-2.19-.14-.38-.26-.78-.33-1.18.52.18.74 0 .89-.16.05.02.06.16.05.22.57-.01.9-.4.95-.69.05.35.14.69.26 1.03.21.58.51 1.1.89 1.55.13.16.27.3.42.43.09-.03.18-.05.28-.05.21 0 .42.1.57.28.16.18.24.41.21.61v.01c1.01.46 2.1.85 3.01 1.07.56.14 1.24.27 1.69.2l-.06.06c-.18.16-.4.32-.63.46zm-4.19-1.96a.674.674 0 0 0-.17-.35.61.61 0 0 0-.45-.22c-.36 0-.74.39-.85.5l-.03.03-.05-.01c-.09-.02-.19-.04-.28-.05.03.08.07.16.13.25l.03.04-.03.04c-.18.28-.28.55-.28.77 0 .14.16.42.41.54.16.08.33.07.5-.02-.09-.05-.21-.12-.29-.17l-.04-.03c-.07-.04-.16-.09-.18-.19-.01-.02-.01-.04-.01-.07 0-.09.04-.19.12-.33.02-.03.03-.05.05-.08.01-.02.02-.03.03-.05l.04-.07.07.04c.13.08.26.11.36.09.04-.01.08-.04.1-.07.05-.1.03-.26-.16-.41l-.07-.05.1-.11c.07-.08.13-.16.21-.22.16-.14.31-.14.48-.01l.1.07c.06.06.11.11.16.14zm.82 1.22a.39.39 0 0 0-.78 0c0 .21.18.39.39.39.21 0 .39-.18.39-.39zm1.67.56c0-.2-.16-.35-.36-.35-.2 0-.36.16-.36.35 0 .2.16.36.36.36.2-.01.36-.17.36-.36zm14.98-1.07a.9.9 0 0 1 1.8 0c0 .49-.4.89-.9.89-.5.01-.9-.39-.9-.89zm.23 0a.67.67 0 0 0 1.34 0c0-.37-.3-.66-.67-.66-.37 0-.67.3-.67.66zM21.48 5.45a.29.29 0 1 0 0-.58.29.29 0 0 0 0 .58zm.32-.66a.29.29 0 1 0 0-.58.29.29 0 0 0 0 .58zm.56-.5a.29.29 0 1 0 0-.58.29.29 0 0 0 0 .58zM17 3.18a.205.205 0 1 0 .29-.29.205.205 0 0 0-.29.29zm4.38 2.97a.29.29 0 1 0-.29-.29c0 .16.14.29.29.29zm5.83 14.02c.02-.01.02-.02.03-.03 0-.01 0-.01-.01-.01-.07.04-.13 0-.14.11-.02-.03-.01-.07-.02-.07s-.02.02-.02.02a.03.03 0 0 1 0-.04s0-.01-.01-.01c-.04.01-.07.01-.09 0 0-.01-.01-.02-.02-.02-.01.05-.05.07-.07.07.03-.02.03-.05.02-.07-.01.01-.02.03-.03.03.01-.02-.01-.04-.02-.04 0 0-.01 0 0 0 0 .02-.02.06-.06.06-.04 0-.05-.04-.05-.05 0 0 0-.01-.01 0-.02.01 0 .06-.04.07 0 0-.02 0-.02-.01-.01.03.01.05.02.06-.02 0-.07-.03-.06-.07v-.01c-.01 0-.02-.01-.02-.01-.04-.03.01-.06.03-.09 0 0 0-.01-.01-.01-.07.05-.09.02-.09-.02 0 0-.01-.01-.01-.02-.02.01-.03.02-.04.03-.02-.04.03-.08.06-.07h.01c.01 0 .02-.01.02-.01.03-.02.04.01.07.03.01.01.03.01.04 0 .01 0 0-.01 0-.01-.07-.03-.08-.05-.07-.06 0 0 .01-.01.01-.02-.01-.02-.03-.03-.04-.03.02-.01.06-.01.08.01h.03c.01 0 .03.01.04.03.01.02.01.04.02.06.02.02.05.02.08.02 0 0 0 .01-.01.01l.01-.01c.04-.01.09-.02.11-.04.03-.02.15 0 .16 0 .01 0-.02-.04-.03-.08-.05 0-.1-.03-.12-.09-.1-.06-.09-.16-.1-.16-.01 0-.01.01-.01.03-.03 0-.03-.03-.03-.04 0 0 0-.01-.01-.01s-.02.01-.01.02c-.01 0-.02-.01-.02-.02 0 0 0-.01-.01 0-.07.04-.16-.02-.11-.1 0 .07.09.08.09.01 0-.01 0-.01-.01-.01-.05-.01-.05-.04-.02-.08v-.01c-.01 0-.01-.01-.02-.01h-.01c-.02.01-.03.01-.03.01s-.01-.01-.02-.01h-.01c-.01 0-.01.02-.01.04-.04-.02-.03-.05-.01-.07v-.02c0-.02.02-.05.08-.03 0 0 .01 0 0 0v-.01c0-.01-.01-.01-.01-.01-.03 0-.06-.01-.05-.04 0 0 0-.02.01-.03 0-.01-.02-.01-.03-.01.04-.04.07-.01.07.02v.01h.02c.03 0 .04.04.05.08 0 .01.01.01.01 0v-.03c-.02-.01-.01-.03 0-.04l.02-.02c0-.02-.02-.03-.03-.04.02 0 .06.01.07.04 0 .01.01.03.01.04 0 .04-.02.08-.02.12 0 .05 0 .07.05.1s.13.15.18.21c-.01-.06 0-.14.01-.21-.01-.01-.02-.01-.03-.03.03 0 .04-.05.06-.1-.01 0-.02-.01-.03-.03.03.01.06-.07.09-.07-.01-.04-.01-.06.01-.09.02 0 .04.01.05.02 0-.02.02-.02.04-.02l.04-.01c.02.01.04 0 .08.02s.06.04.07.05c.01.01.01.04.02.04.01.01.02.03.02.04.02 0 .04.01.06.03 0 .02-.02.05-.05.06.03.04-.04.13-.07.2.37-.09.66.02.83.02.22 0 .39-.05.39-.11 0-.07-.85.1-.85-.12 0-.07.09-.13.19-.15.01-.01.02-.02.03-.02.14-.08.46.04.57-.03-.01.04-.16.07-.31.07.25.05.42-.1.68-.01-.2-.06-.58.19-.91.1a.154.154 0 0 1-.06-.04c-.07.02-.12.05-.12.1 0 .14.86-.07.87.12.01.09-.18.17-.47.17h-.08c0 .07.09.07.14.13.03.03.01.06-.04.08-.04.01.02.05.05.05-.02.03-.04.03-.06.03h-.01c-.01.02-.05.04-.02.07-.02.01-.03 0-.04-.02v.01c.01.02 0 .04-.01.04-.05.04-.07-.01-.09.01-.02.02.02.05-.04.08H28c-.01.01 0 .03 0 .04-.04-.01-.04-.04-.03-.06 0-.01-.01-.02-.01-.02-.01-.02.02-.04.04-.05v-.01c-.03-.01-.06.03-.08.02 0 0-.01-.01-.01-.02-.03.01-.03.02-.04.03-.01-.02-.01-.05.01-.06 0-.01-.01-.02-.01-.02-.01-.03.04-.03.07-.02.01 0 .01 0 0-.01s-.02-.02-.01-.03v-.01c-.02-.01-.04 0-.06 0 .01-.03.05-.04.08-.03 0 0 .02-.01.04 0s.03.03.05.05h.01c.03-.01.02-.03.07-.06.02-.01.01-.02.01-.03a.312.312 0 0 0-.13-.06c-.03.05-.22.02-.28.01.12.08.06.24.09.25.05.02.05.1.04.12-.01.02-.04.01-.08 0h-.03c-.04.01 0 .06-.05.07-.03.01-.05-.01-.06-.02 0-.01 0-.01-.01-.01h-.02s-.01 0-.01.01 0 .02-.01.03c0 0-.01.01-.02.01 0 .01.03.02.04.02-.04.03-.09 0-.08-.03l-.01-.02c0-.01.01-.01.01-.02 0 0 0-.01-.01-.01 0 .01-.01.01-.01.01h-.02c0 .01.01.02.02.03-.04.01-.06-.01-.06-.04 0-.01-.01-.02-.01-.02-.02-.08.08-.03.08-.07 0-.01 0-.01-.01-.01s-.01.01-.03.01c-.03 0-.03-.01-.03-.02v-.01c-.02 0-.04.02-.05.03-.01-.03.03-.07.07-.07 0 0 .02-.01.02-.02.08-.03.08.13.15.08.01-.01.04-.01.07-.02 0 0 .01 0 0-.01-.02-.01-.08-.07-.08-.12 0-.04.01-.1.03-.13-.09.01-.13.07-.22.08h-.03c-.01.13-.06.17-.06.19-.03 0-.11.03-.13.03zm.11-.85c-.01.02.01.06.03.06.03 0 .02-.01.06-.02-.03 0-.08-.03-.09-.04zm-.15-.07c.02.04 0 .05.02.07.02.02.05 0 .06-.02 0-.01-.05-.04-.08-.05zm.07.27c.01-.02.01-.03.01-.04-.01-.01-.02-.02-.01-.04s.03-.01.04 0c-.01-.02-.01-.03.01-.03.01 0 .01.03.02.03s.01-.02.01-.03c0-.01-.01-.01-.02-.02l-.08-.04c-.01 0-.02-.01-.02 0s-.02.01-.01.02c0 .01.02-.01.03 0 .01.01 0 .02-.02.02.02.01.03.02.03.04-.01.02-.02.02-.03.02-.01 0-.02.01-.02.03-.01.01-.01.04.02.06.01.03.03 0 .04-.02zm-4.28-2.45v.02l.08-.19c.2.11.51.24.77.24.62 0 1.06-.3 1.29-.3.26 0 .4.18.39.42v.06h.07c.06.01.13.05.13.13-.01.08-.07.12-.15.11h-.05l-.05 2.14.07.01-.01.19c-.02.06-.09.07-.16.07.04.33-.25.41-.38.41-.15 0-.28-.1-.28-.27 0-.14.13-.2.21-.2.08 0 .13.03.11.11-.02.06-.16.01-.16.09 0 .05.05.09.12.09.11 0 .17-.05.17-.18 0-.2-.19-.22-.37-.18-1.22-.36-1.92-1.55-1.83-2.49a.689.689 0 0 1-.08-.03l.08-.18c-.03.04-.07.06-.12.06-.09 0-.15-.07-.15-.15s.07-.15.15-.15c.08.01.15.08.15.17zm1.51.23l.61.87c.04-.23.07-.43.09-.55 0-.02.01-.04.01-.06h-.04c-.08-.01-.14-.05-.13-.14.01-.08.09-.12.15-.11h.05c.02-.2 0-.24-.1-.24-.12-.01-.36.11-.64.23zm-.45.14l.96 1.37c.02-.14.05-.29.07-.44l-.72-1.02c-.1.04-.21.07-.31.09zm-.5.04l1.36 1.94c.02-.11.04-.25.06-.4l-1.09-1.55c-.07.01-.14.01-.21.01-.03.01-.08.01-.12 0zm-.18.02c-.1 1.11.69 1.82 1.49 2.13l-1.49-2.13zM16.95 2.74a.205.205 0 1 0-.29-.29.205.205 0 0 0 .29.29zm9.79 14.81c.02.01.03.01.04.01.01 0 0-.01-.01-.01-.08-.03-.08-.05-.07-.07 0 0 .01-.01.01-.02-.01-.03-.03-.03-.05-.03.02-.01.06-.01.08.01h.03c.01 0 .03.01.04.03.02.03.01.04.03.06.04.05.16.01.21-.02.04-.02.14-.01.15-.01.01 0-.05-.05-.04-.1l-.02.01c-.02-.01-.03-.03-.04-.05-.02.01-.07.03-.06.04-.11-.06-.16-.17-.18-.17-.01 0-.01.01-.01.03-.03 0-.04-.03-.04-.05 0 0 0-.01-.01-.01s-.02.01-.02.01c-.01 0-.02-.01-.02-.03 0 0 0-.01-.01 0-.07.04-.17-.02-.12-.11 0 .08.1.09.1.02 0-.01 0-.01-.01-.01-.05-.01-.06-.05-.02-.09v-.01c-.01 0-.01-.01-.02-.01h-.02c-.02.01-.03.01-.04.01 0 0-.01-.01-.02-.01h-.01c-.02.01-.02.03-.01.04-.04-.02-.03-.06-.01-.07v-.02c0-.03.03-.06.09-.03h.01v-.01s0-.01-.01-.01c-.04 0-.06-.01-.06-.05 0 0 .01-.02.01-.03-.01-.01-.02-.01-.03-.01.04-.04.08-.01.08.02v.01h.02c.03 0 .05.05.06.08 0 0 0 .01.01 0v-.03c-.01-.02-.01-.03 0-.05l.02-.02c0-.03-.02-.04-.03-.05.02-.01.06.02.07.05.01.01.01.04.01.04 0 .04-.02.08-.02.13 0 .06 0 .08.05.11.07.04.11.11.15.12.02 0 .03 0 .04.01h.04l.05.02c0-.02 0-.05.01-.08-.01 0-.03-.01-.05-.04.03 0 .04-.06.07-.11-.01 0-.02-.01-.03-.04.03.01.06-.07.1-.07-.01-.04-.01-.07.01-.1.02 0 .05.01.06.03 0-.02.03-.02.04-.02 0 0 .04-.01.05-.01.02 0 .04 0 .08.02s.07.04.08.05c.01.01.02.04.02.05.01.01.03.03.02.05.02 0 .05.01.07.03 0 .03-.02.06-.06.07.04.05-.05.14-.07.2.35-.11 1.24.01 1.45.01.13 0 .36-.02.36-.08 0-.04-.05-.07-.28-.07-.23 0-1.17.16-1.17-.11 0-.15.31-.12.57-.12.01-.01.02-.01.02-.02.14-.09.48.04.6-.04-.01.04-.17.07-.33.07.26.05.44-.11.71-.02-.21-.06-.61.2-.96.1-.03-.01-.05-.02-.06-.04-.21-.01-.49-.05-.49.05 0 .15.83.05 1.1.05.27 0 .36.05.36.14 0 .1-.29.12-.44.13-.02 0-.01.01 0 .01.15.01.23.03.32.02.05-.01.05.02.05.03 0 .05.06.02.08 0 0 .04-.01.06-.03.07-.01 0-.01.01 0 .01.01.03-.01.07.04.07-.01.03-.03.02-.05.02v.01c.02.01.03.03.02.04-.01.07-.07.05-.07.08s.05.03.03.09c0 0-.01.02-.02.03 0 .01.02.02.03.03-.04.02-.07 0-.07-.02-.01 0-.02 0-.02-.01-.03-.01-.02-.05 0-.08h-.01c-.03.02-.03.07-.05.07h-.02c-.01.03-.01.04-.01.05-.02 0-.04-.03-.04-.06-.01 0-.02-.01-.02-.01-.04-.02.01-.06.04-.08.01-.01-.01-.01-.01-.01-.03.03-.08.01-.08-.03v-.03c-.03 0-.05.02-.06.03 0-.04.04-.06.07-.07 0 0 .02-.02.04-.02.04 0 .09.02.1 0 .02-.03 0-.04.02-.1.01-.02-.01-.03-.02-.03-.02 0-.09-.02-.15.02-.06.03-.1.05-.22.05-.07 0-.12-.02-.17-.04.03.04 0 .08.02.09.05.03.06.11.04.13-.01.02-.08.02-.12.01h-.04c-.05.01 0 .06-.06.08-.03.01-.05-.01-.07-.03 0 0 0-.01-.01-.01h-.02s-.01 0-.01.01 0 .03-.01.03c0 0-.01.01-.02.01.01.01.03.02.05.02-.05.03-.09 0-.09-.03l-.01-.03c0-.01.01-.01.01-.02 0 0 0-.01-.01-.01h-.01c0 .01-.01.01-.01.01h-.02c0 .01.01.03.02.03-.05.01-.07-.01-.07-.04a.144.144 0 0 1-.02-.03c-.02-.09.09-.04.09-.07 0-.01 0-.01-.01-.01s-.01.01-.03.01c-.03 0-.03-.01-.03-.03v-.02c-.03 0-.04.02-.06.03-.01-.03.04-.08.07-.08l.02-.02c.09-.03.09.14.17.09.01-.01.05-.02.07-.02 0 0 .01-.01 0-.01-.02-.02-.07-.03-.09-.04-.05-.01-.05-.11-.02-.16-.02.02-.03.05-.06.05-.52-.05-.27.2-.71.14-.03 0-.02.06-.1.05-.04.01-.08.01-.08.02 0 .04-.11.11-.14.09.02-.01.03-.03.03-.04 0-.01 0-.01-.01 0-.07.05-.14 0-.15.12-.03-.03-.01-.08-.03-.08-.01 0-.02.02-.02.02-.01-.01-.01-.03-.01-.05 0 0 0-.01-.01 0-.05.01-.08.01-.09 0 0-.01-.01-.02-.02-.03-.01.05-.06.07-.08.08.03-.03.03-.06.02-.08-.01.02-.03.03-.04.03.01-.02-.01-.04-.02-.05 0 0-.01 0-.01.01.01.02-.02.06-.06.07-.05.01-.06-.04-.06-.06 0-.01-.01-.01-.01-.01-.02.02-.01.06-.04.08 0 0-.01 0-.03-.01 0 .03.02.06.03.07-.03 0-.08-.03-.07-.08v-.01c-.01-.01-.02-.01-.02-.01-.04-.03.01-.06.03-.1 0 0 0-.01-.01 0-.08.05-.1.02-.11-.02 0 0 0-.01-.01-.02-.03.01-.04.03-.04.04-.02-.04.03-.08.06-.08h.01c.01 0 .02-.01.02-.01.14.03.14.06.17.09zm.74-.63c-.01.03.01.07.04.07s.02-.02.07-.03a.23.23 0 0 1-.11-.04zm-.16-.08c.03.04 0 .05.02.07.03.02.05 0 .07-.02-.01 0-.07-.04-.09-.05zm.01.33c.03.01.05-.01.06-.03.01-.02.01-.04.01-.04-.01-.01-.02-.03-.01-.04.01-.02.03-.01.05 0-.01-.02-.01-.03 0-.03.02 0 .01.03.02.03s.01-.02.01-.03c0-.01-.01-.02-.02-.02l-.09-.04c-.01 0-.02-.01-.03 0-.01.01-.02.01-.02.02s.02-.01.03 0c.01.01 0 .02-.02.02.02.01.04.02.03.04-.01.02-.02.02-.04.02-.01 0-.02.01-.03.03.02.02.02.06.05.07zm-.76 1.52s.01 0 0 0c.02 0 .03-.01.03-.01.04-.02.04.01.07.04.02.01.03.01.04 0 .01 0 0-.01 0-.01-.08-.03-.08-.05-.07-.07l.01-.02a.055.055 0 0 0-.05-.03c.02-.01.06-.01.08.01h.03c.01 0 .03.01.04.03.01.02.01.04.02.06.03.05.15.01.2-.02.03-.02.13-.01.15-.01.01 0-.01-.08 0-.13l-.06.01c-.02-.01-.03-.02-.03-.03-.09-.05-.09-.02-.1-.02-.01 0-.01.02-.01.03-.03 0-.03-.03-.03-.05 0 0 0-.01-.01-.01s-.02.01-.02.02c-.01 0-.02-.01-.02-.03h-.01c-.07.04-.17-.02-.11-.1 0 .07.09.09.1.01 0-.01 0-.01-.01-.01-.05-.01-.06-.05-.02-.08v-.01c-.01 0-.01-.01-.02-.01h-.01c-.02.01-.03.01-.03.01s-.01-.01-.02-.01h-.01c-.01 0-.01.02-.01.04-.04-.02-.03-.05-.01-.07v-.02c0-.02.03-.05.08-.03h.01v-.01s0-.01-.01-.01c-.04 0-.06-.01-.06-.05 0 0 .01-.02.01-.03-.01-.01-.02-.01-.03-.01.04-.04.07-.01.07.02v.01h.02c.03 0 .04.05.06.08 0 0 0 .01.01 0v-.03c-.02-.01-.01-.03 0-.05l.02-.02c0-.02-.02-.04-.03-.04.02-.01.06.02.07.04 0 .01.01.04.01.04 0 .04-.02.08-.02.13s0 .08.05.11c.07.04.09.03.13.04h.01l.03.01c0-.03.01-.07.02-.1-.01-.01-.02-.01-.03-.03.03 0 .04-.06.06-.1-.01 0-.02-.01-.03-.03.03.01.06-.07.09-.07-.01-.04 0-.06.01-.09.02 0 .04.01.06.03 0-.02.02-.02.04-.02.01 0 .04-.01.05-.01.02 0 .04 0 .08.02s.06.04.08.05c.01.01.02.04.02.04.01.01.02.03.01.04.02 0 .05.01.06.03 0 .03-.02.05-.05.07.03.04-.03.11-.06.17.34-.07.91.03 1.09.03.12 0 .37-.02.37-.08 0-.04.02-.06-.19-.06-.22 0-.91.15-.91-.11 0-.12.15-.12.33-.12l.02-.02c.14-.08.46.04.57-.04-.01.04-.16.07-.31.07.25.05.42-.11.68-.01-.2-.06-.58.19-.91.1-.04-.01-.05-.03-.06-.04-.14-.01-.25-.01-.25.06 0 .14.58.05.84.05s.27.05.27.13c0 .1-.3.12-.45.13-.02 0-.01.01 0 .01.15.02.26.03.34.02.05-.01.04.02.04.02-.01.04.05.02.07 0 0 .04-.02.06-.04.07v.01c0 .02-.03.06.02.06-.02.03-.03.02-.05.02.02.01.02.03.02.04-.02.06-.07.04-.08.07-.01.03.05.03.01.09l-.03.03c0 .01.02.02.03.02-.04.02-.07 0-.07-.02-.01 0-.02-.01-.02-.01-.02-.01-.01-.04.01-.07h-.01c-.03.01-.04.07-.06.07h-.02c-.02.03-.02.04-.02.05-.02 0-.03-.03-.02-.05-.01 0-.02-.01-.02-.01-.03-.02.02-.05.05-.07.01-.01 0-.01-.01-.01-.03.03-.08.02-.07-.03v-.01c-.03 0-.05.02-.06.03.01-.03.05-.06.08-.07 0 0 .02-.01.04-.01.03 0 .08.02.1 0 .02-.03 0-.03.03-.09.01-.02 0-.03-.02-.03s-.08-.02-.15.01a.435.435 0 0 1-.39.01c.03.04 0 .07.02.09.05.03.05.11.04.13-.01.02-.08.02-.12.01h-.03c-.05.01 0 .06-.05.08-.03.01-.05-.01-.06-.03 0 0-.01-.01-.02-.01h-.02s-.01 0-.01.01 0 .03-.01.03c0 0-.01.01-.02.01 0 .02.03.02.05.02-.05.03-.09 0-.09-.03l-.01-.03c0-.01.01-.01.01-.02l-.01-.01h-.01c0 .01-.01.01-.01.01h-.02c0 .01.01.03.02.03-.04.01-.07-.01-.06-.04l-.02-.02c.02-.11.12-.06.12-.09 0-.01 0-.01-.01-.01s-.02.01-.03.01c-.03 0-.03-.01-.03-.03v-.02c-.03 0-.04.02-.05.03-.01-.03.04-.07.07-.07.01-.01.02-.01.02-.01.08-.03.08.13.16.08.01-.01.04-.01.07-.02 0 0 .01 0 0-.01-.02-.01-.06-.03-.09-.04-.05-.01-.05-.11-.02-.15-.02.02-.06.04-.09.04-.36-.06-.19.14-.42.13-.03 0-.02.06-.09.05.02-.01.02-.02.01-.03-.01.01-.01.02-.02.02-.02.06-.1.16-.18.12.02-.01.03-.02.03-.04 0-.01 0-.01-.01 0-.07.05-.16.02-.17.13-.03-.03-.01-.07-.03-.07-.01 0-.02.02-.02.03-.01-.01-.01-.03 0-.05 0 0 0-.01-.01 0-.04.01-.08.01-.09 0 0-.01-.01-.02-.02-.02-.01.05-.05.07-.07.08.03-.03.03-.06.02-.08-.01.02-.03.03-.03.03 0-.02-.01-.04-.02-.05h-.01c.01.02-.02.06-.06.06-.05 0-.05-.04-.06-.06 0-.01 0-.01-.01 0-.02.01 0 .06-.04.07 0 0-.01 0-.02-.01 0 .03.01.06.03.07-.03 0-.07-.03-.07-.07v-.01c-.01-.01-.02-.01-.02-.01-.04-.03.01-.06.03-.09 0 0 0-.01-.01-.01-.08.05-.09.02-.1-.02 0 0 0-.01-.01-.02-.02 0-.04.02-.04.03 0-.03.05-.08.08-.07zm.86-.57c-.01.03.01.07.03.07.03 0 .02-.02.07-.03-.03-.01-.08-.03-.1-.04zm-.15-.08c.03.04 0 .05.02.07.02.02.05 0 .07-.02a.36.36 0 0 0-.09-.05zm.01.32c.03.01.05-.01.06-.03.01-.02.01-.03.01-.04-.01-.01-.02-.02-.01-.04s.03-.01.05 0c-.01-.02-.01-.03 0-.03.02 0 .01.03.02.03s.01-.02.01-.03c0-.01-.01-.02-.02-.02l-.08-.04c-.01-.01-.02-.01-.03 0-.01.01-.02.01-.02.02s.02-.01.03 0c.01.01 0 .02-.02.02.02.01.04.02.03.04-.01.02-.02.02-.03.02-.01 0-.02.01-.03.03.01.02 0 .05.03.07zM21.53 6.27a.29.29 0 1 0 .29.29c0-.16-.14-.29-.29-.29zm-7.78-2.22c.12 0 .21-.09.21-.21s-.09-.21-.21-.21c-.11 0-.21.09-.21.21s.1.21.21.21zm2.71-.24c-.19-.1-.36.07-.19.28.04-.19.2-.14.24 0 .03.13-.09.29-.3.35-.3.09-.4-.1-.47-.26.06-.04.22-.03.39.08l-.14-.47c-.07.17-.17.24-.29.29-.01-.14.09-.41.09-.41l-.57.23s.27.13.36.23a.49.49 0 0 1-.41-.01l.23.44c.05-.2.15-.31.22-.33.06.17.12.37-.15.51-.19.1-.39.07-.46-.05-.08-.13.01-.28.17-.17-.03-.27-.26-.27-.33-.07 0-.28-.07-.45-.37-.53-.08.3.02.47.3.58-.16-.02-.33.14-.11.33 0-.18.15-.2.23-.08.06.08.05.21-.07.29-.09.06-.27.06-.51-.16.07-.03.15-.02.25 0l-.31-.38c.02.13.01.23-.02.29-.07-.07-.09-.14-.12-.28l-.23.21c.22.13.48.35.79.77.33-.2.91-.48 1.27-.63.36-.15.98-.35 1.35-.43-.08-.52-.04-.85.02-1.1l-.31.01c.08.13.11.19.12.29a.634.634 0 0 1-.22-.2l.04.48c.06-.09.1-.14.17-.17-.02.31-.14.44-.25.47a.205.205 0 0 1-.25-.16c-.03-.14.1-.23.22-.1.02-.29-.21-.29-.31-.16.12-.28.07-.46-.18-.61-.15.26-.08.43.11.63zM8.78 14.69c-.15-1.58 1.75-1.23 1.91-2.54-.39.57-1.07.99-1.46.77.98.02.68-2 1.81-2 .11 0 .24.03.38.08.31-.25.67-.4.98-.4.45 0 1.17.34 1.17 1.22 0 1.98-3.2 3.25-3.2 5.11 0 .62.37.92.86.92 1.11 0 1.83-1.99 3.04-3.62.75-1.09 1.27-3.28 1.77-4.3-.59.42-.67 1.56-1.38 1.63.38-.32.11-1.3.35-2.02.09-.26.13-.52.06-.78-.43.46-.25 2-.95 2.19.25-.31-.03-.82-.03-1.29 0-.88.46-1.02.5-1.84-.42.16-.28 1.32-1.11 1.29.59-.58-.02-1.2.66-1.87-.4-.18-.67-.49-.67-.81.26-.21.57-.28.85-.3-.13-.19.04-.39.22-.54.06.07.15.24.25.17.17-.11.74-.47 1.24-.66.5-.19 1.15-.37 1.35-.4.12-.02.07-.18.06-.3.24-.02.51 0 .54.25.21-.17.5-.26.79-.28.16.35.2.64.05 1.11.41.03.63.38 1.01.29-.32.44-.72.25-1.09.21 1.09.33 1.29 1.4 1.9 1.48-.65.5-1.08-.39-1.64-.38 1.45.73 1.46 1.6 1.87 1.61-.45.41-.8-.12-1.38-.26 1.15.76 1.23 1.37 1.13 1.88.25.23.22.53.24.89.19-.13.52-.18.74-.24-.08.08-.15.16-.23.24-.58.65-.99 1.28-1.32 2.11-.25-.24-.51-.5-.65-.62-.23-.22-.45-.17-.55-.16.38.42 1.62 1.75 1.98 2.17.37.43.33.73.37 1.05.05.32.46.57.37.79-.1.27.13.33.13.54 0 .27-.23.4-.49.46.19-.37.02-.58-.29-.64.06.71-.49.81-.72.7.22-.04.31-.38.19-.69-.1.24-.35.43-.58.43-.22 0-.39-.16-.47-.35.26.17.47-.03.47-.16s-.26-.2-.26-.4c0-.48.53-.28.53-.71 0-.17-.09-.25-.2-.25-.11 0-.28.05-.33.34-.26-.23 0-.77-.12-1.12.02.56-.36.53-.51.74-.19-.19 0-.58-.19-1.03-.07.51-.26.44-.32.74-.52-.25-1.44-.17-1.76.18.89.69 1.94 1.05 1.94 2.11 0 .82-1.28 1.14-1.28 1.66 0 .53 1.33 1.74 2.01 1.74.22 0 .32-.27.51-.28.18-.01.34 0 .51.01.17.01.3.16.29.31.31.03.7.51.31.9-.06-.22-.27-.52-.67-.31.15.35.02.7-.44.83.14-.23.17-.54-.1-.54s-.04.17-.55.17-.45.02-.66-.27c-.21-.29-.35-.4-.47-.36-.11.04-.17.33.03.44-1.08 0-.63-1.11-1.19-1.38.02.35.04.61-.01.78-.4-.31-.64-.73-.72-1-.07-.27-.02-.52-.28-.65-.08-.04-.18-.13-.15-.27.02-.11.09-.08.28-.17.23-.1.52-.33.52-.89 0-.43-.08-1.02-.8-1.43.05.91.04 1.68-.38 2.38-.53.9-1.43 1.45-1.94 1.67-.51.22-1.23.39-1.23 1.06 0 1.25.56 1.99 1.13 1.99.36 0 .28-.41.8-.41.23 0 .48.09.53.26.29-.05.6.11.6.38s-.12.43-.34.47c.17-.35-.26-.44-.39-.36-.13.08.04.21.04.42s-.07.41-.44.51c.08-.13.08-.31-.15-.31-.23 0-.31.38-.6.38-.47 0-.6-.2-1.04-.11-.32.09-.32.28-.2.36-.64.04-.51-.66-.37-.8s.23-.23.04-.36c-.19-.13-.5 0-.56.31-.48-.94.19-.89-.03-1.94-.11.44-.38.78-.59.89.08-.24-.13-.67-.13-1.03 0-.8.5-1.06.5-1.32 0-.17-.19-.35.01-.52.11-.09.34.09.48.09.64 0 1.1-.82 1.2-1.73.12-1.09.55-1.83 1-2.65.02-.13.04-.26.07-.38-.45.56-.84 1.41-1.46 1.9.08.69-1.28 1.49-2.06.88.25.02.74-.1.88-.49-.12-.01-.22-.03-.33-.07-.47.26-1.22-.07-1.21-.59.19.22.42.27.64.17-.16-.22-.26-.51-.26-.85 0-2.03 3.18-3.43 3.18-5.09 0-.53-.33-.8-.69-.8-.2 0-.41.05-.64.2.15.14.26.32.26.53.01 1.88-3.01 1.7-3.27 2.93zm8.04-8.87c.17.3.56.5.85.28.23-.18.03-.38.32-.82-.31.19-.77.38-1.17.54zm-.85.33c-.4.15-.87.33-1.23.41.51.12.51.4.8.38.37-.04.51-.46.43-.79zm.31 1.18c.17-.02.16.13.04.35.26-.06.51-.17.62.06.1.2.05.32-.12.48-.09.08-.03.27.05.49.07.22.36.55.74.39.4-.17.37-.56.26-.76-.1-.21-.19-.39-.31-.39-.23 0-.35-.05-.42-.26-.08-.24.17-.33.4-.47-.24-.07-.36-.18-.22-.28.16-.12.38.11.44 0 .05-.1-.12-.19-.19-.26-.1-.1-.19-.07-.33-.02l-1.08.41c-.14.06-.22.11-.23.24 0 .1-.06.28.05.32.1.05.1-.28.3-.3zm-2.2-3.73c.12 0 .21-.09.21-.21 0-.11-.09-.21-.21-.21-.11 0-.21.09-.21.21s.1.21.21.21zm1.85-.6c.08-.08.08-.21 0-.29-.08-.08-.21-.08-.3 0-.08.08-.08.21 0 .29.09.08.22.08.3 0zm-1.3.56c.12 0 .21-.09.21-.21 0-.11-.09-.21-.21-.21-.11 0-.21.1-.21.21.01.12.1.21.21.21zm1.77-.91a.205.205 0 1 0-.29-.29.205.205 0 0 0 .29.29zm-1.8.06l.17.36.21-.25c.01 0 .02.01.02.01.02.12.03.33.03.45 0 .15.12.26.26.26.15 0 .27-.12.27-.26 0-.1-.06-.19-.14-.23-.1-.08-.22-.18-.29-.27.01-.01.01-.02.01-.03l.35.03-.14-.38-.26.22-.01-.01-.02-.38-.36.14.24.29c-.01.01-.01.02-.02.03l-.32.02z"/></svg>