<?xml version="1.0" encoding="UTF-8"?>
<svg width="171px" height="25px" viewBox="0 0 171 25" version="1.1" xmlns="http://www.w3.org/2000/svg" xmlns:xlink="http://www.w3.org/1999/xlink">
    <!-- Generator: Sketch 61.2 (89653) - https://sketch.com -->
    <title>t-mobile</title>
    <desc>Created with Sketch.</desc>
    <g id="Page-1" stroke="none" stroke-width="1" fill="none" fill-rule="evenodd">
        <g id="t-mobile" transform="translate(0.584163, 0.514926)" fill="#000000" fill-rule="nonzero">
            <path d="M0.00817258955,10.7869771 L4.75807015,10.7869771 L4.75807015,15.5368746 L0.00817258955,15.5368746 L0.00817258955,10.7869771 Z M14.258157,10.7869771 L19.0068876,10.7869771 L19.0068876,15.5368746 L14.258157,15.5368746 L14.258157,10.7869771 Z M28.5273966,10.7869771 L33.2770024,10.7869771 L33.2770024,15.5368746 L28.5273966,15.5368746 L28.5273966,10.7869771 Z" id="Shape"></path>
            <path d="M39.8365932,18.4070602 C39.8365932,19.914214 40.058611,20.8915592 40.4982705,21.342305 C40.8731626,21.7262412 41.5085828,21.9616792 42.4007385,22.0521201 C42.665351,22.0748762 43.1166803,22.0847956 43.7547262,22.0847956 L43.7547262,23.4037739 L32.3142445,23.4037739 L32.3142445,22.0847956 C33.2320737,22.0847956 33.9124227,22.0395751 34.3491647,21.9526352 C35.2357772,21.7650432 35.7950521,21.2495301 36.0252387,20.4023031 C36.1428119,19.9623519 36.2052453,19.298049 36.2052453,18.407352 L36.2052453,1.15239581 C34.2622247,1.20811907 32.7445681,1.85112468 31.6478993,3.08228786 C30.606662,4.2591865 29.972117,6.06392001 29.7428056,8.49415444 L28.5028901,8.28234769 L28.733952,0.0306369414 L47.335894,0.0306369414 L47.5669559,8.28234769 L46.3296661,8.49415444 C46.0986042,6.06392001 45.4602665,4.2591865 44.414653,3.08228786 C43.3121493,1.85083293 41.7877826,1.20811907 39.8374684,1.15239581 L39.8374684,18.4070602 L39.8365932,18.4070602 Z" id="Path"></path>
            <path d="M42.8593614,10.7869771 L47.6080919,10.7869771 L47.6080919,15.5368746 L42.8593614,15.5368746 L42.8593614,10.7869771 Z M57.1067201,10.7869771 L61.8566177,10.7869771 L61.8566177,15.5368746 L57.1067201,15.5368746 L57.1067201,10.7869771 Z M89.0936232,23.4037739 L88.0555951,23.4037739 L82.1180043,2.93349799 L82.1180043,17.6940359 C82.1180043,19.1705565 82.1737276,20.1196024 82.2834236,20.5493425 C82.61222,21.7259494 83.388553,22.31294 84.6071712,22.31294 L85.053249,22.31294 L85.053249,23.4034822 L78.0767549,23.4034822 L78.0767549,22.31294 L78.6199838,22.31294 C79.1369556,22.31294 79.5926611,22.1396436 79.9911845,21.7863406 C80.3625757,21.4560855 80.6053074,20.9572018 80.7158787,20.2850217 C80.7911488,19.7805949 80.8308261,18.9155715 80.8308261,17.6931606 L80.8308261,4.64866584 C80.8308261,3.8694154 80.7981507,3.35798672 80.7327999,3.11525502 C80.5997642,2.57727756 80.3068524,2.23681134 79.8578571,2.09093893 C79.5926611,2.00429071 79.2078496,1.95965375 78.7019641,1.95965375 L78.0764632,1.95965375 L78.0764632,0.88778325 L84.6065877,0.88778325 L89.4244618,17.4513042 L94.3406539,0.88778325 L100.925043,0.88778325 L100.925043,1.95965375 L100.462919,1.95965375 C99.6142335,1.95965375 99.0199492,2.13732635 98.6791913,2.48917062 C98.4498798,2.71089669 98.3098423,3.01577003 98.2666641,3.41079253 C98.2018967,3.90821747 98.1660121,4.53430187 98.1660121,5.29342192 L98.1660121,18.998427 C98.1660121,20.141775 98.2264033,20.9026455 98.3477692,21.2772459 C98.5922513,21.9689729 99.2971068,22.3138153 100.462919,22.3138153 L100.925043,22.3138153 L100.925043,23.4043574 L92.4580245,23.4043574 L92.4580245,22.3138153 L92.7401418,22.3138153 C93.5856183,22.3138153 94.183987,22.1457702 94.5372899,21.8050123 C94.7692271,21.5827027 94.9060554,21.2717027 94.9492336,20.8635517 C95.0169184,20.3810058 95.0478434,19.759881 95.0478434,18.998427 L95.0478434,2.93349799 L89.0936232,23.4037739 L89.0936232,23.4037739 Z M108.120637,7.38406536 C110.227619,7.38406536 111.934034,8.21437115 113.245719,9.87469097 C114.390817,11.3275802 114.965555,13.2379254 114.965555,15.6031007 C114.965555,18.0012432 114.391109,19.932594 113.245719,21.3980282 C111.944829,23.0577646 110.203696,23.8886538 108.023486,23.8886538 C105.963184,23.8886538 104.280692,23.0577646 102.980094,21.3980282 C101.834703,19.932594 101.262883,18.0134965 101.262883,15.6354844 C101.262883,13.2472612 101.834703,11.3275802 102.980094,9.87469097 C104.293237,8.21466289 106.006071,7.38406536 108.120637,7.38406536 M108.120637,8.46989895 C107.351015,8.46989895 106.661622,8.78473229 106.056251,9.40994146 C105.051774,10.4441769 104.552015,12.4659685 104.552015,15.471232 C104.552015,17.9589402 104.860389,19.8421531 105.477138,21.1176615 C106.028244,22.2402956 106.909313,22.8024878 108.120929,22.8024878 C110.490772,22.8024878 111.676132,20.3903416 111.676132,15.5680913 C111.676132,13.3458709 111.417354,11.6575436 110.896881,10.5022341 C110.579463,9.78483356 110.111796,9.23664503 109.495339,8.84891615 C109.080754,8.59839353 108.605029,8.46724622 108.120637,8.46989895 M120.591562,10.0619911 C120.879222,9.40994146 121.247113,8.90347243 121.698442,8.53616569 C122.531082,7.86223514 123.499674,7.52497811 124.598385,7.52497811 C126.226613,7.52497811 127.561638,8.10263288 128.606376,9.25852589 C129.958321,10.7653879 130.631668,12.7944732 130.631668,15.347824 C130.631668,17.7780584 130.029507,19.8150208 128.81935,21.4528763 C127.685046,22.9810357 126.193354,23.7462824 124.348068,23.7462824 C123.346508,23.7462824 122.430138,23.4767101 121.592247,22.9390244 C121.418075,22.8293284 121.044058,22.5378753 120.470488,22.0652487 C120.251971,21.888743 120.058836,21.8026783 119.894292,21.8026783 C119.695614,21.8026783 119.475638,21.9788922 119.233781,22.3292777 C118.986242,22.6800713 118.749716,23.0385086 118.52455,23.4040657 L117.400749,23.4040657 C117.51132,23.0834381 117.569669,22.8917618 117.582506,22.8252439 C117.681115,22.3756652 117.728962,21.4587112 117.728962,20.0729232 L117.728962,4.61919962 C117.728962,3.39941448 117.5933,2.6394192 117.318768,2.34358995 C117.085956,2.06789108 116.652715,1.92960403 116.014377,1.92960403 L115.766686,1.92960403 L115.766686,0.890408953 L120.58952,0.659638793 L120.58952,10.0619911 L120.591562,10.0619911 L120.591562,10.0619911 Z M124.147056,8.72696681 C123.409525,8.72696681 122.72305,9.012585 122.086754,9.58323788 C120.899936,10.6723213 120.306527,12.6351805 120.306527,15.4776504 C120.306527,17.675656 120.587186,19.3718604 121.146169,20.5694729 C121.443749,21.2060601 121.871155,21.7119457 122.431888,22.0845038 C122.893137,22.3908359 123.415652,22.5437102 123.999142,22.5437102 C126.229822,22.5437102 127.342537,20.168032 127.342537,15.4128831 C127.342537,13.2388006 127.064504,11.5603926 126.502896,10.3738664 C125.975713,9.27515535 125.192378,8.72696681 124.147056,8.72696681 M136.890762,7.63438243 L136.890762,19.6259701 C136.890762,20.8682196 137.030216,21.6442609 137.305915,21.9508847 C137.535226,22.2254166 137.968759,22.3634119 138.608847,22.3634119 L139.151784,22.3634119 L139.151784,23.4037739 L131.770932,23.4037739 L131.770932,22.3634119 L132.315911,22.3634119 C132.953082,22.3634119 133.386615,22.2254166 133.619427,21.9508847 C133.894543,21.6334663 134.031079,20.8577168 134.031079,19.6259701 L134.031079,11.6099892 C134.031079,10.3890371 133.894543,9.62524914 133.619427,9.3171666 C133.386615,9.05284579 132.953082,8.92039363 132.315911,8.92039363 L131.934893,8.92039363 L131.934893,7.86573608 L136.890762,7.63438243 L136.890762,7.63438243 Z M135.224024,0.717112525 C135.716489,0.717112525 136.139227,0.899453043 136.49078,1.26092489 C136.853127,1.62473069 137.036343,2.05709653 137.036343,2.56181508 C137.036343,3.0682841 136.861296,3.50094169 136.507118,3.864164 C136.144479,4.22680282 135.707737,4.40651763 135.18989,4.40651763 C134.672626,4.40651763 134.240552,4.22651108 133.888999,3.864164 C133.526652,3.50094169 133.343145,3.06799236 133.343145,2.56181508 C133.343145,2.03521566 133.529278,1.59526446 133.904462,1.24546241 C134.266226,0.893618146 134.706468,0.717112525 135.224024,0.717112525 M145.440928,0.653512152 L145.440928,19.6239279 C145.440928,20.8574251 145.577464,21.6314241 145.854622,21.9505929 C146.098229,22.2251248 146.529719,22.3631201 147.158138,22.3631201 L147.702825,22.3631201 L147.702825,23.4023152 L140.320223,23.4023152 L140.320223,22.3631201 L140.868411,22.3631201 C141.503248,22.3631201 141.937364,22.2251248 142.167551,21.9505929 C142.442083,21.6314241 142.581245,20.8574251 142.581245,19.6239279 L142.581245,4.62853545 C142.581245,3.40904206 142.442083,2.64437887 142.167551,2.33571284 C141.937364,2.06176444 141.503248,1.92376914 140.868411,1.92376914 L140.487392,1.92376914 L140.487392,0.884282312 L145.440928,0.653512152 L145.440928,0.653512152 Z M161.120754,15.5368746 L151.880611,15.5368746 C151.891406,17.7135828 152.117508,19.3205133 152.556876,20.3655433 C153.173624,21.8379794 154.230032,22.5717177 155.724349,22.5717177 C156.890745,22.5717177 157.864006,22.1104691 158.645007,21.1853463 C159.07183,20.6820864 159.502445,19.9818988 159.929559,19.0906184 L160.938121,19.6183848 C159.51499,22.4675648 157.603186,23.8886538 155.188122,23.8886538 C153.418107,23.8886538 151.963467,23.2835751 150.830913,22.0737093 C149.417702,20.565972 148.714596,18.3875133 148.714596,15.5368746 C148.714596,12.9172978 149.417702,10.8234452 150.830913,9.24773133 C151.943336,8.00548185 153.278653,7.38114791 154.84328,7.38114791 C157.166152,7.38114791 158.912245,8.55221166 160.076599,10.8893795 C160.707643,12.1351299 161.052194,13.683128 161.120754,15.5368746 M158.000834,14.3345942 C158.000834,12.9619348 157.851753,11.83084 157.554757,10.9401431 C157.019113,9.36968067 156.170427,8.58459533 155.014243,8.58459533 C153.715978,8.58459533 152.799316,9.55056246 152.263381,11.4859977 C152.043405,12.2637894 151.925248,13.2128353 151.916204,14.3345942 L158.000834,14.3345942 Z M71.3517449,10.7869771 L76.1007672,10.7869771 L76.1007672,15.5368746 L71.3517449,15.5368746 L71.3517449,10.7869771 Z M165.191177,10.7869771 L169.939908,10.7869771 L169.939908,15.5368746 L165.191177,15.5368746 L165.191177,10.7869771 Z" id="Shape"></path>
        </g>
    </g>
</svg>