<?xml version="1.0" encoding="UTF-8"?>
<svg width="170px" height="49px" viewBox="0 0 170 49" version="1.1" xmlns="http://www.w3.org/2000/svg" xmlns:xlink="http://www.w3.org/1999/xlink">
    <!-- Generator: Sketch 61.2 (89653) - https://sketch.com -->
    <title>tesco</title>
    <desc>Created with Sketch.</desc>
    <g id="Page-1" stroke="none" stroke-width="1" fill="none" fill-rule="evenodd">
        <g id="tesco" fill="#000000" fill-rule="nonzero">
            <path d="M13.0606392,40.429771 L33.752477,40.429771 C33.994238,40.429771 33.994238,40.5506515 33.752477,40.671532 C31.4538137,41.7594564 28.065292,45.1479781 28.065292,45.1479781 C25.7666287,47.4485755 23.9514873,48.8991413 19.9575962,48.8991413 L0.112888834,48.8991413 C-0.00799165057,48.8991413 -0.00799165057,48.6573803 0.112888834,48.6573803 C2.29067164,47.4485755 5.55831288,44.0600537 5.55831288,44.0600537 C6.88896525,42.4866734 9.67211752,40.429771 13.0606392,40.429771 Z M149.073426,40.429771 L169.887111,40.429771 C170.007992,40.429771 170.007992,40.5506515 169.887111,40.671532 C167.467567,41.7594564 164.199926,45.1479781 164.199926,45.1479781 C161.778448,47.4485755 159.963307,48.8991413 156.091263,48.8991413 L136.246556,48.8991413 C136.125675,48.8991413 136.125675,48.6573803 136.246556,48.6573803 C138.424339,47.4485755 141.69198,44.0600537 141.69198,44.0600537 C143.023599,42.4866734 145.684904,40.429771 149.073426,40.429771 Z M47.0638359,40.429771 L67.7556737,40.429771 C67.9974346,40.429771 67.9974346,40.5506515 67.7556737,40.671532 C65.4570104,41.7594564 62.0684886,45.1479781 62.0684886,45.1479781 C59.7698254,47.4485755 57.954684,48.8991413 53.9607928,48.8991413 L34.236966,48.8991413 C33.995205,48.8991413 33.995205,48.6573803 34.1160855,48.6573803 C36.2938683,47.4485755 39.5615095,44.0600537 39.5615095,44.0600537 C40.893129,42.4866734 43.6762812,40.429771 47.0638359,40.429771 Z M81.0670326,40.429771 L101.759837,40.429771 C102.001598,40.429771 102.001598,40.5506515 101.759837,40.671532 C99.4611741,41.7594564 96.0726523,45.1479781 96.0726523,45.1479781 C93.772055,47.4485755 91.9588477,48.8991413 88.08487,48.8991413 L68.2401626,48.8991413 C68.1192822,48.8991413 68.1192822,48.6573803 68.1192822,48.6573803 C70.4179454,47.4485755 73.5647062,44.0600537 73.5647062,44.0600537 C74.8963256,42.4866734 77.6794779,40.429771 81.0670326,40.429771 L81.0670326,40.429771 Z M115.070229,40.429771 L135.883915,40.429771 C136.004795,40.429771 136.004795,40.5506515 135.763034,40.671532 C133.464371,41.7594564 130.075849,45.1479781 130.075849,45.1479781 C127.775252,47.4485755 125.96011,48.8991413 122.088067,48.8991413 L102.243359,48.8991413 C102.122479,48.8991413 102.122479,48.6573803 102.243359,48.6573803 C104.421142,47.4485755 107.688783,44.0600537 107.688783,44.0600537 C108.899522,42.4866734 111.681707,40.429771 115.070229,40.429771 L115.070229,40.429771 Z" id="Shape"></path>
            <path d="M120.758381,0.0131394185 C107.687816,0.0131394185 98.9757181,6.78921584 98.9757181,17.0756615 C98.9757181,26.5149768 106.9635,32.8065642 118.820425,32.8065642 C122.694403,32.8065642 126.082925,32.3230423 130.075849,31.2331838 L130.075849,23.369183 C127.29173,26.5149768 123.903208,27.7237816 120.272925,27.7237816 C113.254121,27.7237816 108.415033,23.126455 108.415033,16.3503786 C108.415033,9.69421563 113.375001,4.85416105 120.393806,4.85416105 C124.144969,4.85416105 127.170849,6.3056939 129.592327,8.8470852 L129.592327,0.860269851 C127.049969,0.375780871 123.903208,0.0131394185 120.758381,0.0131394185 L120.758381,0.0131394185 Z M23.2252374,5.57847691 C28.065292,5.57847691 33.8743245,6.54648782 36.2948353,8.60339014 L36.2948353,1.10106378 L1.92803018,1.10106378 L1.92803018,8.60339014 C4.34757395,6.54648782 9.55123703,5.69935739 15.1175416,5.69935739 L15.1175416,26.2712817 C15.1175416,29.2952279 14.8757806,30.1433254 13.6660087,31.7167057 L24.6777373,31.7167057 C23.4679654,30.1433254 23.2252374,29.2952279 23.2252374,26.2712817 L23.2252374,5.57847691 Z M58.3182925,12.9608898 C56.3822707,13.6871398 52.751988,13.8080203 50.9368466,13.8080203 L48.0318468,13.8080203 L48.0318468,5.70032444 L51.9038905,5.70032444 C55.4132927,5.70032444 61.3422387,6.42560734 63.641869,8.4834767 L63.641869,1.10203082 L38.5934986,1.10203082 C39.8032705,2.55356367 40.0450315,3.52157459 40.0450315,6.42560734 L40.0450315,26.2712817 C40.0450315,29.2952279 39.8032705,30.1433254 38.7143791,31.7167057 L65.3361299,31.7167057 L65.3361299,24.2134123 C61.7058472,26.9965646 54.6880098,26.9965646 51.9048575,26.9965646 L48.0318468,26.9965646 L48.0318468,18.4053468 L50.8149991,18.4053468 C52.7510209,18.4053468 56.2604231,18.6471078 58.3173255,19.3733578 L58.3173255,12.9608898 L58.3182925,12.9608898 Z M95.4663158,2.07004174 C91.4733917,0.739389367 86.2697286,0.0131394185 82.2768045,0.0131394185 C75.0162391,0.0131394185 67.9974346,2.3118027 67.9974346,10.0568571 C67.9974346,23.368216 89.7781638,16.3494116 89.7781638,24.5789549 C89.7781638,27.2402597 85.9061201,28.3301181 82.7603264,28.3301181 C77.1940219,28.3301181 73.3219782,27.3611401 68.4809566,24.2153464 L68.4809566,30.9914228 C72.1112393,32.2021618 77.0731414,32.9274447 82.3967179,32.9274447 C89.8990443,32.9274447 96.9178487,30.7496619 96.9178487,22.8846941 C96.9178487,8.84805224 75.258,15.1406067 75.258,8.36356326 C75.258,5.580411 78.7674022,4.61240008 81.7923155,4.61240008 C86.8750981,4.61240008 92.4414026,6.18481342 95.4653488,9.21069369 L95.4653488,2.07004174 L95.4663158,2.07004174 L95.4663158,2.07004174 Z M151.374023,0.496661355 C139.635078,0.496661355 131.285621,7.27273777 131.285621,16.8329335 C131.285621,26.2722487 138.789881,32.4429557 149.800643,32.4429557 C161.658535,32.4429557 169.887111,25.9096073 169.887111,16.2285311 C169.887111,6.78921584 162.384785,0.496661355 151.374023,0.496661355 Z M150.525926,27.8456291 C144.234338,27.8456291 140.23948,22.7628465 140.23948,16.470292 C140.23948,10.1777376 144.234338,5.09495497 150.525926,5.09495497 C156.696633,5.09495497 160.812371,10.1777376 160.812371,16.470292 C160.812371,22.7628465 156.696633,27.8456291 150.525926,27.8456291 Z" id="Shape"></path>
        </g>
    </g>
</svg>